<?xml version="1.0" encoding="UTF-8" standalone="no"?>
<svg
   xmlns:dc="http://purl.org/dc/elements/1.1/"
   xmlns:cc="http://creativecommons.org/ns#"
   xmlns:rdf="http://www.w3.org/1999/02/22-rdf-syntax-ns#"
   xmlns:svg="http://www.w3.org/2000/svg"
   xmlns="http://www.w3.org/2000/svg"
   xmlns:sodipodi="http://sodipodi.sourceforge.net/DTD/sodipodi-0.dtd"
   xmlns:inkscape="http://www.inkscape.org/namespaces/inkscape"
   width="20"
   height="20"
   viewBox="0 0 20 20"
   version="1.1"
   id="svg8"
   sodipodi:docname="action-jira-create.svg"
   inkscape:version="0.92.1 r15371">
  <metadata
     id="metadata14">
    <rdf:RDF>
      <cc:Work
         rdf:about="">
        <dc:format>image/svg+xml</dc:format>
        <dc:type
           rdf:resource="http://purl.org/dc/dcmitype/StillImage" />
        <dc:title></dc:title>
      </cc:Work>
    </rdf:RDF>
  </metadata>
  <defs
     id="defs12" />
  <sodipodi:namedview
     pagecolor="#ffffff"
     bordercolor="#666666"
     borderopacity="1"
     objecttolerance="10"
     gridtolerance="10"
     guidetolerance="10"
     inkscape:pageopacity="0"
     inkscape:pageshadow="2"
     inkscape:window-width="1370"
     inkscape:window-height="1027"
     id="namedview10"
     showgrid="false"
     inkscape:zoom="9.8333333"
     inkscape:cx="-1.1694915"
     inkscape:cy="12"
     inkscape:window-x="0"
     inkscape:window-y="0"
     inkscape:window-maximized="0"
     inkscape:current-layer="g6" />
  <g
     id="g6"
     style="fill:none;fill-rule:evenodd"
     transform="translate(0,-4)">
    <path
       d="m 13.75,18.959582 v -2 c 0,-0.276142 0.223858,-0.5 0.5,-0.5 0.276142,0 0.5,0.223858 0.5,0.5 v 2 h 2 c 0.276142,0 0.5,0.223858 0.5,0.5 0,0.276142 -0.223858,0.5 -0.5,0.5 h -2 v 2 c 0,0.276142 -0.223858,0.5 -0.5,0.5 -0.276142,0 -0.5,-0.223858 -0.5,-0.5 v -2 h -2 c -0.276142,0 -0.5,-0.223858 -0.5,-0.5 0,-0.276142 0.223858,-0.5 0.5,-0.5 z M 8.788579,18.304736 C 8.183703,17.521664 7.4252668,16.753016 6.6469668,15.964116 5.7316896,15.036564 4.7849898,14.077369 4.0591699,13.041074 3.2870122,11.938916 2.8591622,10.88705 2.7513199,9.8111204 2.7412822,9.7006288 2.7889876,9.592745 2.8776806,9.5253606 c 0.05765,-0.043797 0.1259417,-0.065778 0.1964121,-0.065778 0.03981,4.22e-5 0.07928,0.00729 0.1164731,0.021399 0.7031118,0.2673587 1.4197144,0.476766 2.0725501,0.6278054 0.1328129,0.03097 0.24032,0.129142 0.2848982,0.24696 0.4755285,1.293912 1.6893622,2.521714 2.9626889,3.81213 0.05204,0.05021 0.122926,0.111822 0.239231,0.111822 0.116557,0 0.188117,-0.06361 0.239231,-0.111822 1.273494,-1.290416 2.487328,-2.522464 2.962689,-3.816294 0.04458,-0.117901 0.152001,-0.216151 0.285066,-0.246959 0.652416,-0.1510395 1.367343,-0.3541189 2.071209,-0.6216441 0.03737,-0.014321 0.07701,-0.021399 0.116138,-0.021399 0.0715,9.1e-6 0.14103,0.023321 0.19792,0.066361 0.08773,0.066611 0.137087,0.1813476 0.126361,0.2894235 -0.107926,1.0757626 -0.535608,2.1213846 -1.307682,3.2237086 -0.131297,0.187438 -0.269815,0.372355 -0.414062,0.555018 -2.241495,0.509053 -3.962814,2.387179 -4.238225,4.708644 z M 5.3082248,6.5034675 c -0.5685866,0 -1.028946,0.47124 -1.028946,1.055445 0,0.58276 0.4603594,1.0557 1.028946,1.0557 0.5689182,0 1.0288629,-0.47294 1.0288629,-1.0557 0,-0.584205 -0.4598617,-1.055445 -1.0288629,-1.055445 z m 6.7597612,0 c -0.568836,0 -1.028615,0.47124 -1.028615,1.055445 0,0.58276 0.459779,1.0557 1.028615,1.0557 0.567259,0 1.028697,-0.47294 1.028697,-1.0557 0,-0.584205 -0.461438,-1.05468 -1.028697,-1.055445 z m -3.379922,-0.96305 c -0.568504,0 -1.0288633,0.471155 -1.0288633,1.05553 0,0.58276 0.4602763,1.0557 1.0288633,1.0557 0.568918,0 1.02878,-0.47294 1.02878,-1.0557 0,-0.584375 -0.459945,-1.05553 -1.028863,-1.05553 z M 6.5841442,17.501532 c -0.046442,-0.04972 -0.11453,-0.100469 -0.2289771,-0.100469 -0.1463762,0 -0.2332068,0.103699 -0.2660481,0.15504 -0.8248486,1.286474 -1.2508738,2.500699 -1.309756,3.720874 -0.00405,0.09063 0.027977,0.179073 0.088738,0.245056 0.061347,0.06557 0.1460663,0.102753 0.2346995,0.10302 h 1.9576262 c 0.16916,-7.54e-4 0.3094877,-0.134341 0.3226911,-0.30719 0.042627,-0.588115 0.2212644,-1.17759 0.5465262,-1.79707 0.112789,-0.214285 0.02513,-0.41565 -0.03972,-0.50167 -0.3226087,-0.4301 -0.7178659,-0.888845 -1.3057758,-1.51759 z M 8.752051,10.493419 c 0.660899,0 1.044239,-0.03384 1.178916,-0.03384 0.163218,0 0.319033,0.113979 0.319033,0.273505 0,0.04654 -0.01293,0.07984 -0.02569,0.109265 -0.08767,0.199749 -0.487156,0.918526 -1.230913,1.53511 -0.08348,0.06919 -0.178024,0.08212 -0.243132,0.08212 h -7.14e-4 c -0.06502,0 -0.159472,-0.01293 -0.242865,-0.08212 C 7.762843,11.760879 7.3632715,11.042102 7.2758651,10.842277 7.2629326,10.812926 7.25,10.779622 7.25,10.733087 c 0,-0.159525 0.1560828,-0.273504 0.3193008,-0.273504 0.1346771,0 0.5177492,0.03384 1.1784692,0.03384 h 0.0044 z"
       id="path4"
       inkscape:connector-curvature="0"
       style="fill:#000000" />
  </g>
</svg>
