<?xml version="1.0" encoding="UTF-8" standalone="no"?>
<svg
   xmlns:dc="http://purl.org/dc/elements/1.1/"
   xmlns:cc="http://creativecommons.org/ns#"
   xmlns:rdf="http://www.w3.org/1999/02/22-rdf-syntax-ns#"
   xmlns:svg="http://www.w3.org/2000/svg"
   xmlns="http://www.w3.org/2000/svg"
   xmlns:sodipodi="http://sodipodi.sourceforge.net/DTD/sodipodi-0.dtd"
   xmlns:inkscape="http://www.inkscape.org/namespaces/inkscape"
   width="20"
   height="20"
   viewBox="0 0 20 20"
   version="1.1"
   id="svg4503"
   sodipodi:docname="action-stop-command.svg"
   inkscape:version="0.92.1 r15371">
  <metadata
     id="metadata4507">
    <rdf:RDF>
      <cc:Work
         rdf:about="">
        <dc:format>image/svg+xml</dc:format>
        <dc:type
           rdf:resource="http://purl.org/dc/dcmitype/StillImage" />
        <dc:title>action-stop-command</dc:title>
      </cc:Work>
    </rdf:RDF>
  </metadata>
  <sodipodi:namedview
     pagecolor="#ffffff"
     bordercolor="#666666"
     borderopacity="1"
     objecttolerance="10"
     gridtolerance="10"
     guidetolerance="10"
     inkscape:pageopacity="0"
     inkscape:pageshadow="2"
     inkscape:window-width="1182"
     inkscape:window-height="975"
     id="namedview4505"
     showgrid="false"
     inkscape:zoom="9.8333333"
     inkscape:cx="-1.1694915"
     inkscape:cy="12"
     inkscape:window-x="182"
     inkscape:window-y="251"
     inkscape:window-maximized="0"
     inkscape:current-layer="action-stop-command" />
  <!-- Generator: Sketch 44.1 (41455) - http://www.bohemiancoding.com/sketch -->
  <title
     id="title4493">action-stop-command</title>
  <desc
     id="desc4495">Created with Sketch.</desc>
  <defs
     id="defs4497" />
  <g
     id="Page-1"
     style="fill:none;fill-rule:evenodd;stroke:none;stroke-width:1"
     transform="translate(0,-4)">
    <g
       id="action-stop-command">
      <path
         d="M 11.554626,15.261733 C 11.205396,15.752142 11,16.352085 11,17 c 0,1.656854 1.343146,3 3,3 0.647915,0 1.247858,-0.205396 1.738267,-0.554626 z m 0.707107,-0.707107 4.183641,4.183641 C 16.794604,18.247858 17,17.647915 17,17 c 0,-1.656854 -1.343146,-3 -3,-3 -0.647915,0 -1.247858,0.205396 -1.738267,0.554626 z M 14,21 c -2.209139,0 -4,-1.790861 -4,-4 0,-2.209139 1.790861,-4 4,-4 2.209139,0 4,1.790861 4,4 0,2.209139 -1.790861,4 -4,4 z M 2.2928932,8.7071068 c -0.3905243,-0.3905243 -0.3905243,-1.0236893 0,-1.4142136 0.3905243,-0.3905243 1.0236893,-0.3905243 1.4142136,0 L 8.707107,12.292893 c 0.390524,0.390524 0.390524,1.02369 0,1.414214 l -5.0000002,5 c -0.3905243,0.390524 -1.0236893,0.390524 -1.4142136,0 -0.3905243,-0.390525 -0.3905243,-1.02369 0,-1.414214 L 6.5857864,13 Z"
         id="Combined-Shape"
         inkscape:connector-curvature="0"
         style="fill:#000000;fill-rule:nonzero" />
    </g>
  </g>
</svg>
