<?xml version="1.0" encoding="UTF-8" standalone="no"?>
<svg
   xmlns:dc="http://purl.org/dc/elements/1.1/"
   xmlns:cc="http://creativecommons.org/ns#"
   xmlns:rdf="http://www.w3.org/1999/02/22-rdf-syntax-ns#"
   xmlns:svg="http://www.w3.org/2000/svg"
   xmlns="http://www.w3.org/2000/svg"
   xmlns:sodipodi="http://sodipodi.sourceforge.net/DTD/sodipodi-0.dtd"
   xmlns:inkscape="http://www.inkscape.org/namespaces/inkscape"
   width="20"
   height="20"
   viewBox="0 0 20 20"
   version="1.1"
   id="svg12"
   sodipodi:docname="action-monitor-off.svg"
   inkscape:version="0.92.1 r15371">
  <metadata
     id="metadata16">
    <rdf:RDF>
      <cc:Work
         rdf:about="">
        <dc:format>image/svg+xml</dc:format>
        <dc:type
           rdf:resource="http://purl.org/dc/dcmitype/StillImage" />
        <dc:title>action-monitor-off</dc:title>
      </cc:Work>
    </rdf:RDF>
  </metadata>
  <sodipodi:namedview
     pagecolor="#ffffff"
     bordercolor="#666666"
     borderopacity="1"
     objecttolerance="10"
     gridtolerance="10"
     guidetolerance="10"
     inkscape:pageopacity="0"
     inkscape:pageshadow="2"
     inkscape:window-width="1342"
     inkscape:window-height="938"
     id="namedview14"
     showgrid="false"
     inkscape:zoom="9.8333333"
     inkscape:cx="-1.1694915"
     inkscape:cy="12"
     inkscape:window-x="0"
     inkscape:window-y="0"
     inkscape:window-maximized="0"
     inkscape:current-layer="action-monitor-off" />
  <!-- Generator: Sketch 44.1 (41455) - http://www.bohemiancoding.com/sketch -->
  <title
     id="title2">action-monitor-off</title>
  <desc
     id="desc4">Created with Sketch.</desc>
  <defs
     id="defs6" />
  <g
     id="Page-1"
     style="fill:none;fill-rule:evenodd;stroke:none;stroke-width:1"
     transform="translate(0,-4)">
    <g
       id="action-monitor-off">
      <path
         d="m 16,12.878654 c -0.120367,0.08059 -0.234675,0.17404 -0.34099,0.280356 L 14.5,14.31802 13.34099,13.15901 c -0.878679,-0.87868 -2.303301,-0.87868 -3.18198,0 C 9.3866461,13.931374 9.2931941,15.12556 9.8786541,16 h -4.378654 c -0.2761424,0 -0.5,0.223858 -0.5,0.5 0,0.276142 0.2238576,0.5 0.5,0.5 H 10.81802 l 0.5,0.5 -1.15901,1.15901 C 9.5259511,19.292069 9.3489891,20.208511 9.6281261,21 h -5.628126 v 0 c -1.1045695,0 -2,-0.895431 -2,-2 V 9 9 c 0,-1.1045695 0.8954305,-2 2,-2 V 7 H 14 v 0 c 1.104569,0 2,0.8954305 2,2 z M 5.5000001,10 c -0.2761424,0 -0.5,0.223858 -0.5,0.5 0,0.276142 0.2238576,0.5 0.5,0.5 H 11.5 C 11.776142,11 12,10.776142 12,10.5 12,10.223858 11.776142,10 11.5,10 Z m 0,3 c -0.2761424,0 -0.5,0.223858 -0.5,0.5 0,0.276142 0.2238576,0.5 0.5,0.5 h 3 c 0.276142,0 0.5,-0.223858 0.5,-0.5 0,-0.276142 -0.223858,-0.5 -0.5,-0.5 z M 14.5,16.43934 16.71967,14.21967 c 0.292893,-0.292893 0.767767,-0.292893 1.06066,0 0.292893,0.292893 0.292893,0.767767 0,1.06066 L 15.56066,17.5 l 2.21967,2.21967 c 0.292893,0.292893 0.292893,0.767767 0,1.06066 -0.292893,0.292893 -0.767767,0.292893 -1.06066,0 L 14.5,18.56066 12.28033,20.78033 c -0.292893,0.292893 -0.767767,0.292893 -1.06066,0 -0.292893,-0.292893 -0.292893,-0.767767 0,-1.06066 L 13.43934,17.5 11.21967,15.28033 c -0.292893,-0.292893 -0.292893,-0.767767 0,-1.06066 0.292893,-0.292893 0.767767,-0.292893 1.06066,0 z"
         id="Combined-Shape"
         inkscape:connector-curvature="0"
         style="fill:#000000" />
    </g>
  </g>
</svg>
