<?xml version="1.0" encoding="UTF-8" standalone="no"?>
<svg
   xmlns:dc="http://purl.org/dc/elements/1.1/"
   xmlns:cc="http://creativecommons.org/ns#"
   xmlns:rdf="http://www.w3.org/1999/02/22-rdf-syntax-ns#"
   xmlns:svg="http://www.w3.org/2000/svg"
   xmlns="http://www.w3.org/2000/svg"
   xmlns:sodipodi="http://sodipodi.sourceforge.net/DTD/sodipodi-0.dtd"
   xmlns:inkscape="http://www.inkscape.org/namespaces/inkscape"
   width="20"
   height="20"
   viewBox="0 0 20 20"
   version="1.1"
   id="svg12"
   sodipodi:docname="action-triggers-uec.svg"
   inkscape:version="0.92.1 r15371">
  <metadata
     id="metadata16">
    <rdf:RDF>
      <cc:Work
         rdf:about="">
        <dc:format>image/svg+xml</dc:format>
        <dc:type
           rdf:resource="http://purl.org/dc/dcmitype/StillImage" />
        <dc:title>action-triggers-uec</dc:title>
      </cc:Work>
    </rdf:RDF>
  </metadata>
  <sodipodi:namedview
     pagecolor="#ffffff"
     bordercolor="#666666"
     borderopacity="1"
     objecttolerance="10"
     gridtolerance="10"
     guidetolerance="10"
     inkscape:pageopacity="0"
     inkscape:pageshadow="2"
     inkscape:window-width="1306"
     inkscape:window-height="1001"
     id="namedview14"
     showgrid="false"
     inkscape:zoom="9.8333333"
     inkscape:cx="-1.1694915"
     inkscape:cy="12"
     inkscape:window-x="0"
     inkscape:window-y="0"
     inkscape:window-maximized="0"
     inkscape:current-layer="action-triggers-uec" />
  <!-- Generator: Sketch 44.1 (41455) - http://www.bohemiancoding.com/sketch -->
  <title
     id="title2">action-triggers-uec</title>
  <desc
     id="desc4">Created with Sketch.</desc>
  <defs
     id="defs6" />
  <g
     id="Page-1"
     style="fill:none;fill-rule:evenodd;stroke:none;stroke-width:1"
     transform="translate(0,-4)">
    <g
       id="action-triggers-uec">
      <path
         d="M 15.5,12.035129 C 14.911653,11.694789 14.228574,11.5 13.5,11.5 c -2.209139,0 -4,1.790861 -4,4 0,0.303037 0.0337,0.598202 0.09755,0.881955 C 9.459722,16.300875 9.342453,16.18491 9.278066,16.056135 L 8.72193,14.943865 C 8.59954,14.69908 8.278207,14.5 8.004611,14.5 H 4 v 5.25 C 4,20.164214 3.6642136,20.5 3.25,20.5 2.8357864,20.5 2.5,20.164214 2.5,19.75 V 7.5024733 C 2.5,6.955761 2.9476291,6.5 3.4998075,6.5 H 8.002301 c 0.282855,0 0.597062,0.198725 0.719631,0.4438648 L 9.278068,8.0561352 C 9.40046,8.3009205 9.719595,8.5 9.990479,8.5 h 4.500152 C 15.056647,8.5 15.5,8.9490268 15.5,9.5029293 Z M 17.5,21.5 h -8 c 0,-1.656854 1.790861,-3 4,-3 2.209139,0 4,1.343146 4,3 z m -4,-4 c -1.104569,0 -2,-0.991189 -2,-2.061689 0,-1.070499 0.895431,-1.938311 2,-1.938311 1.104569,0 2,0.867812 2,1.938311 0,1.0705 -0.895431,2.061689 -2,2.061689 z"
         id="Combined-Shape"
         inkscape:connector-curvature="0"
         style="fill:#000000;fill-rule:nonzero" />
    </g>
  </g>
</svg>
