<?xml version="1.0" encoding="UTF-8" standalone="no"?>
<svg
   xmlns:dc="http://purl.org/dc/elements/1.1/"
   xmlns:cc="http://creativecommons.org/ns#"
   xmlns:rdf="http://www.w3.org/1999/02/22-rdf-syntax-ns#"
   xmlns:svg="http://www.w3.org/2000/svg"
   xmlns="http://www.w3.org/2000/svg"
   xmlns:sodipodi="http://sodipodi.sourceforge.net/DTD/sodipodi-0.dtd"
   xmlns:inkscape="http://www.inkscape.org/namespaces/inkscape"
   width="20"
   height="20"
   viewBox="0 0 20 20"
   version="1.1"
   id="svg8"
   sodipodi:docname="action-slack.svg"
   inkscape:version="0.92.1 r15371">
  <metadata
     id="metadata14">
    <rdf:RDF>
      <cc:Work
         rdf:about="">
        <dc:format>image/svg+xml</dc:format>
        <dc:type
           rdf:resource="http://purl.org/dc/dcmitype/StillImage" />
        <dc:title></dc:title>
      </cc:Work>
    </rdf:RDF>
  </metadata>
  <defs
     id="defs12" />
  <sodipodi:namedview
     pagecolor="#ffffff"
     bordercolor="#666666"
     borderopacity="1"
     objecttolerance="10"
     gridtolerance="10"
     guidetolerance="10"
     inkscape:pageopacity="0"
     inkscape:pageshadow="2"
     inkscape:window-width="1173"
     inkscape:window-height="803"
     id="namedview10"
     showgrid="false"
     inkscape:zoom="9.8333333"
     inkscape:cx="-1.1694915"
     inkscape:cy="12"
     inkscape:window-x="0"
     inkscape:window-y="0"
     inkscape:window-maximized="0"
     inkscape:current-layer="g6" />
  <g
     id="g6"
     style="fill:none;fill-rule:evenodd"
     transform="translate(0,-4)">
    <path
       d="m 8.5864611,13.329164 0.689,2.0575 2.1379999,-0.716 -0.689,-2.0575 z m 5.9632499,2.040625 -1.0365,0.347 0.359,1.073 c 0.1455,0.434 -0.0885,0.904 -0.523,1.0495 -0.0945,0.032 -0.1905,0.0455 -0.2845,0.043 -0.339,-0.009 -0.6515,-0.226 -0.765,-0.566 l -0.3595,-1.0725 -2.1374999,0.716 0.3589999,1.0725 c 0.1455,0.4345 -0.0885,0.9045 -0.5229999,1.05 -0.0945,0.0315 -0.1905,0.045 -0.2845,0.0425 -0.339,-0.0085 -0.6515,-0.226 -0.765,-0.5655 l -0.3595,-1.073 -1.0365,0.3475 c -0.0945,0.0315 -0.191,0.045 -0.285,0.0425 -0.3385,-0.0085 -0.651,-0.226 -0.765,-0.566 -0.1455,-0.434 0.0885,-0.904 0.523,-1.0495 l 1.037,-0.3475 -0.6895,-2.0575 -1.0365,0.3475 c -0.0945,0.0315 -0.1905,0.045 -0.285,0.0425 -0.3385,-0.0085 -0.651,-0.226 -0.765,-0.566 -0.1455,-0.434 0.089,-0.904 0.523,-1.0495 l 1.037,-0.3475 -0.3595,-1.0725 c -0.1455,-0.4345 0.0885,-0.9045 0.523,-1.0495 0.4345,-0.1455 0.9045,0.0885 1.05,0.523 l 0.359,1.0725 2.1379999,-0.716 -0.3594999,-1.0725001 c -0.1455,-0.4345 0.089,-0.9045 0.5229999,-1.05 0.4345,-0.1455 0.9045,0.089 1.05,0.523 l 0.359,1.0730001 1.037,-0.3475 c 0.4345,-0.1455 0.904,0.089 1.0495,0.523 0.1455,0.4345 -0.0885,0.9045 -0.523,1.05 l -1.0365,0.347 0.689,2.058 1.037,-0.3475 c 0.434,-0.145 0.904,0.089 1.0495,0.523 0.1455,0.4345 -0.0885,0.9045 -0.523,1.05 z m 2.7805,-3.569 c -1.649,-5.4980001 -4.0315,-6.7805001 -9.5294999,-5.1310001 -5.4975,1.649 -6.7805,4.0315001 -5.131,9.5295001 1.6495,5.4975 4.032,6.7805 9.5294999,5.131 5.498,-1.6495 6.7805,-4.032 5.131,-9.5295 z"
       id="path4"
       inkscape:connector-curvature="0"
       style="fill:#000000" />
  </g>
</svg>
