<?xml version="1.0" encoding="UTF-8" standalone="no"?>
<svg
   xmlns:dc="http://purl.org/dc/elements/1.1/"
   xmlns:cc="http://creativecommons.org/ns#"
   xmlns:rdf="http://www.w3.org/1999/02/22-rdf-syntax-ns#"
   xmlns:svg="http://www.w3.org/2000/svg"
   xmlns="http://www.w3.org/2000/svg"
   xmlns:sodipodi="http://sodipodi.sourceforge.net/DTD/sodipodi-0.dtd"
   xmlns:inkscape="http://www.inkscape.org/namespaces/inkscape"
   width="20"
   height="20"
   viewBox="0 0 20 20"
   version="1.1"
   id="svg12"
   sodipodi:docname="action-monitor-output.svg"
   inkscape:version="0.92.1 r15371">
  <metadata
     id="metadata16">
    <rdf:RDF>
      <cc:Work
         rdf:about="">
        <dc:format>image/svg+xml</dc:format>
        <dc:type
           rdf:resource="http://purl.org/dc/dcmitype/StillImage" />
        <dc:title>action-monitor-output</dc:title>
      </cc:Work>
    </rdf:RDF>
  </metadata>
  <sodipodi:namedview
     pagecolor="#ffffff"
     bordercolor="#666666"
     borderopacity="1"
     objecttolerance="10"
     gridtolerance="10"
     guidetolerance="10"
     inkscape:pageopacity="0"
     inkscape:pageshadow="2"
     inkscape:window-width="1276"
     inkscape:window-height="908"
     id="namedview14"
     showgrid="false"
     inkscape:zoom="9.8333333"
     inkscape:cx="-1.1694915"
     inkscape:cy="12"
     inkscape:window-x="0"
     inkscape:window-y="0"
     inkscape:window-maximized="0"
     inkscape:current-layer="action-monitor-output" />
  <!-- Generator: Sketch 44.1 (41455) - http://www.bohemiancoding.com/sketch -->
  <title
     id="title2">action-monitor-output</title>
  <desc
     id="desc4">Created with Sketch.</desc>
  <defs
     id="defs6" />
  <g
     id="Page-1"
     style="fill:none;fill-rule:evenodd;stroke:none;stroke-width:1"
     transform="translate(0,-4)">
    <g
       id="action-monitor-output">
      <path
         d="m 5,7 h 10 v 0 c 1.104569,0 2,0.8954305 2,2 v 10 0 c 0,1.104569 -0.895431,2 -2,2 H 5 v 0 C 3.8954305,21 3,20.104569 3,19 V 9 9 C 3,7.8954305 3.8954305,7 5,7 Z m 1.5,3 C 6.2238576,10 6,10.223858 6,10.5 6,10.776142 6.2238576,11 6.5,11 h 6 C 12.776142,11 13,10.776142 13,10.5 13,10.223858 12.776142,10 12.5,10 Z m 0,3 C 6.2238576,13 6,13.223858 6,13.5 6,13.776142 6.2238576,14 6.5,14 h 3 C 9.776142,14 10,13.776142 10,13.5 10,13.223858 9.776142,13 9.5,13 Z m 0,3 C 6.2238576,16 6,16.223858 6,16.5 6,16.776142 6.2238576,17 6.5,17 h 6 C 12.776142,17 13,16.776142 13,16.5 13,16.223858 12.776142,16 12.5,16 Z"
         id="Combined-Shape"
         inkscape:connector-curvature="0"
         style="fill:#000000" />
    </g>
  </g>
</svg>
