<?xml version="1.0" encoding="UTF-8" standalone="no"?>
<svg
   xmlns:dc="http://purl.org/dc/elements/1.1/"
   xmlns:cc="http://creativecommons.org/ns#"
   xmlns:rdf="http://www.w3.org/1999/02/22-rdf-syntax-ns#"
   xmlns:svg="http://www.w3.org/2000/svg"
   xmlns="http://www.w3.org/2000/svg"
   xmlns:sodipodi="http://sodipodi.sourceforge.net/DTD/sodipodi-0.dtd"
   xmlns:inkscape="http://www.inkscape.org/namespaces/inkscape"
   width="24px"
   height="24px"
   viewBox="0 0 24 24"
   version="1.1"
   id="svg5062"
   sodipodi:docname="action-stop-session.svg"
   inkscape:version="0.92.1 r15371">
  <metadata
     id="metadata5066">
    <rdf:RDF>
      <cc:Work
         rdf:about="">
        <dc:format>image/svg+xml</dc:format>
        <dc:type
           rdf:resource="http://purl.org/dc/dcmitype/StillImage" />
        <dc:title>action-stop-session</dc:title>
      </cc:Work>
    </rdf:RDF>
  </metadata>
  <sodipodi:namedview
     pagecolor="#ffffff"
     bordercolor="#666666"
     borderopacity="1"
     objecttolerance="10"
     gridtolerance="10"
     guidetolerance="10"
     inkscape:pageopacity="0"
     inkscape:pageshadow="2"
     inkscape:window-width="1258"
     inkscape:window-height="918"
     id="namedview5064"
     showgrid="false"
     inkscape:zoom="9.8333333"
     inkscape:cx="-1.1694915"
     inkscape:cy="12"
     inkscape:window-x="0"
     inkscape:window-y="0"
     inkscape:window-maximized="0"
     inkscape:current-layer="action-stop-session" />
  <!-- Generator: Sketch 44.1 (41455) - http://www.bohemiancoding.com/sketch -->
  <title
     id="title5052">action-stop-session</title>
  <desc
     id="desc5054">Created with Sketch.</desc>
  <defs
     id="defs5056" />
  <g
     id="Page-1"
     stroke="none"
     stroke-width="1"
     fill="none"
     fill-rule="evenodd">
    <g
       id="action-stop-session">
      <path
         d="M 13.554626,13.761733 C 13.205396,14.252142 13,14.852085 13,15.5 c 0,1.656854 1.343146,3 3,3 0.647915,0 1.247858,-0.205396 1.738267,-0.554626 z m 0.707107,-0.707107 4.183641,4.183641 C 18.794604,16.747858 19,16.147915 19,15.5 c 0,-1.656854 -1.343146,-3 -3,-3 -0.647915,0 -1.247858,0.205396 -1.738267,0.554626 z M 19,11.499634 C 18.164339,10.871945 17.125606,10.5 16,10.5 c -2.761424,0 -5,2.238576 -5,5 0,1.125606 0.371945,2.164339 0.999634,3 H 7.5004358 C 7.2240527,18.5 7,18.268066 7,18 7,17.723858 7.2307968,17.5 7.5004358,17.5 H 10 v -2 H 5.007484 C 4.4510659,15.5 4,15.055163 4,14.504423 V 5.4955775 C 4,4.9457352 4.4489202,4.5 5.007484,4.5 H 17.992516 C 18.548934,4.5 19,4.944837 19,5.4955775 Z M 16,19.5 c -2.209139,0 -4,-1.790861 -4,-4 0,-2.209139 1.790861,-4 4,-4 2.209139,0 4,1.790861 4,4 0,2.209139 -1.790861,4 -4,4 z"
         id="Combined-Shape"
         inkscape:connector-curvature="0"
         style="fill:#000000" />
    </g>
  </g>
</svg>
