<?xml version="1.0" encoding="UTF-8" standalone="no"?>
<svg
   xmlns:dc="http://purl.org/dc/elements/1.1/"
   xmlns:cc="http://creativecommons.org/ns#"
   xmlns:rdf="http://www.w3.org/1999/02/22-rdf-syntax-ns#"
   xmlns:svg="http://www.w3.org/2000/svg"
   xmlns="http://www.w3.org/2000/svg"
   xmlns:sodipodi="http://sodipodi.sourceforge.net/DTD/sodipodi-0.dtd"
   xmlns:inkscape="http://www.inkscape.org/namespaces/inkscape"
   width="20"
   height="20"
   viewBox="0 0 20 20"
   version="1.1"
   id="svg12"
   sodipodi:docname="action-modified_off.svg"
   inkscape:version="0.92.1 r15371">
  <metadata
     id="metadata16">
    <rdf:RDF>
      <cc:Work
         rdf:about="">
        <dc:format>image/svg+xml</dc:format>
        <dc:type
           rdf:resource="http://purl.org/dc/dcmitype/StillImage" />
        <dc:title>action-modified_off</dc:title>
      </cc:Work>
    </rdf:RDF>
  </metadata>
  <sodipodi:namedview
     pagecolor="#ffffff"
     bordercolor="#666666"
     borderopacity="1"
     objecttolerance="10"
     gridtolerance="10"
     guidetolerance="10"
     inkscape:pageopacity="0"
     inkscape:pageshadow="2"
     inkscape:window-width="1262"
     inkscape:window-height="997"
     id="namedview14"
     showgrid="false"
     inkscape:zoom="9.8333333"
     inkscape:cx="-1.1694915"
     inkscape:cy="12"
     inkscape:window-x="0"
     inkscape:window-y="0"
     inkscape:window-maximized="0"
     inkscape:current-layer="action-modified_off" />
  <!-- Generator: Sketch 44.1 (41455) - http://www.bohemiancoding.com/sketch -->
  <title
     id="title2">action-modified_off</title>
  <desc
     id="desc4">Created with Sketch.</desc>
  <defs
     id="defs6" />
  <g
     id="Page-1"
     style="fill:none;fill-rule:evenodd;stroke:none;stroke-width:1"
     transform="translate(0,-4)">
    <g
       id="action-modified_off">
      <path
         d="m 14.5,13.81802 -0.5,0.5 -1.15901,-1.15901 c -0.878679,-0.87868 -2.303301,-0.87868 -3.1819799,0 -0.87868,0.878679 -0.87868,2.303301 0,3.18198 L 10.81802,17.5 9.6590101,18.65901 C 9.0259511,19.292069 8.8489891,20.208511 9.1281261,21 h -4.628126 c -1.1045695,0 -2,-0.895431 -2,-2 V 9 c 0,-1.1045695 0.8954305,-2 2,-2 H 10.25 c 0.138071,0 0.25,0.1119288 0.25,0.25 V 10 c 0,0.552285 0.447715,1 1,1 h 2.75 c 0.138071,0 0.25,0.111929 0.25,0.25 z m -2.573223,-6.3912433 2.146446,2.1464466 c 0.09763,0.097631 0.09763,0.2559223 0,0.3535534 C 14.026339,9.9736608 13.962751,10 13.896447,10 H 12 C 11.723858,10 11.5,9.7761424 11.5,9.5 V 7.6035534 c 0,-0.1380712 0.111929,-0.25 0.25,-0.25 0.0663,0 0.129893,0.026339 0.176777,0.073223 z M 14,16.43934 16.21967,14.21967 c 0.292893,-0.292893 0.767767,-0.292893 1.06066,0 0.292893,0.292893 0.292893,0.767767 0,1.06066 L 15.06066,17.5 l 2.21967,2.21967 c 0.292893,0.292893 0.292893,0.767767 0,1.06066 -0.292893,0.292893 -0.767767,0.292893 -1.06066,0 L 14,18.56066 11.78033,20.78033 c -0.292893,0.292893 -0.767767,0.292893 -1.06066,0 -0.292893,-0.292893 -0.292893,-0.767767 0,-1.06066 L 12.93934,17.5 10.71967,15.28033 c -0.292893,-0.292893 -0.292893,-0.767767 0,-1.06066 0.292893,-0.292893 0.767767,-0.292893 1.06066,0 z"
         id="Combined-Shape"
         inkscape:connector-curvature="0"
         style="fill:#000000" />
    </g>
  </g>
</svg>
