<?xml version="1.0" encoding="UTF-8" standalone="no"?>
<svg
   xmlns:dc="http://purl.org/dc/elements/1.1/"
   xmlns:cc="http://creativecommons.org/ns#"
   xmlns:rdf="http://www.w3.org/1999/02/22-rdf-syntax-ns#"
   xmlns:svg="http://www.w3.org/2000/svg"
   xmlns="http://www.w3.org/2000/svg"
   xmlns:sodipodi="http://sodipodi.sourceforge.net/DTD/sodipodi-0.dtd"
   xmlns:inkscape="http://www.inkscape.org/namespaces/inkscape"
   width="20"
   height="20"
   viewBox="0 0 20 20"
   version="1.1"
   id="svg8"
   sodipodi:docname="action-hipchat.svg"
   inkscape:version="0.92.1 r15371">
  <metadata
     id="metadata14">
    <rdf:RDF>
      <cc:Work
         rdf:about="">
        <dc:format>image/svg+xml</dc:format>
        <dc:type
           rdf:resource="http://purl.org/dc/dcmitype/StillImage" />
        <dc:title></dc:title>
      </cc:Work>
    </rdf:RDF>
  </metadata>
  <defs
     id="defs12" />
  <sodipodi:namedview
     pagecolor="#ffffff"
     bordercolor="#666666"
     borderopacity="1"
     objecttolerance="10"
     gridtolerance="10"
     guidetolerance="10"
     inkscape:pageopacity="0"
     inkscape:pageshadow="2"
     inkscape:window-width="1329"
     inkscape:window-height="1026"
     id="namedview10"
     showgrid="false"
     inkscape:zoom="9.8333333"
     inkscape:cx="-1.1694915"
     inkscape:cy="12"
     inkscape:window-x="0"
     inkscape:window-y="0"
     inkscape:window-maximized="0"
     inkscape:current-layer="g6" />
  <g
     id="g6"
     style="fill:none;fill-rule:evenodd"
     transform="translate(0,-4)">
    <path
       d="m 18.25,13.463562 c 0,1.992966 -0.926316,3.847029 -2.516346,5.189842 0.178463,0.337265 0.460997,0.619308 0.802308,0.813525 0.362074,0.205952 0.594674,0.577258 0.594674,1.010344 0,0.706797 -0.542913,1.272727 -1.347861,1.272727 -1.36214,0 -2.96891,-0.487373 -4.185041,-1.205905 -0.522591,0.08964 -1.056762,0.135143 -1.597411,0.135143 C 5.4663022,20.679238 1.75,17.475735 1.75,13.463504 1.75,9.4527759 5.4665036,6.2500643 10.000323,6.25 14.533706,6.25 18.25,9.4528138 18.25,13.463562 Z m -5.970701,5.740089 c 0.784816,0.481035 1.809971,0.850767 2.750746,0.988193 -0.376071,-0.372805 -0.669186,-0.829683 -0.840098,-1.347989 -0.144698,-0.438914 -0.0031,-0.881454 0.35449,-1.157647 C 15.945273,16.604318 16.75,15.085136 16.75,13.463562 16.75,10.334877 13.750711,7.7500001 10.000334,7.7500001 6.2494836,7.7500533 3.25,10.33487 3.25,13.463504 c 0,3.13025 2.999355,5.715734 6.750323,5.715734 0.489451,0 0.971629,-0.04417 1.441578,-0.130964 0.303581,-0.05597 0.592022,0.0047 0.837398,0.155377 z M 14.5,15.316255 c 1.29e-4,0.142406 -0.102677,0.302009 -0.187273,0.425398 -0.489815,0.71454 -2.008918,1.927971 -4.294871,1.927971 h -0.03578 c -2.2860823,0 -3.8051862,-1.213431 -4.2949364,-1.927971 -0.084531,-0.123389 -0.1872726,-0.242322 -0.1871435,-0.384791 1.937e-4,-0.184644 0.1182401,-0.352531 0.3211403,-0.352531 0.066385,0 0.1688037,0.03031 0.2240814,0.0745 0.8735299,0.699037 2.2457212,1.365816 3.9512592,1.370083 h 0.0069 c 1.708443,-0.0043 3.121125,-0.645376 3.951194,-1.370272 0.06375,-0.05561 0.141372,-0.08071 0.217314,-0.08071 0.188048,0 0.327921,0.150753 0.328115,0.318326 z"
       id="path4"
       inkscape:connector-curvature="0"
       style="fill:#000000" />
  </g>
</svg>
