<?xml version="1.0" encoding="UTF-8" standalone="no"?>
<svg
   xmlns:dc="http://purl.org/dc/elements/1.1/"
   xmlns:cc="http://creativecommons.org/ns#"
   xmlns:rdf="http://www.w3.org/1999/02/22-rdf-syntax-ns#"
   xmlns:svg="http://www.w3.org/2000/svg"
   xmlns="http://www.w3.org/2000/svg"
   xmlns:sodipodi="http://sodipodi.sourceforge.net/DTD/sodipodi-0.dtd"
   xmlns:inkscape="http://www.inkscape.org/namespaces/inkscape"
   width="20"
   height="20"
   viewBox="0 0 20 20"
   version="1.1"
   id="svg12"
   sodipodi:docname="action-sumologic.svg"
   inkscape:version="0.92.1 r15371">
  <metadata
     id="metadata16">
    <rdf:RDF>
      <cc:Work
         rdf:about="">
        <dc:format>image/svg+xml</dc:format>
        <dc:type
           rdf:resource="http://purl.org/dc/dcmitype/StillImage" />
        <dc:title>action-sumologic</dc:title>
      </cc:Work>
    </rdf:RDF>
  </metadata>
  <sodipodi:namedview
     pagecolor="#ffffff"
     bordercolor="#666666"
     borderopacity="1"
     objecttolerance="10"
     gridtolerance="10"
     guidetolerance="10"
     inkscape:pageopacity="0"
     inkscape:pageshadow="2"
     inkscape:window-width="1279"
     inkscape:window-height="1009"
     id="namedview14"
     showgrid="false"
     inkscape:zoom="9.8333333"
     inkscape:cx="-1.1694915"
     inkscape:cy="12"
     inkscape:window-x="0"
     inkscape:window-y="0"
     inkscape:window-maximized="0"
     inkscape:current-layer="action-sumologic" />
  <!-- Generator: Sketch 44 (41411) - http://www.bohemiancoding.com/sketch -->
  <title
     id="title2">action-sumologic</title>
  <desc
     id="desc4">Created with Sketch.</desc>
  <defs
     id="defs6" />
  <g
     id="Page-1"
     style="fill:none;fill-rule:evenodd;stroke:none;stroke-width:1"
     transform="translate(0,-4)">
    <g
       id="action-sumologic">
      <path
         d="m 11,13 v -2 c 0,-0.552285 -0.447715,-1 -1,-1 -0.552285,0 -1,0.447715 -1,1 v 2 H 7 c -0.5522847,0 -1,0.447715 -1,1 0,0.552285 0.4477153,1 1,1 h 2 v 2 c 0,0.552285 0.447715,1 1,1 0.552285,0 1,-0.447715 1,-1 v -2 h 2 c 0.552285,0 1,-0.447715 1,-1 0,-0.552285 -0.447715,-1 -1,-1 z M 6,7 h 8 v 0 c 1.656854,0 3,1.3431457 3,3 v 8 c 0,1.656854 -1.343146,3 -3,3 H 6 v 0 C 4.3431457,21 3,19.656854 3,18 v -8 0 C 3,8.3431457 4.3431457,7 6,7 Z"
         id="Combined-Shape"
         inkscape:connector-curvature="0"
         style="fill:#000000" />
    </g>
  </g>
</svg>
