<?xml version="1.0" encoding="UTF-8" standalone="no"?>
<svg
   xmlns:dc="http://purl.org/dc/elements/1.1/"
   xmlns:cc="http://creativecommons.org/ns#"
   xmlns:rdf="http://www.w3.org/1999/02/22-rdf-syntax-ns#"
   xmlns:svg="http://www.w3.org/2000/svg"
   xmlns="http://www.w3.org/2000/svg"
   xmlns:sodipodi="http://sodipodi.sourceforge.net/DTD/sodipodi-0.dtd"
   xmlns:inkscape="http://www.inkscape.org/namespaces/inkscape"
   width="20"
   height="20"
   viewBox="0 0 20 20"
   version="1.1"
   id="svg8"
   sodipodi:docname="action-dual-authenticate.svg"
   inkscape:version="0.92.1 r15371">
  <metadata
     id="metadata14">
    <rdf:RDF>
      <cc:Work
         rdf:about="">
        <dc:format>image/svg+xml</dc:format>
        <dc:type
           rdf:resource="http://purl.org/dc/dcmitype/StillImage" />
        <dc:title></dc:title>
      </cc:Work>
    </rdf:RDF>
  </metadata>
  <defs
     id="defs12" />
  <sodipodi:namedview
     pagecolor="#ffffff"
     bordercolor="#666666"
     borderopacity="1"
     objecttolerance="10"
     gridtolerance="10"
     guidetolerance="10"
     inkscape:pageopacity="0"
     inkscape:pageshadow="2"
     inkscape:window-width="1586"
     inkscape:window-height="1147"
     id="namedview10"
     showgrid="false"
     inkscape:zoom="9.8333333"
     inkscape:cx="-1.1694915"
     inkscape:cy="12"
     inkscape:window-x="0"
     inkscape:window-y="0"
     inkscape:window-maximized="0"
     inkscape:current-layer="g6" />
  <g
     id="g6"
     style="fill:none;fill-rule:evenodd"
     transform="translate(0,-4)">
    <path
       d="m 11.105693,15.529888 c 1.683717,0.78762 3.782378,0.460262 5.208484,-0.965844 1.808586,-1.808586 1.851816,-4.7049928 0.09642,-6.4603853 C 14.655208,6.3482661 11.758802,6.391496 9.9502163,8.2000823 8.5241098,9.6261881 8.1967518,11.72485 8.9843718,13.408567 L 6.6075292,15.78541 4.4862088,13.66409 2.300606,15.849693 l 2.1213204,2.12132 -1.0928014,1.092801 2.1213203,2.121321 z m 0.708714,-5.6584624 c 0.777817,-0.7778174 2.050609,-0.7778174 2.828427,0 0.777817,0.7778184 0.777817,2.0506104 0,2.8284274 -0.777818,0.777818 -2.05061,0.777818 -2.828427,0 -0.777818,-0.777817 -0.777818,-2.050609 0,-2.8284274 z"
       id="path4"
       inkscape:connector-curvature="0"
       style="fill:#000000" />
  </g>
</svg>
