<?xml version="1.0" encoding="UTF-8" standalone="no"?>
<svg
   xmlns:dc="http://purl.org/dc/elements/1.1/"
   xmlns:cc="http://creativecommons.org/ns#"
   xmlns:rdf="http://www.w3.org/1999/02/22-rdf-syntax-ns#"
   xmlns:svg="http://www.w3.org/2000/svg"
   xmlns="http://www.w3.org/2000/svg"
   xmlns:sodipodi="http://sodipodi.sourceforge.net/DTD/sodipodi-0.dtd"
   xmlns:inkscape="http://www.inkscape.org/namespaces/inkscape"
   width="20"
   height="20"
   viewBox="0 0 20 20"
   version="1.1"
   id="svg8"
   sodipodi:docname="action-webhook.svg"
   inkscape:version="0.92.1 r15371">
  <metadata
     id="metadata14">
    <rdf:RDF>
      <cc:Work
         rdf:about="">
        <dc:format>image/svg+xml</dc:format>
        <dc:type
           rdf:resource="http://purl.org/dc/dcmitype/StillImage" />
        <dc:title></dc:title>
      </cc:Work>
    </rdf:RDF>
  </metadata>
  <defs
     id="defs12" />
  <sodipodi:namedview
     pagecolor="#ffffff"
     bordercolor="#666666"
     borderopacity="1"
     objecttolerance="10"
     gridtolerance="10"
     guidetolerance="10"
     inkscape:pageopacity="0"
     inkscape:pageshadow="2"
     inkscape:window-width="1235"
     inkscape:window-height="958"
     id="namedview10"
     showgrid="false"
     inkscape:zoom="9.8333333"
     inkscape:cx="-1.1694915"
     inkscape:cy="12"
     inkscape:window-x="0"
     inkscape:window-y="0"
     inkscape:window-maximized="0"
     inkscape:current-layer="g6" />
  <g
     id="g6"
     style="fill:none;fill-rule:evenodd"
     transform="translate(0,-4)">
    <path
       d="m 9.4984592,12.781665 c -0.665526,1.131789 -1.303138,2.227788 -1.9540481,3.315538 -0.1671654,0.279267 -0.2499013,0.506754 -0.1163572,0.861723 0.3687049,0.980638 -0.1514211,1.934942 -1.1289468,2.193966 -0.9218876,0.244367 -1.8200646,-0.368548 -2.0029743,-1.367017 -0.1620846,-0.883741 0.5158606,-1.750096 1.4790847,-1.888238 0.080666,-0.01168 0.1630882,-0.01301 0.2987024,-0.02329 L 7.5390794,13.388932 C 6.6175682,12.461978 6.06909,11.378479 6.1904652,10.035765 6.2762747,9.0866646 6.6452305,8.2664417 7.3195375,7.5941965 8.6110712,6.3068159 10.581427,6.0983653 12.102162,7.0864908 c 1.460518,0.949164 2.129431,2.797997 1.559249,4.3803812 -0.429926,-0.1179 -0.862862,-0.236815 -1.338766,-0.367406 0.179021,-0.879808 0.04661,-1.6698257 -0.539947,-2.3466396 C 11.395175,8.3059743 10.897881,8.0717609 10.332467,7.9854617 9.1988782,7.8122288 8.0859272,8.5489446 7.7556731,9.6745142 7.3808211,10.951869 7.9481799,11.995391 9.4984592,12.781729 Z m 1.9006678,-1.338462 c 0.468878,0.836785 0.94497,1.686197 1.416797,2.527805 2.384852,-0.746425 4.182962,0.589118 4.828039,2.018956 0.779185,1.727189 0.246514,3.77286 -1.283693,4.838465 -1.570665,1.093842 -3.557017,0.906966 -4.948598,-0.498187 0.354654,-0.300334 0.711064,-0.602001 1.091875,-0.92429 1.374458,0.900557 2.576606,0.858169 3.469075,-0.20826 0.761058,-0.909759 0.744561,-2.266242 -0.03858,-3.1569 C 15.030283,15.013007 13.819729,14.98166 12.356451,15.968262 11.74945,14.878862 11.13191,13.798155 10.544102,12.700887 10.345887,12.33107 10.127098,12.116464 9.6803622,12.038223 8.9343592,11.907379 8.4527472,11.25931 8.4238302,10.533254 8.3954202,9.8151946 8.8136112,9.1661106 9.4672182,8.9132413 10.114678,8.6626564 10.874481,8.8648883 11.30999,9.4217719 c 0.355908,0.4549743 0.469004,0.9670581 0.281703,1.5281931 -0.05206,0.156481 -0.119493,0.307885 -0.192569,0.493302 z m 1.120667,6.840479 H 9.6488142 C 9.3736332,19.428669 8.7792402,20.353085 7.7551086,20.940935 6.9589244,21.397813 6.1008294,21.552707 5.1875354,21.403524 3.5059703,21.129207 2.1310112,19.597841 2.0099495,17.873507 1.8729554,15.9201 3.2001799,14.183773 4.9692481,13.793777 c 0.122128,0.448692 0.2455732,0.9017 0.3677012,1.349313 -1.6231042,0.837737 -2.1848804,1.893252 -1.730617,3.213121 0.3998798,1.161486 1.5357893,1.798133 2.7691753,1.551926 1.2595429,-0.25141 1.8945836,-1.310351 1.8170536,-3.009811 1.194057,0 2.3891168,-0.0125 3.5832988,0.0062 0.466307,0.0074 0.826293,-0.0415 1.17756,-0.457385 0.578336,-0.684302 1.642863,-0.62256 2.265734,0.02373 0.636546,0.660506 0.606062,1.723255 -0.06756,2.355904 -0.649906,0.61044 -1.676672,0.577824 -2.28474,-0.07995 -0.124951,-0.135541 -0.223431,-0.296527 -0.347064,-0.463097 z"
       id="path4"
       inkscape:connector-curvature="0"
       style="fill:#000000" />
  </g>
</svg>
