<?xml version="1.0" encoding="UTF-8" standalone="no"?>
<svg
   xmlns:dc="http://purl.org/dc/elements/1.1/"
   xmlns:cc="http://creativecommons.org/ns#"
   xmlns:rdf="http://www.w3.org/1999/02/22-rdf-syntax-ns#"
   xmlns:svg="http://www.w3.org/2000/svg"
   xmlns="http://www.w3.org/2000/svg"
   xmlns:sodipodi="http://sodipodi.sourceforge.net/DTD/sodipodi-0.dtd"
   xmlns:inkscape="http://www.inkscape.org/namespaces/inkscape"
   width="20"
   height="20"
   viewBox="0 0 20 20"
   version="1.1"
   id="svg8"
   sodipodi:docname="action-jira-update.svg"
   inkscape:version="0.92.1 r15371">
  <metadata
     id="metadata14">
    <rdf:RDF>
      <cc:Work
         rdf:about="">
        <dc:format>image/svg+xml</dc:format>
        <dc:type
           rdf:resource="http://purl.org/dc/dcmitype/StillImage" />
        <dc:title></dc:title>
      </cc:Work>
    </rdf:RDF>
  </metadata>
  <defs
     id="defs12" />
  <sodipodi:namedview
     pagecolor="#ffffff"
     bordercolor="#666666"
     borderopacity="1"
     objecttolerance="10"
     gridtolerance="10"
     guidetolerance="10"
     inkscape:pageopacity="0"
     inkscape:pageshadow="2"
     inkscape:window-width="1129"
     inkscape:window-height="1068"
     id="namedview10"
     showgrid="false"
     inkscape:zoom="9.8333333"
     inkscape:cx="-1.1694915"
     inkscape:cy="12"
     inkscape:window-x="0"
     inkscape:window-y="0"
     inkscape:window-maximized="0"
     inkscape:current-layer="g6" />
  <g
     id="g6"
     style="fill:none;fill-rule:evenodd"
     transform="translate(0,-4)">
    <path
       d="m 6.6196768,6.9207325 c -0.5685866,0 -1.0289459,0.47124 -1.0289459,1.055445 0,0.58276 0.4603593,1.0557 1.0289459,1.0557 0.5689182,0 1.028863,-0.47294 1.028863,-1.0557 0,-0.584205 -0.4598618,-1.055445 -1.028863,-1.055445 m 6.7597602,0 c -0.568835,0 -1.028614,0.47124 -1.028614,1.055445 0,0.58276 0.459779,1.0557 1.028614,1.0557 0.56726,0 1.028697,-0.47294 1.028697,-1.0557 0,-0.584205 -0.461437,-1.05468 -1.028697,-1.055445 m -3.3799215,-0.96305 c -0.568503,0 -1.028863,0.471155 -1.028863,1.05553 0,0.58276 0.460277,1.0557 1.028863,1.0557 0.5689185,0 1.0287795,-0.47294 1.0287795,-1.0557 0,-0.584375 -0.459944,-1.05553 -1.0288625,-1.05553 m 5.8124205,3.904135 c -0.05631,-0.043938 -0.125119,-0.067736 -0.195887,-0.067745 -0.03873,0 -0.07796,0.00723 -0.114945,0.021845 -0.696634,0.2731055 -1.404216,0.4804205 -2.04993,0.6346105 -0.131697,0.03145 -0.238017,0.13175 -0.282137,0.25211 -0.470477,1.320814 -1.67184,2.578559 -2.932251,3.895889 -0.05059,0.04922 -0.121414,0.114156 -0.2367725,0.114156 -0.115111,0 -0.185272,-0.0629 -0.236773,-0.114156 C 8.5029125,13.281198 7.3015494,12.027788 6.8309064,10.706888 6.7867862,10.586613 6.6803835,10.486398 6.5489352,10.454778 5.9028066,10.300588 5.1935662,10.086813 4.497678,9.8138775 4.4608665,9.7994782 4.4218028,9.7920756 4.3824015,9.7920325 c -0.069746,0 -0.1373365,0.02244 -0.1943942,0.06715 -0.087782,0.06879 -0.134997,0.1789235 -0.1250625,0.2917205 0.1067344,1.09837 0.5301887,2.172175 1.2944135,3.29732 0.718363,1.05791 1.6553365,2.03711 2.5612103,2.984009 1.6691039,1.74505 3.2459024,3.39303 3.3842344,5.304085 0.01254,0.17255 0.152793,0.305989 0.321612,0.306 h 1.961027 c 0.08826,-8e-5 0.17264,-0.0372 0.233495,-0.102721 0.06086,-0.06552 0.09288,-0.153723 0.08862,-0.244079 -0.0617,-1.277719 -0.530852,-2.55731 -1.434237,-3.91136 -0.189336,-0.283899 -0.392106,-0.56015 -0.604165,-0.83045 -0.08617,-0.110075 -0.05009,-0.246839 0.01576,-0.31586 0.06518,-0.06834 0.130619,-0.13651 0.196551,-0.205615 0.905873,-0.946899 1.842764,-1.926099 2.56121,-2.984009 0.764142,-1.125316 1.18743,-2.192745 1.294247,-3.290946 0.01062,-0.110329 -0.03823,-0.2274595 -0.125062,-0.2954595 M 7.8956043,17.918797 c 0.5879102,0.628745 0.9831672,1.08749 1.3057752,1.51759 0.06485,0.08602 0.152513,0.287385 0.03973,0.50167 -0.325262,0.61948 -0.503899,1.208955 -0.546527,1.79707 -0.0132,0.172849 -0.153531,0.306437 -0.322691,0.30719 h -1.957639 c -0.088633,-2.67e-4 -0.1733521,-0.03745 -0.2346995,-0.10302 -0.060761,-0.06598 -0.092785,-0.15442 -0.088738,-0.245055 0.058882,-1.220175 0.4849075,-2.4344 1.309756,-3.720875 0.032841,-0.05134 0.1196719,-0.15504 0.2660481,-0.15504 0.1144471,0 0.1825349,0.05075 0.2289772,0.10047 z m 2.1061577,-7.072339 c 0.614532,0 0.970976,-0.03782 1.096205,-0.03782 0.151767,0 0.29665,0.127414 0.29665,0.305745 0,0.05202 -0.01203,0.08925 -0.02388,0.122145 -0.08152,0.223295 -0.452978,1.026799 -1.144554,1.716065 -0.07762,0.07735 -0.165533,0.0918 -0.226074,0.0918 h -6.635e-4 c -0.06046,0 -0.148283,-0.01445 -0.225825,-0.0918 -0.691659,-0.689266 -1.063197,-1.49277 -1.144472,-1.716151 -0.01202,-0.03281 -0.02405,-0.07004 -0.02405,-0.122059 0,-0.178331 0.145132,-0.305745 0.296899,-0.305745 0.125228,0 0.481424,0.03782 1.09579,0.03782 h 0.0041 z"
       id="path4"
       inkscape:connector-curvature="0"
       style="fill:#000000" />
  </g>
</svg>
