<?xml version="1.0" encoding="UTF-8" standalone="no"?>
<svg
   xmlns:dc="http://purl.org/dc/elements/1.1/"
   xmlns:cc="http://creativecommons.org/ns#"
   xmlns:rdf="http://www.w3.org/1999/02/22-rdf-syntax-ns#"
   xmlns:svg="http://www.w3.org/2000/svg"
   xmlns="http://www.w3.org/2000/svg"
   xmlns:sodipodi="http://sodipodi.sourceforge.net/DTD/sodipodi-0.dtd"
   xmlns:inkscape="http://www.inkscape.org/namespaces/inkscape"
   width="20"
   height="20"
   viewBox="0 0 20 20"
   version="1.1"
   id="svg12"
   sodipodi:docname="action-command-uec.svg"
   inkscape:version="0.92.1 r15371">
  <metadata
     id="metadata16">
    <rdf:RDF>
      <cc:Work
         rdf:about="">
        <dc:format>image/svg+xml</dc:format>
        <dc:type
           rdf:resource="http://purl.org/dc/dcmitype/StillImage" />
        <dc:title>action-command-uec</dc:title>
      </cc:Work>
    </rdf:RDF>
  </metadata>
  <sodipodi:namedview
     pagecolor="#ffffff"
     bordercolor="#666666"
     borderopacity="1"
     objecttolerance="10"
     gridtolerance="10"
     guidetolerance="10"
     inkscape:pageopacity="0"
     inkscape:pageshadow="2"
     inkscape:window-width="1313"
     inkscape:window-height="831"
     id="namedview14"
     showgrid="false"
     inkscape:zoom="9.8333333"
     inkscape:cx="-1.1694915"
     inkscape:cy="12"
     inkscape:window-x="0"
     inkscape:window-y="0"
     inkscape:window-maximized="0"
     inkscape:current-layer="action-command-uec" />
  <!-- Generator: Sketch 44.1 (41455) - http://www.bohemiancoding.com/sketch -->
  <title
     id="title2">action-command-uec</title>
  <desc
     id="desc4">Created with Sketch.</desc>
  <defs
     id="defs6" />
  <g
     id="Page-1"
     style="fill:none;fill-rule:evenodd;stroke:none;stroke-width:1"
     transform="translate(0,-4)">
    <g
       id="action-command-uec">
      <path
         d="m 2.2928932,8.7071068 c -0.3905243,-0.3905243 -0.3905243,-1.0236893 0,-1.4142136 0.3905243,-0.3905243 1.0236893,-0.3905243 1.4142136,0 L 8.707107,12.292893 c 0.390524,0.390524 0.390524,1.02369 0,1.414214 l -5.0000002,5 c -0.3905243,0.390524 -1.0236893,0.390524 -1.4142136,0 -0.3905243,-0.390525 -0.3905243,-1.02369 0,-1.414214 L 6.5857864,13 Z M 18,21 c 0,0 -8,0 -8,0 0,-1.656854 1.790861,-3 4,-3 2.209139,0 4,1.343146 4,3 z M 14,17 C 12.895431,17 12,16.008811 12,14.938311 12,13.867812 12.895431,13 14,13 c 1.104569,0 2,0.867812 2,1.938311 C 16,16.008811 15.104569,17 14,17 Z"
         id="Combined-Shape"
         inkscape:connector-curvature="0"
         style="fill:#000000;fill-rule:nonzero" />
    </g>
  </g>
</svg>
