<?xml version="1.0" encoding="UTF-8" standalone="no"?>
<svg
   xmlns:dc="http://purl.org/dc/elements/1.1/"
   xmlns:cc="http://creativecommons.org/ns#"
   xmlns:rdf="http://www.w3.org/1999/02/22-rdf-syntax-ns#"
   xmlns:svg="http://www.w3.org/2000/svg"
   xmlns="http://www.w3.org/2000/svg"
   xmlns:sodipodi="http://sodipodi.sourceforge.net/DTD/sodipodi-0.dtd"
   xmlns:inkscape="http://www.inkscape.org/namespaces/inkscape"
   width="20"
   height="20"
   viewBox="0 0 20 20"
   version="1.1"
   id="svg12"
   sodipodi:docname="action-modified_dif.svg"
   inkscape:version="0.92.1 r15371">
  <metadata
     id="metadata16">
    <rdf:RDF>
      <cc:Work
         rdf:about="">
        <dc:format>image/svg+xml</dc:format>
        <dc:type
           rdf:resource="http://purl.org/dc/dcmitype/StillImage" />
        <dc:title>action-modified_dif</dc:title>
      </cc:Work>
    </rdf:RDF>
  </metadata>
  <sodipodi:namedview
     pagecolor="#ffffff"
     bordercolor="#666666"
     borderopacity="1"
     objecttolerance="10"
     gridtolerance="10"
     guidetolerance="10"
     inkscape:pageopacity="0"
     inkscape:pageshadow="2"
     inkscape:window-width="1285"
     inkscape:window-height="881"
     id="namedview14"
     showgrid="false"
     inkscape:zoom="9.8333333"
     inkscape:cx="-1.1694915"
     inkscape:cy="12"
     inkscape:window-x="0"
     inkscape:window-y="0"
     inkscape:window-maximized="0"
     inkscape:current-layer="action-modified_dif" />
  <!-- Generator: Sketch 44.1 (41455) - http://www.bohemiancoding.com/sketch -->
  <title
     id="title2">action-modified_dif</title>
  <desc
     id="desc4">Created with Sketch.</desc>
  <defs
     id="defs6" />
  <g
     id="Page-1"
     style="fill:none;fill-rule:evenodd;stroke:none;stroke-width:1"
     transform="translate(0,-4)">
    <g
       id="action-modified_dif">
      <path
         d="m 13.5,14 v 6 c 1.656854,0 3,-1.343146 3,-3 0,-1.656854 -1.343146,-3 -3,-3 z m 1,-1.899982 C 14.17689,12.034428 13.842466,12 13.5,12 c -2.761424,0 -5,2.238576 -5,5 0,1.635599 0.785343,3.087771 1.999513,4 H 4.5 c -1.1045695,0 -2,-0.89543 -2,-2 V 9 c 0,-1.1045695 0.8954305,-2 2,-2 h 5.75 c 0.138071,0 0.25,0.1119288 0.25,0.25 V 10 c 0,0.552285 0.447715,1 1,1 h 2.75 c 0.138071,0 0.25,0.111929 0.25,0.25 z m -2.573223,-4.6732413 2.146446,2.1464466 c 0.09763,0.097631 0.09763,0.2559223 0,0.3535534 -0.04688,0.046884 -0.110472,0.073223 -0.176776,0.073223 H 12 c -0.276142,0 -0.5,-0.2238576 -0.5,-0.5 V 7.6035534 c 0,-0.1380712 0.111929,-0.25 0.25,-0.25 0.0663,0 0.129893,0.026339 0.176777,0.073223 z M 13.5,21 c -2.209139,0 -4,-1.790861 -4,-4 0,-2.209139 1.790861,-4 4,-4 2.209139,0 4,1.790861 4,4 0,2.209139 -1.790861,4 -4,4 z"
         id="Combined-Shape"
         inkscape:connector-curvature="0"
         style="fill:#000000" />
    </g>
  </g>
</svg>
