<?xml version="1.0" encoding="UTF-8" standalone="no"?>
<svg
   xmlns:dc="http://purl.org/dc/elements/1.1/"
   xmlns:cc="http://creativecommons.org/ns#"
   xmlns:rdf="http://www.w3.org/1999/02/22-rdf-syntax-ns#"
   xmlns:svg="http://www.w3.org/2000/svg"
   xmlns="http://www.w3.org/2000/svg"
   xmlns:sodipodi="http://sodipodi.sourceforge.net/DTD/sodipodi-0.dtd"
   xmlns:inkscape="http://www.inkscape.org/namespaces/inkscape"
   width="20"
   height="20"
   viewBox="0 0 20 20"
   version="1.1"
   id="svg12"
   sodipodi:docname="action-triggers-off.svg"
   inkscape:version="0.92.1 r15371">
  <metadata
     id="metadata16">
    <rdf:RDF>
      <cc:Work
         rdf:about="">
        <dc:format>image/svg+xml</dc:format>
        <dc:type
           rdf:resource="http://purl.org/dc/dcmitype/StillImage" />
        <dc:title>action-triggers-off</dc:title>
      </cc:Work>
    </rdf:RDF>
  </metadata>
  <sodipodi:namedview
     pagecolor="#ffffff"
     bordercolor="#666666"
     borderopacity="1"
     objecttolerance="10"
     gridtolerance="10"
     guidetolerance="10"
     inkscape:pageopacity="0"
     inkscape:pageshadow="2"
     inkscape:window-width="1230"
     inkscape:window-height="1113"
     id="namedview14"
     showgrid="false"
     inkscape:zoom="9.8333333"
     inkscape:cx="-1.1694915"
     inkscape:cy="12"
     inkscape:window-x="0"
     inkscape:window-y="0"
     inkscape:window-maximized="0"
     inkscape:current-layer="action-triggers-off" />
  <!-- Generator: Sketch 44.1 (41455) - http://www.bohemiancoding.com/sketch -->
  <title
     id="title2">action-triggers-off</title>
  <desc
     id="desc4">Created with Sketch.</desc>
  <defs
     id="defs6" />
  <g
     id="Page-1"
     style="fill:none;fill-rule:evenodd;stroke:none;stroke-width:1"
     transform="translate(0,-4)">
    <g
       id="action-triggers-off">
      <path
         d="m 13.5,21.5 c -2.209139,0 -4,-1.790861 -4,-4 0,-2.209139 1.790861,-4 4,-4 2.209139,0 4,1.790861 4,4 0,2.209139 -1.790861,4 -4,4 z M 11.054626,15.761733 C 10.705396,16.252142 10.5,16.852085 10.5,17.5 c 0,1.656854 1.343146,3 3,3 0.647915,0 1.247858,-0.205396 1.738267,-0.554626 z m 0.707107,-0.707107 4.183641,4.183641 C 16.294604,18.747858 16.5,18.147915 16.5,17.5 c 0,-1.656854 -1.343146,-3 -3,-3 -0.647915,0 -1.247858,0.205396 -1.738267,0.554626 z M 15.5,12.916044 C 14.887538,12.648448 14.211105,12.5 13.5,12.5 c -2.01589,0 -3.75314,1.192997 -4.544253,2.911493 L 8.721932,14.943865 C 8.59954,14.69908 8.278207,14.5 8.004611,14.5 H 4 v 5.25 C 4,20.164214 3.6642136,20.5 3.25,20.5 2.8357864,20.5 2.5,20.164214 2.5,19.75 V 7.5024733 C 2.5,6.955761 2.9476291,6.5 3.4998075,6.5 H 8.002301 c 0.282855,0 0.597062,0.198725 0.719631,0.4438648 L 9.278068,8.0561352 C 9.40046,8.3009205 9.719595,8.5 9.990479,8.5 h 4.500152 C 15.056647,8.5 15.5,8.9490268 15.5,9.5029293 Z"
         id="Combined-Shape"
         inkscape:connector-curvature="0"
         style="fill:#000000;fill-rule:nonzero" />
    </g>
  </g>
</svg>
