<?xml version="1.0" encoding="UTF-8" standalone="no"?>
<svg
   xmlns:dc="http://purl.org/dc/elements/1.1/"
   xmlns:cc="http://creativecommons.org/ns#"
   xmlns:rdf="http://www.w3.org/1999/02/22-rdf-syntax-ns#"
   xmlns:svg="http://www.w3.org/2000/svg"
   xmlns="http://www.w3.org/2000/svg"
   xmlns:sodipodi="http://sodipodi.sourceforge.net/DTD/sodipodi-0.dtd"
   xmlns:inkscape="http://www.inkscape.org/namespaces/inkscape"
   width="20"
   height="20"
   viewBox="0 0 20 20"
   version="1.1"
   id="svg12"
   sodipodi:docname="action-command-off.svg"
   inkscape:version="0.92.1 r15371">
  <metadata
     id="metadata16">
    <rdf:RDF>
      <cc:Work
         rdf:about="">
        <dc:format>image/svg+xml</dc:format>
        <dc:type
           rdf:resource="http://purl.org/dc/dcmitype/StillImage" />
        <dc:title>action-command-off</dc:title>
      </cc:Work>
    </rdf:RDF>
  </metadata>
  <sodipodi:namedview
     pagecolor="#ffffff"
     bordercolor="#666666"
     borderopacity="1"
     objecttolerance="10"
     gridtolerance="10"
     guidetolerance="10"
     inkscape:pageopacity="0"
     inkscape:pageshadow="2"
     inkscape:window-width="1154"
     inkscape:window-height="987"
     id="namedview14"
     showgrid="false"
     inkscape:zoom="9.8333333"
     inkscape:cx="-1.1694915"
     inkscape:cy="12"
     inkscape:window-x="0"
     inkscape:window-y="0"
     inkscape:window-maximized="0"
     inkscape:current-layer="action-command-off" />
  <!-- Generator: Sketch 44.1 (41455) - http://www.bohemiancoding.com/sketch -->
  <title
     id="title2">action-command-off</title>
  <desc
     id="desc4">Created with Sketch.</desc>
  <defs
     id="defs6" />
  <g
     id="Page-1"
     style="fill:none;fill-rule:evenodd;stroke:none;stroke-width:1"
     transform="translate(0,-4)">
    <g
       id="action-command-off">
      <path
         d="m 2.2928933,8.7071069 c -0.3905243,-0.3905243 -0.3905243,-1.0236893 0,-1.4142136 0.3905243,-0.3905243 1.0236893,-0.3905243 1.4142136,0 l 5.0000002,4.9999997 c 0.390524,0.390524 0.390524,1.02369 0,1.414214 l -5.0000002,5 c -0.3905243,0.390524 -1.0236893,0.390524 -1.4142136,0 -0.3905243,-0.390525 -0.3905243,-1.02369 0,-1.414214 L 6.5857865,13 Z M 14.5,16.43934 16.71967,14.21967 c 0.292893,-0.292893 0.767767,-0.292893 1.06066,0 0.292893,0.292893 0.292893,0.767767 0,1.06066 L 15.56066,17.5 l 2.21967,2.21967 c 0.292893,0.292893 0.292893,0.767767 0,1.06066 -0.292893,0.292893 -0.767767,0.292893 -1.06066,0 L 14.5,18.56066 12.28033,20.78033 c -0.292893,0.292893 -0.767767,0.292893 -1.06066,0 -0.292893,-0.292893 -0.292893,-0.767767 0,-1.06066 L 13.43934,17.5 11.21967,15.28033 c -0.292893,-0.292893 -0.292893,-0.767767 0,-1.06066 0.292893,-0.292893 0.767767,-0.292893 1.06066,0 z"
         id="Combined-Shape"
         inkscape:connector-curvature="0"
         style="fill:#000000;fill-rule:nonzero" />
    </g>
  </g>
</svg>
