<?xml version="1.0" encoding="UTF-8"?>
<svg width="125px" height="125px" viewBox="0 0 125 125" version="1.1" xmlns="http://www.w3.org/2000/svg" xmlns:xlink="http://www.w3.org/1999/xlink">
    <!-- Generator: Sketch 44 (41411) - http://www.bohemiancoding.com/sketch -->
    <title>Chart types/Bar/Regular</title>
    <desc>Created with Sketch.</desc>
    <defs>
        <rect id="path-1" x="0" y="0" width="125" height="125" rx="2"></rect>
        <rect id="path-2" x="0" y="0" width="105" height="74"></rect>
    </defs>
    <g id="Symbols" stroke="none" stroke-width="1" fill="none" fill-rule="evenodd">
        <g id="Chart-types/Bar/Regular">
            <g id="bar">
                <g id="Group-11">
                    <g id="Rectangle-4">
                        <use fill="#FFFFFF" fill-rule="evenodd" xlink:href="#path-1"></use>
                        <rect stroke="#EEEFF3" stroke-width="1" x="0.5" y="0.5" width="124" height="124" rx="2"></rect>
                    </g>
                    <g id="Graph" transform="translate(10.000000, 41.000000)">
                        <mask id="mask-3" fill="white">
                            <use xlink:href="#path-2"></use>
                        </mask>
                        <g id="Mask"></g>
                        <g id="bars" opacity="0.75" mask="url(#mask-3)" fill="#76DFCC">
                            <g transform="translate(3.000000, 20.000000)" id="Combined-Shape">
                                <path d="M3,8 L3,69 L0,69 L0,8 L3,8 Z M10,4 L10,69 L7,69 L7,4 L10,4 Z M17,20 L17,63 L14,63 L14,20 L17,20 Z M24,22 L24,64 L21,64 L21,22 L24,22 Z M31,26 L31,63 L28,63 L28,26 L31,26 Z M38,39 L38,87 L35,87 L35,39 L38,39 Z M45,31 L45,88 L42,88 L42,31 L45,31 Z M52,44 L52,88 L49,88 L49,44 L52,44 Z M59,34 L59,87 L56,87 L56,34 L59,34 Z M66,29 L66,86 L63,86 L63,29 L66,29 Z M73,16 L73,85 L70,85 L70,16 L73,16 Z M80,19 L80,86 L77,86 L77,19 L80,19 Z M87,2 L87,65 L84,65 L84,2 L87,2 Z M94,8 L94,65 L91,65 L91,8 L94,8 Z M101,0 L101,65 L98,65 L98,0 L101,0 Z"></path>
                            </g>
                        </g>
                    </g>
                </g>
                <path d="M56.336,20.8 C58.656,20.8 60.096,21.856 60.096,23.6 C60.096,24.864 59.344,25.808 58.128,26.096 C59.632,26.352 60.528,27.424 60.528,28.928 C60.528,30.848 58.976,32 56.448,32 L51.472,32 L51.472,20.8 L56.336,20.8 Z M56.24,25.44 C57.44,25.44 58.16,24.88 58.16,23.936 C58.16,22.992 57.44,22.48 56.24,22.48 L53.36,22.48 L53.36,25.44 L56.24,25.44 Z M56.24,30.32 C57.712,30.32 58.592,29.744 58.592,28.688 C58.592,27.696 57.712,27.104 56.24,27.104 L53.36,27.104 L53.36,30.32 L56.24,30.32 Z M69.568,32 L67.76,32 L67.76,30.96 C67.152,31.712 66.176,32.08 64.944,32.08 C63.104,32.08 61.952,30.944 61.952,29.44 C61.952,27.888 63.12,26.896 65.168,26.88 L67.744,26.88 L67.744,26.624 C67.744,25.552 67.056,24.912 65.712,24.912 C64.896,24.912 64.048,25.2 63.2,25.776 L62.448,24.496 C63.632,23.792 64.496,23.424 66.112,23.424 C68.304,23.424 69.536,24.544 69.552,26.416 L69.568,32 Z M65.328,30.624 C66.64,30.624 67.648,29.936 67.744,29.008 L67.744,28.224 L65.44,28.224 C64.24,28.224 63.68,28.544 63.68,29.36 C63.68,30.128 64.304,30.624 65.328,30.624 Z M73.872,25.184 L73.872,23.488 L72.032,23.488 L72.032,32 L73.872,32 L73.872,27.552 C74.016,26.096 75.104,25.088 76.816,25.184 L76.816,23.424 C75.472,23.424 74.448,24.032 73.872,25.184 Z" id="Bar" fill="#4B5671" opacity="0.5"></path>
            </g>
        </g>
    </g>
</svg>