<?xml version="1.0" encoding="UTF-8"?>
<svg width="125px" height="125px" viewBox="0 0 125 125" version="1.1" xmlns="http://www.w3.org/2000/svg" xmlns:xlink="http://www.w3.org/1999/xlink">
    <!-- Generator: Sketch 44 (41411) - http://www.bohemiancoding.com/sketch -->
    <title>Chart types/Numbers/Regular</title>
    <desc>Created with Sketch.</desc>
    <defs>
        <rect id="path-1" x="0" y="0" width="125" height="125" rx="2"></rect>
        <rect id="path-2" x="0" y="0" width="101" height="74"></rect>
    </defs>
    <g id="Symbols" stroke="none" stroke-width="1" fill="none" fill-rule="evenodd">
        <g id="Chart-types/Numbers/Regular">
            <g id="Rectangle-4-Copy-2">
                <use fill="#FFFFFF" fill-rule="evenodd" xlink:href="#path-1"></use>
                <rect stroke="#EEEFF3" stroke-width="1" x="0.5" y="0.5" width="124" height="124" rx="2"></rect>
            </g>
            <g id="number" transform="translate(12.000000, 13.000000)">
                <g id="Group-6" transform="translate(0.000000, 25.000000)">
                    <g id="Graph">
                        <mask id="mask-3" fill="white">
                            <use xlink:href="#path-2"></use>
                        </mask>
                        <g id="Mask"></g>
                        <path d="M31.548,25.114 C36.012,25.114 38.771,27.253 38.771,30.756 C38.771,32.833 37.562,34.507 35.609,35.375 C38.213,36.274 39.856,38.289 39.856,40.893 C39.856,44.768 36.663,47.155 31.579,47.155 C26.495,47.155 23.302,44.799 23.302,40.955 C23.302,38.32 25.007,36.274 27.704,35.375 C25.627,34.445 24.356,32.709 24.356,30.601 C24.356,27.222 27.146,25.114 31.548,25.114 Z M31.579,27.749 C28.975,27.749 27.456,28.927 27.456,30.942 C27.456,32.957 28.975,34.135 31.579,34.135 C34.183,34.135 35.671,32.957 35.671,30.942 C35.671,28.927 34.183,27.749 31.579,27.749 Z M31.548,36.987 C28.51,36.987 26.743,38.289 26.743,40.552 C26.743,42.939 28.51,44.272 31.579,44.272 C34.617,44.272 36.415,42.939 36.415,40.583 C36.415,38.32 34.617,36.987 31.548,36.987 Z M50.675,25.114 C55.139,25.114 57.898,27.253 57.898,30.756 C57.898,32.833 56.689,34.507 54.736,35.375 C57.34,36.274 58.983,38.289 58.983,40.893 C58.983,44.768 55.79,47.155 50.706,47.155 C45.622,47.155 42.429,44.799 42.429,40.955 C42.429,38.32 44.134,36.274 46.831,35.375 C44.754,34.445 43.483,32.709 43.483,30.601 C43.483,27.222 46.273,25.114 50.675,25.114 Z M50.706,27.749 C48.102,27.749 46.583,28.927 46.583,30.942 C46.583,32.957 48.102,34.135 50.706,34.135 C53.31,34.135 54.798,32.957 54.798,30.942 C54.798,28.927 53.31,27.749 50.706,27.749 Z M50.675,36.987 C47.637,36.987 45.87,38.289 45.87,40.552 C45.87,42.939 47.637,44.272 50.706,44.272 C53.744,44.272 55.542,42.939 55.542,40.583 C55.542,38.32 53.744,36.987 50.675,36.987 Z M66.423,33.267 L66.423,28.555 L76.808,28.555 L76.808,25.269 L63.044,25.269 L63.044,36.77 C64.594,36.584 67.632,36.46 69.027,36.46 C72.003,36.46 73.832,37.824 73.832,40.056 C73.832,42.474 72.003,43.962 68.965,43.962 C66.919,43.962 64.656,43.125 62.827,41.668 L61.339,44.644 C63.571,46.132 66.702,47.124 69.368,47.124 C74.452,47.124 77.738,44.241 77.738,39.808 C77.738,36.026 74.576,33.236 69.647,33.236 C68.81,33.236 67.384,33.236 66.423,33.267 Z" id="885" fill="#759DE0" mask="url(#mask-3)"></path>
                    </g>
                </g>
                <path d="M15.472,4.8 L15.472,16 L17.36,16 L17.36,7.968 L23.328,16 L25.184,16 L25.184,4.8 L23.328,4.8 L23.328,12.848 L17.328,4.8 L15.472,4.8 Z M33.92,7.488 L33.92,11.68 C33.92,13.168 33.056,14.304 31.584,14.336 C30.352,14.336 29.6,13.552 29.6,12.272 L29.6,7.488 L27.76,7.488 L27.76,12.784 C27.76,14.816 28.928,16.064 30.88,16.064 C32.272,16.048 33.344,15.52 33.92,14.336 L33.92,16 L35.76,16 L35.76,7.488 L33.92,7.488 Z M49.584,7.424 C48.032,7.424 46.896,8.048 46.352,9.472 C45.952,8.176 44.912,7.424 43.392,7.424 C41.984,7.424 40.896,7.936 40.304,9.136 L40.304,7.488 L38.48,7.488 L38.48,16 L40.304,16 L40.304,11.792 C40.304,10.304 41.2,9.184 42.672,9.136 C43.92,9.136 44.672,9.92 44.672,11.216 L44.672,16 L46.512,16 L46.512,11.792 C46.512,10.304 47.392,9.184 48.848,9.136 C50.096,9.136 50.864,9.92 50.864,11.216 L50.864,16 L52.704,16 L52.704,10.704 C52.704,8.672 51.536,7.424 49.584,7.424 Z M60.064,7.424 C62.48,7.424 64.128,9.184 64.128,11.776 C64.128,14.32 62.528,16.064 60.096,16.064 C58.736,16.064 57.712,15.52 57.088,14.528 L57.088,16 L55.248,16 L55.248,4.128 L57.088,4.128 L57.088,8.96 C57.712,7.968 58.736,7.424 60.064,7.424 Z M59.68,14.496 C61.2,14.496 62.272,13.344 62.272,11.712 C62.272,10.128 61.2,8.96 59.68,8.96 C58.16,8.96 57.088,10.112 57.088,11.712 C57.088,13.36 58.16,14.496 59.68,14.496 Z M69.552,7.424 C72.544,7.424 73.76,9.376 73.536,12.448 L67.104,12.448 C67.392,13.76 68.4,14.576 69.744,14.576 C70.672,14.576 71.52,14.224 72.144,13.584 L73.12,14.624 C72.288,15.536 71.072,16.064 69.6,16.064 C66.976,16.064 65.248,14.32 65.248,11.76 C65.248,9.184 67.024,7.44 69.552,7.424 Z M67.072,11.104 L71.936,11.104 C71.872,9.728 70.96,8.896 69.568,8.896 C68.224,8.896 67.264,9.744 67.072,11.104 Z M77.296,9.184 L77.296,7.488 L75.456,7.488 L75.456,16 L77.296,16 L77.296,11.552 C77.44,10.096 78.528,9.088 80.24,9.184 L80.24,7.424 C78.896,7.424 77.872,8.032 77.296,9.184 Z M86.608,9.632 L87.28,8.272 C86.512,7.728 85.376,7.408 84.304,7.408 C82.672,7.408 81.168,8.144 81.168,9.872 C81.152,12.944 85.632,11.968 85.632,13.712 C85.632,14.352 85.024,14.624 84.24,14.624 C83.312,14.624 82.128,14.224 81.392,13.568 L80.736,14.88 C81.584,15.648 82.912,16.064 84.16,16.064 C85.872,16.064 87.424,15.28 87.424,13.536 C87.44,10.448 82.912,11.296 82.912,9.728 C82.912,9.12 83.44,8.88 84.16,8.88 C84.912,8.88 85.856,9.168 86.608,9.632 Z" id="Numbers" fill="#4B5671" opacity="0.5"></path>
            </g>
        </g>
    </g>
</svg>