<?xml version="1.0" encoding="UTF-8"?>
<svg width="125px" height="125px" viewBox="0 0 125 125" version="1.1" xmlns="http://www.w3.org/2000/svg" xmlns:xlink="http://www.w3.org/1999/xlink">
    <!-- Generator: Sketch 44 (41411) - http://www.bohemiancoding.com/sketch -->
    <title>Chart types/Text/Regular</title>
    <desc>Created with Sketch.</desc>
    <defs>
        <path d="M0,2.00136642 C0,0.896042268 0.899304869,0 2.00136642,0 L122.998634,0 C124.103958,0 125,0.899304869 125,2.00136642 L125,122.998634 C125,124.103958 124.100695,125 122.998634,125 L2.00136642,125 C0.896042268,125 0,124.100695 0,122.998634 L0,2.00136642 Z" id="path-1"></path>
        <rect id="path-2" x="10" y="41" width="105" height="74"></rect>
    </defs>
    <g id="Symbols" stroke="none" stroke-width="1" fill="none" fill-rule="evenodd">
        <g id="Chart-types/Text/Regular">
            <g id="text">
                <g id="Group-14">
                    <g id="Rectangle-4-Copy-5">
                        <use fill="#FFFFFF" fill-rule="evenodd" xlink:href="#path-1"></use>
                        <path stroke="#EEEFF3" stroke-width="1" d="M0.5,2.00136642 L0.5,122.998634 C0.5,123.825805 1.17343623,124.5 2.00136642,124.5 L122.998634,124.5 C123.825805,124.5 124.5,123.826564 124.5,122.998634 L124.5,2.00136642 C124.5,1.17419455 123.826564,0.5 122.998634,0.5 L2.00136642,0.5 C1.17419455,0.5 0.5,1.17343623 0.5,2.00136642 Z"></path>
                    </g>
                    <mask id="mask-3" fill="white">
                        <use xlink:href="#path-2"></use>
                    </mask>
                    <g id="Mask"></g>
                    <rect id="Rectangle" fill="#4B5671" opacity="0.300000012" mask="url(#mask-3)" x="10" y="70" width="105" height="4" rx="2"></rect>
                    <rect id="Rectangle-Copy" fill="#4B5671" opacity="0.300000012" mask="url(#mask-3)" x="10" y="58" width="105" height="4" rx="2"></rect>
                    <rect id="Rectangle" fill="#4B5671" opacity="0.300000012" mask="url(#mask-3)" x="10" y="82" width="85" height="4" rx="2"></rect>
                    <rect id="Rectangle" fill="#4B5671" opacity="0.300000012" mask="url(#mask-3)" x="10" y="94" width="95" height="4" rx="2"></rect>
                    <rect id="Rectangle" fill="#4B5671" opacity="0.300000012" mask="url(#mask-3)" x="10" y="106" width="48" height="4" rx="2"></rect>
                </g>
                <path d="M46.144,20.8 L55.12,20.8 L55.12,22.496 L51.568,22.496 L51.568,32 L49.68,32 L49.68,22.496 L46.144,22.496 L46.144,20.8 Z M59.008,23.424 C62,23.424 63.216,25.376 62.992,28.448 L56.56,28.448 C56.848,29.76 57.856,30.576 59.2,30.576 C60.128,30.576 60.976,30.224 61.6,29.584 L62.576,30.624 C61.744,31.536 60.528,32.064 59.056,32.064 C56.432,32.064 54.704,30.32 54.704,27.76 C54.704,25.184 56.48,23.44 59.008,23.424 Z M56.528,27.104 L61.392,27.104 C61.328,25.728 60.416,24.896 59.024,24.896 C57.68,24.896 56.72,25.744 56.528,27.104 Z M63.504,23.488 L66.304,27.632 L63.296,32 L65.344,32 L67.52,28.88 L69.552,32 L71.664,32 L68.736,27.632 L71.472,23.488 L69.456,23.488 L67.52,26.4 L65.616,23.488 L63.504,23.488 Z M77.648,30.048 C77.152,30.288 76.752,30.416 76.368,30.416 C75.792,30.416 75.456,30.144 75.456,29.264 L75.456,25.184 L77.968,25.184 L77.968,23.808 L75.456,23.808 L75.456,21.472 L73.632,21.472 L73.632,23.808 L72.432,23.808 L72.432,25.184 L73.632,25.184 L73.632,29.6 C73.632,31.344 74.736,32.08 76.016,32.08 C76.736,32.08 77.44,31.856 78.112,31.456 L77.648,30.048 Z" id="Text" fill="#4B5671" opacity="0.5"></path>
            </g>
        </g>
    </g>
</svg>