<?xml version="1.0" encoding="UTF-8"?>
<svg width="125px" height="125px" viewBox="0 0 125 125" version="1.1" xmlns="http://www.w3.org/2000/svg" xmlns:xlink="http://www.w3.org/1999/xlink">
    <!-- Generator: Sketch 44 (41411) - http://www.bohemiancoding.com/sketch -->
    <title>Chart types/Line/Regular</title>
    <desc>Created with Sketch.</desc>
    <defs>
        <rect id="path-1" x="0" y="0" width="125" height="125" rx="2"></rect>
        <rect id="path-2" x="0" y="0" width="105" height="74"></rect>
    </defs>
    <g id="Symbols" stroke="none" stroke-width="1" fill="none" fill-rule="evenodd">
        <g id="Chart-types/Line/Regular">
            <g id="box">
                <use fill="#FFFFFF" fill-rule="evenodd" xlink:href="#path-1"></use>
                <rect stroke="#EEEFF3" stroke-width="1" x="0.5" y="0.5" width="124" height="124" rx="2"></rect>
            </g>
            <g id="Graph" transform="translate(10.000000, 41.000000)">
                <mask id="mask-3" fill="white">
                    <use xlink:href="#path-2"></use>
                </mask>
                <g id="Mask"></g>
                <path d="M115,81.5 L114.913142,43.5586875 C114.90901,41.7537784 113.740722,39.3946496 112.319016,38.3012067 L108.873064,35.6509048 C107.124838,34.3063337 103.966001,33.6340846 101.816344,34.149697 L101.433726,34.241471 C99.2846332,34.7569479 95.7792733,34.8165823 93.6281133,34.3795093 L93.9364862,34.4421646 C91.7746581,34.0029241 88.5752213,34.7142845 86.7963062,36.026634 L84.2422481,37.9108257 C82.4606636,39.2251445 79.3094056,39.7265792 77.2132625,39.0339657 L77.2132625,39.0339657 C75.1128455,38.33994 72.4099661,36.2952876 71.1718813,34.4606888 L68.8701053,31.0499085 C67.6339596,29.2181832 64.8329647,27.8136963 62.6293398,27.9122094 L62.4372346,27.9207975 C60.2267006,28.0196195 57.3020345,26.7238073 55.889135,25.0074788 L53.7311669,22.3860734 C52.3252853,20.67827 50.248485,20.816857 49.0919769,22.6964723 L44.2031985,30.6419613 C43.0469262,32.5211933 40.7283279,35.1696997 39.0067763,36.5719734 L36.8477224,38.3306104 C35.13409,39.7264336 32.0117724,40.3701187 29.8886986,39.7725063 L29.7036155,39.7204083 C27.5738852,39.1209223 24.3773879,39.6525126 22.5589299,40.9112852 L20.4702132,42.3571362 C18.6540426,43.6143254 16.0893159,43.2254312 14.7314942,41.4753161 L12.5409908,38.6519463 C11.1877544,36.9077413 8.86617833,34.1856124 7.35789929,32.5743518 L5.04117906,30.0994515 C3.53187305,28.4870937 1.0167065,25.9508556 -0.590973129,24.4209296 L-2.02883668,23.0526068 C-3.33322975,21.8112993 -5.8540918,20.8050207 -7.66249423,20.8050207 L-9.90566038,20.8050207 L-8,81.5 L115,81.5 Z" id="Combined-Shape-Copy" stroke="#759DE0" stroke-width="2" fill-opacity="0.1" fill="#759DE0" mask="url(#mask-3)"></path>
            </g>
            <path d="M45.472,20.8 L45.472,32 L52.208,32 L52.208,30.288 L47.36,30.288 L47.36,20.8 L45.472,20.8 Z M54.816,19.936 C54.208,19.936 53.744,20.4 53.744,21.056 C53.744,21.696 54.208,22.16 54.816,22.16 C55.424,22.16 55.888,21.696 55.888,21.056 C55.888,20.4 55.424,19.936 54.816,19.936 Z M53.904,23.488 L53.904,32 L55.728,32 L55.728,23.488 L53.904,23.488 Z M63.424,23.424 C61.984,23.424 60.896,23.936 60.288,25.12 L60.288,23.488 L58.448,23.488 L58.448,32 L60.288,32 L60.288,27.472 C60.416,26.144 61.296,25.168 62.704,25.152 C63.984,25.152 64.752,25.936 64.752,27.216 L64.752,32 L66.592,32 L66.592,26.704 C66.592,24.672 65.408,23.424 63.424,23.424 Z M72.56,23.424 C75.552,23.424 76.768,25.376 76.544,28.448 L70.112,28.448 C70.4,29.76 71.408,30.576 72.752,30.576 C73.68,30.576 74.528,30.224 75.152,29.584 L76.128,30.624 C75.296,31.536 74.08,32.064 72.608,32.064 C69.984,32.064 68.256,30.32 68.256,27.76 C68.256,25.184 70.032,23.44 72.56,23.424 Z M70.08,27.104 L74.944,27.104 C74.88,25.728 73.968,24.896 72.576,24.896 C71.232,24.896 70.272,25.744 70.08,27.104 Z" id="Line" fill="#4B5671" opacity="0.5"></path>
        </g>
    </g>
</svg>