<?xml version="1.0" encoding="UTF-8"?>
<svg width="125px" height="125px" viewBox="0 0 125 125" version="1.1" xmlns="http://www.w3.org/2000/svg" xmlns:xlink="http://www.w3.org/1999/xlink">
    <!-- Generator: Sketch 44 (41411) - http://www.bohemiancoding.com/sketch -->
    <title>Chart types/Calendar/Regular</title>
    <desc>Created with Sketch.</desc>
    <defs>
        <path d="M0,2.00136642 C0,0.896042268 0.899304869,0 2.00136642,0 L122.998634,0 C124.103958,0 125,0.899304869 125,2.00136642 L125,122.998634 C125,124.103958 124.100695,125 122.998634,125 L2.00136642,125 C0.896042268,125 0,124.100695 0,122.998634 L0,2.00136642 Z" id="path-1"></path>
        <rect id="path-2" x="0" y="0" width="105" height="74"></rect>
    </defs>
    <g id="Symbols" stroke="none" stroke-width="1" fill="none" fill-rule="evenodd">
        <g id="Chart-types/Calendar/Regular">
            <g id="calendar">
                <g id="Group-14">
                    <g id="Rectangle-4-Copy-5">
                        <use fill="#FFFFFF" fill-rule="evenodd" xlink:href="#path-1"></use>
                        <path stroke="#EEEFF3" stroke-width="1" d="M0.5,2.00136642 L0.5,122.998634 C0.5,123.825805 1.17343623,124.5 2.00136642,124.5 L122.998634,124.5 C123.825805,124.5 124.5,123.826564 124.5,122.998634 L124.5,2.00136642 C124.5,1.17419455 123.826564,0.5 122.998634,0.5 L2.00136642,0.5 C1.17419455,0.5 0.5,1.17343623 0.5,2.00136642 Z"></path>
                    </g>
                    <g id="calendar-chart-preview" transform="translate(10.000000, 41.000000)">
                        <mask id="mask-3" fill="white">
                            <use xlink:href="#path-2"></use>
                        </mask>
                        <g id="Mask"></g>
                        <rect id="Rectangle-7" fill="#62D1B4" opacity="0.5" mask="url(#mask-3)" x="4" y="33" width="13" height="13"></rect>
                        <rect id="Rectangle-7" fill="#62D1B4" opacity="0.100000001" mask="url(#mask-3)" x="18" y="33" width="13" height="13"></rect>
                        <rect id="Rectangle-7-Copy" fill="#62D1B4" opacity="0.5" mask="url(#mask-3)" x="32" y="33" width="13" height="13"></rect>
                        <rect id="Rectangle-7-Copy-2" fill="#62D1B4" opacity="0.400000006" mask="url(#mask-3)" x="46" y="33" width="13" height="13"></rect>
                        <rect id="Rectangle-7-Copy-3" fill="#62D1B4" opacity="0.200000003" mask="url(#mask-3)" x="60" y="33" width="13" height="13"></rect>
                        <rect id="Rectangle-7-Copy-4" fill="#62D1B4" opacity="0.300000012" mask="url(#mask-3)" x="74" y="33" width="13" height="13"></rect>
                        <rect id="Rectangle-7-Copy-5" fill="#62D1B4" opacity="0.5" mask="url(#mask-3)" x="88" y="33" width="13" height="13"></rect>
                        <rect id="Rectangle-7" fill="#62D1B4" opacity="0.5" mask="url(#mask-3)" x="4" y="19" width="13" height="13"></rect>
                        <rect id="Rectangle-7" fill="#62D1B4" opacity="0.400000006" mask="url(#mask-3)" x="18" y="19" width="13" height="13"></rect>
                        <rect id="Rectangle-7-Copy" fill="#62D1B4" opacity="0.5" mask="url(#mask-3)" x="32" y="19" width="13" height="13"></rect>
                        <rect id="Rectangle-7-Copy-2" fill="#62D1B4" opacity="0.100000001" mask="url(#mask-3)" x="46" y="19" width="13" height="13"></rect>
                        <rect id="Rectangle-7-Copy-3" fill="#62D1B4" opacity="0.300000012" mask="url(#mask-3)" x="60" y="19" width="13" height="13"></rect>
                        <rect id="Rectangle-7-Copy-4" fill="#62D1B4" opacity="0.400000006" mask="url(#mask-3)" x="74" y="19" width="13" height="13"></rect>
                        <rect id="Rectangle-7-Copy-5" fill="#62D1B4" opacity="0.300000012" mask="url(#mask-3)" x="88" y="19" width="13" height="13"></rect>
                        <rect id="Rectangle-7" fill="#62D1B4" opacity="0.100000001" mask="url(#mask-3)" x="4" y="47" width="13" height="13"></rect>
                        <rect id="Rectangle-7" fill="#62D1B4" opacity="0.5" mask="url(#mask-3)" x="18" y="47" width="13" height="13"></rect>
                        <rect id="Rectangle-7-Copy" fill="#62D1B4" opacity="0.100000001" mask="url(#mask-3)" x="32" y="47" width="13" height="13"></rect>
                        <rect id="Rectangle-7-Copy-2" fill="#62D1B4" opacity="0.100000001" mask="url(#mask-3)" x="46" y="47" width="13" height="13"></rect>
                        <rect id="Rectangle-7-Copy-3" fill="#62D1B4" opacity="0.5" mask="url(#mask-3)" x="60" y="47" width="13" height="13"></rect>
                        <rect id="Rectangle-7-Copy-4" fill="#62D1B4" opacity="0.300000012" mask="url(#mask-3)" x="74" y="47" width="13" height="13"></rect>
                        <rect id="Rectangle-7-Copy-5" fill="#62D1B4" opacity="0.300000012" mask="url(#mask-3)" x="88" y="47" width="13" height="13"></rect>
                        <rect id="Rectangle-7" fill="#62D1B4" opacity="0.5" mask="url(#mask-3)" x="4" y="61" width="13" height="13"></rect>
                        <rect id="Rectangle-7" fill="#62D1B4" opacity="0.300000012" mask="url(#mask-3)" x="18" y="61" width="13" height="13"></rect>
                        <rect id="Rectangle-7-Copy" fill="#62D1B4" opacity="0.400000006" mask="url(#mask-3)" x="32" y="61" width="13" height="13"></rect>
                        <rect id="Rectangle-7-Copy-2" fill="#62D1B4" opacity="0.200000003" mask="url(#mask-3)" x="46" y="61" width="13" height="13"></rect>
                        <rect id="Rectangle-7-Copy-3" fill="#62D1B4" opacity="0.300000012" mask="url(#mask-3)" x="60" y="61" width="13" height="13"></rect>
                        <rect id="Rectangle-7-Copy-4" fill="#62D1B4" opacity="0.200000003" mask="url(#mask-3)" x="74" y="61" width="13" height="13"></rect>
                        <rect id="Rectangle-7-Copy-5" fill="#62D1B4" opacity="0.400000006" mask="url(#mask-3)" x="88" y="61" width="13" height="13"></rect>
                    </g>
                </g>
                <path d="M35.584,23.856 L36.688,22.48 C35.6,21.408 34.016,20.752 32.432,20.752 C29.12,20.752 26.544,23.2 26.544,26.384 C26.544,29.6 29.088,32.08 32.368,32.08 C33.952,32.08 35.568,31.36 36.704,30.24 L35.584,28.992 C34.736,29.808 33.584,30.32 32.464,30.32 C30.224,30.32 28.464,28.576 28.464,26.368 C28.464,24.16 30.224,22.432 32.464,22.432 C33.6,22.432 34.768,22.976 35.584,23.856 Z M45.424,32 L43.616,32 L43.616,30.96 C43.008,31.712 42.032,32.08 40.8,32.08 C38.96,32.08 37.808,30.944 37.808,29.44 C37.808,27.888 38.976,26.896 41.024,26.88 L43.6,26.88 L43.6,26.624 C43.6,25.552 42.912,24.912 41.568,24.912 C40.752,24.912 39.904,25.2 39.056,25.776 L38.304,24.496 C39.488,23.792 40.352,23.424 41.968,23.424 C44.16,23.424 45.392,24.544 45.408,26.416 L45.424,32 Z M41.184,30.624 C42.496,30.624 43.504,29.936 43.6,29.008 L43.6,28.224 L41.296,28.224 C40.096,28.224 39.536,28.544 39.536,29.36 C39.536,30.128 40.16,30.624 41.184,30.624 Z M47.968,20.128 L47.968,32 L49.808,32 L49.808,20.128 L47.968,20.128 Z M56.112,23.424 C59.104,23.424 60.32,25.376 60.096,28.448 L53.664,28.448 C53.952,29.76 54.96,30.576 56.304,30.576 C57.232,30.576 58.08,30.224 58.704,29.584 L59.68,30.624 C58.848,31.536 57.632,32.064 56.16,32.064 C53.536,32.064 51.808,30.32 51.808,27.76 C51.808,25.184 53.584,23.44 56.112,23.424 Z M53.632,27.104 L58.496,27.104 C58.432,25.728 57.52,24.896 56.128,24.896 C54.784,24.896 53.824,25.744 53.632,27.104 Z M66.992,23.424 C65.552,23.424 64.464,23.936 63.856,25.12 L63.856,23.488 L62.016,23.488 L62.016,32 L63.856,32 L63.856,27.472 C63.984,26.144 64.864,25.168 66.272,25.152 C67.552,25.152 68.32,25.936 68.32,27.216 L68.32,32 L70.16,32 L70.16,26.704 C70.16,24.672 68.976,23.424 66.992,23.424 Z M78.896,20.128 L80.736,20.128 L80.736,32 L78.896,32 L78.896,30.544 C78.288,31.536 77.264,32.08 75.904,32.08 C73.456,32.08 71.824,30.304 71.824,27.712 C71.824,25.152 73.472,23.408 75.872,23.408 C77.248,23.408 78.272,23.968 78.896,24.96 L78.896,20.128 Z M76.288,30.544 C77.824,30.544 78.896,29.392 78.896,27.776 C78.896,26.128 77.824,24.976 76.288,24.976 C74.752,24.976 73.68,26.144 73.664,27.776 C73.68,29.392 74.736,30.544 76.288,30.544 Z M90.448,32 L88.64,32 L88.64,30.96 C88.032,31.712 87.056,32.08 85.824,32.08 C83.984,32.08 82.832,30.944 82.832,29.44 C82.832,27.888 84,26.896 86.048,26.88 L88.624,26.88 L88.624,26.624 C88.624,25.552 87.936,24.912 86.592,24.912 C85.776,24.912 84.928,25.2 84.08,25.776 L83.328,24.496 C84.512,23.792 85.376,23.424 86.992,23.424 C89.184,23.424 90.416,24.544 90.432,26.416 L90.448,32 Z M86.208,30.624 C87.52,30.624 88.528,29.936 88.624,29.008 L88.624,28.224 L86.32,28.224 C85.12,28.224 84.56,28.544 84.56,29.36 C84.56,30.128 85.184,30.624 86.208,30.624 Z M94.752,25.184 L94.752,23.488 L92.912,23.488 L92.912,32 L94.752,32 L94.752,27.552 C94.896,26.096 95.984,25.088 97.696,25.184 L97.696,23.424 C96.352,23.424 95.328,24.032 94.752,25.184 Z" id="Calendar" fill="#4B5671" opacity="0.5"></path>
            </g>
        </g>
    </g>
</svg>