<?xml version="1.0" encoding="UTF-8"?>
<svg width="125px" height="125px" viewBox="0 0 125 125" version="1.1" xmlns="http://www.w3.org/2000/svg" xmlns:xlink="http://www.w3.org/1999/xlink">
    <!-- Generator: Sketch 44 (41411) - http://www.bohemiancoding.com/sketch -->
    <title>Chart types/Map/Regular</title>
    <desc>Created with Sketch.</desc>
    <defs>
        <path d="M0,2.00136642 C0,0.896042268 0.899304869,0 2.00136642,0 L122.998634,0 C124.103958,0 125,0.899304869 125,2.00136642 L125,122.998634 C125,124.103958 124.100695,125 122.998634,125 L2.00136642,125 C0.896042268,125 0,124.100695 0,122.998634 L0,2.00136642 Z" id="path-1"></path>
        <rect id="path-2" x="0" y="0" width="105" height="74"></rect>
    </defs>
    <g id="Symbols" stroke="none" stroke-width="1" fill="none" fill-rule="evenodd">
        <g id="Chart-types/Map/Regular">
            <g id="map">
                <g id="Group-14">
                    <g id="Rectangle-4-Copy-5">
                        <use fill="#FFFFFF" fill-rule="evenodd" xlink:href="#path-1"></use>
                        <path stroke="#EEEFF3" stroke-width="1" d="M0.5,2.00136642 L0.5,122.998634 C0.5,123.825805 1.17343623,124.5 2.00136642,124.5 L122.998634,124.5 C123.825805,124.5 124.5,123.826564 124.5,122.998634 L124.5,2.00136642 C124.5,1.17419455 123.826564,0.5 122.998634,0.5 L2.00136642,0.5 C1.17419455,0.5 0.5,1.17343623 0.5,2.00136642 Z"></path>
                    </g>
                    <g id="Blank-US-states-map.svg" transform="translate(10.000000, 41.000000)">
                        <mask id="mask-3" fill="white">
                            <use xlink:href="#path-2"></use>
                        </mask>
                        <g id="Mask"></g>
                        <g opacity="0.75" mask="url(#mask-3)" id="outlines">
                            <g transform="translate(35.006907, 73.262324) rotate(-13.000000) translate(-35.006907, -73.262324) translate(-45.993093, 18.762324)">
                                <g transform="translate(0.574592, 0.000000)">
                                    <polygon id="AL" stroke="#FFFFFF" fill="#759DE0" points="107.903555 84.7223076 107.623627 81.9344259 107.15125 78.4862564 107.186241 75.9001292 107.326204 70.2143178 107.291213 67.1513162 107.326204 65.9774712 108.690851 65.9041059 113.55459 65.4272314 115.111686 65.2988421 115.094191 65.7023513 115.129182 66.0875192 115.234155 66.7111243 115.829 68.1600892 116.248892 69.9758806 116.511324 71.0947015 116.791251 71.9750852 117.053683 73.2589781 117.421088 74.4144817 117.87597 75.0380869 117.963447 75.661692 118.295861 75.8084226 118.330852 76.1935905 118.015934 77.0739742 117.928456 77.6608966 117.893465 78.0093819 118.173393 78.8164002 118.225879 79.7884906 118.085915 80.2286824 118.190888 80.3754131 118.45332 80.5221437 118.628275 80.9806769 117.526061 80.9806769 116.336369 81.0907248 111.875025 81.6226233 110.055497 81.8794019 110.038001 82.5763723 110.35292 82.9065162 110.807802 83.2550014 110.912775 84.7039663 109.950524 85.1808408 109.478147 85.1258168 109.950524 84.7773316 109.950524 84.5939183 109.408165 83.4934387 109.005769 83.3833907 108.743337 84.1904091 108.515896 84.6856249 108.410923 84.6489423 107.903555 84.6489423"></polygon>
                                    <polygon id="AR" stroke="#FFFFFF" fill="#759DE0" points="101.850124 62.3825711 101.185296 62.5476431 100.100577 62.4559364 100.223046 61.9056966 100.7829 61.4104808 100.870378 60.9886302 100.555459 60.4383904 98.6309583 60.5300971 94.9919015 60.695169 90.9154582 60.8235583 86.8040239 60.9152649 87.0839513 62.1808165 87.0839513 63.6848053 87.3288879 65.7023513 87.3638788 72.635373 87.7662745 72.9838582 88.2911384 72.7270796 88.763516 72.9288342 88.8334978 74.8179909 92.8399593 74.7996496 96.1466022 74.652919 97.9136442 74.6162363 98.1060943 74.2310685 98.0536079 73.589122 97.7386896 73.0388822 98.018617 72.7637623 97.7386896 72.3052291 97.8611578 71.8466959 98.1060943 70.8195816 98.5434809 70.4344137 98.4210127 70.0125632 99.0683449 69.0221315 99.5407225 68.765353 99.523227 68.4902331 99.4707406 68.1600892 99.9781091 67.1329748 100.398 66.8945376 100.467982 66.2709325 100.7829 66.0508365 100.94036 65.2805008 100.712919 64.5468477 101.412737 64.1066559 101.51771 63.7398293 101.727656 62.9511522"></polygon>
                                    <polygon id="AZ" stroke="#FFFFFF" fill="#759DE0" points="22.5431808 70.1776352 22.0882987 70.5811443 22.0358123 70.8562643 22.1232897 71.0396775 25.4299326 73.0021995 27.5468838 74.3961404 30.1187172 75.9734945 33.0579553 77.8076273 35.2098975 78.2478191 39.6012592 78.7430349 40.0386459 76.450369 40.7034735 71.4615281 41.9281561 61.758966 42.6804611 56.0731546 38.3765767 55.3945255 33.6178102 54.5508244 27.7743249 53.3953208 27.2669564 56.715101 27.1794791 56.8068076 26.8820561 57.2836822 26.4446695 57.2653408 26.2172285 56.770125 25.7448509 56.715101 25.5873917 56.5133464 25.4299326 56.5133464 25.2724734 56.6233944 24.9400595 56.8068076 24.9225641 58.0907005 24.8875731 58.4025031 24.7826003 60.7135103 24.5201684 61.1170195 24.4151956 61.7222833 24.8875731 62.6210084 25.1150142 63.6848053 25.2549779 63.8682186 25.4299326 63.9782666 25.4124371 64.4001171 25.1325096 64.6568957 24.5376638 64.9686982 24.20525 65.3171835 23.942818 65.9958126 23.8378452 66.8945376 23.3304767 67.3897534 22.963072 67.5181427 22.9455765 68.5819397 22.8580992 68.8937422 22.9455765 69.0404729 23.5929087 69.1505208 23.4879359 69.6457367 23.225504 70.0492459"></polygon>
                                    <polyline id="CO" stroke="#FFFFFF" fill="#759DE0" points="64.6897561 46.2055205 64.9346926 42.2988179 59.3186483 41.7302367 55.0322594 41.2350209 48.5064509 40.4830265 44.8848897 40.0244933 44.4300076 44.0962679 43.8701527 48.2047252 43.205325 53.3402968 42.9428931 55.3761841 42.8904067 55.8897413 48.8213693 56.5867117 55.4171596 57.3753888 61.0157084 57.9623113 63.9199556 58.1090419"></polyline>
                                    <polygon id="CT" stroke="#FFFFFF" fill="#759DE0" points="151.222326 32.1377226 151.117353 31.3673869 150.97739 30.5603685 150.697462 29.4598888 149.962653 29.6249608 146.148641 30.5053445 146.253614 31.1106083 146.516046 32.4495252 146.516046 33.9351727 146.323596 34.3570232 146.638514 34.7421911 147.513288 34.1185859 148.143124 33.5316635 148.475538 33.1464956 148.615502 33.2565436 149.087879 32.9814237 149.997644 32.7796691"></polygon>
                                    <polygon id="DE" stroke="#FFFFFF" fill="#759DE0" points="142.33463 41.3634102 142.439603 40.9782423 142.439603 40.7581464 142.212162 40.739805 141.844757 41.0332663 141.582325 41.3083862 141.844757 42.0787219 142.247153 43.1241776 142.614557 44.9032863 142.894485 46.0587899 143.769258 46.0221073 144.836481 45.8020113 144.434086 44.4447531 144.259131 44.5364598 143.629294 44.0962679 143.314376 43.2342255 142.981962 42.5739378 142.579566 42.3905245 142.212162 41.7302367"></polygon>
                                    <polygon id="GA" stroke="#FFFFFF" fill="#759DE0" points="119.100652 64.7669436 118.26087 64.9136743 116.791251 65.1154289 115.286641 65.2805008 115.286641 65.68401 115.321632 66.0691779 115.426605 66.692783 116.021451 68.1417478 116.441342 69.9575392 116.703774 71.0763602 116.983701 71.9567439 117.246133 73.2406368 117.613538 74.3961404 118.06842 75.0197455 118.155897 75.6433506 118.488311 75.7900813 118.523302 76.1752491 118.208384 77.0556328 118.120906 77.6425553 118.085915 77.9910405 118.365843 78.7980589 118.418329 79.7701493 118.278366 80.2103411 118.383338 80.3570717 118.64577 80.5038023 118.750743 81.1274075 119.205625 81.8427192 119.468057 82.1178391 120.850199 82.1545218 122.739709 82.0444738 126.501234 81.8060366 127.445989 81.6776473 128.250781 81.6776473 128.285772 82.2095458 128.740654 82.3562764 128.79314 81.549258 128.513213 80.7238983 128.705663 80.430437 129.7204 80.5771677 130.595173 80.6321916 130.455209 79.476688 130.857605 77.6425553 131.120037 76.8722196 131.03256 76.3953451 131.60991 75.2581828 131.522433 75.0014042 131.190019 75.1297935 130.735137 74.8913562 130.630164 74.5061884 130.402723 73.8459006 130.000327 73.4607327 129.545445 73.3506848 129.265518 72.470301 128.758149 71.3147974 128.02334 70.9663122 127.655935 70.617827 127.428494 70.1409525 127.061089 69.7924673 126.658693 69.55403 126.256298 69.0221315 125.713938 68.600281 124.926642 68.2701371 124.839165 67.9950172 124.419274 67.4631187 124.331796 67.1879988 123.736951 66.2892738 123.142105 66.3259564 122.424791 65.7757166 122.19735 65.5372794 122.144863 65.2071355 122.284827 64.8586503 122.704718 64.6385543 122.512268 64.4184584 122.529764 64.3634344 121.515027 64.5468477 120.290344 64.6935783"></polygon>
                                    <polygon id="IA" stroke="#FFFFFF" fill="#759DE0" points="97.5812304 36.0811079 97.6162213 36.4295932 98.018617 36.6313478 98.2110671 36.869785 98.2635535 37.1082223 98.9458766 37.6951447 99.0683449 38.0986539 98.9283812 38.6305524 98.6659492 39.2724989 98.5259855 39.7677147 98.1410852 40.0611759 97.8436623 40.1712239 96.8814118 40.4463438 96.7589435 40.8681943 96.6189798 41.2900449 96.7239526 41.5468234 97.0213755 41.858626 97.0213755 42.5372551 96.6364753 42.8307163 96.5489979 43.1058363 96.5489979 43.5643694 96.286566 43.6560761 95.989143 43.9128546 95.9016657 44.1879746 95.989143 44.4997771 95.7442065 44.719873 95.3418108 44.1879746 95.0793789 43.7111 93.6272553 43.8578307 91.8427178 43.9678786 87.4688516 44.0962679 85.1944411 44.1329506 83.5498674 44.1696332 83.3224264 44.1879746 83.0250035 43.3626148 82.9900125 42.1520872 82.7100851 41.4000928 82.5876168 40.4280025 82.1852211 39.7493734 82.0277619 38.8689897 81.5553844 37.4933901 81.3629343 36.5029585 81.1179978 36.0994493 80.8380703 35.6042334 81.1529887 34.8155564 81.3979252 33.7701007 80.9255476 33.3849329 80.8380703 32.889717 80.9955295 32.4311838 81.2929524 32.4311838 83.3049309 32.4311838 91.9826816 32.3027946 95.4642791 32.1744053 95.7966929 32.6696211 96.1116113 33.1464956 96.1990886 33.2932262 95.8841703 33.7884421 95.9716476 34.5587778 96.4090342 35.2740896 96.9338982 35.6042334 97.3537893 35.6409161"></polygon>
                                    <path d="M26.8120743,32.3027946 C22.8580992,31.5141175 24.3452137,31.7892374 23.1205312,31.4957762 L23.8903316,28.2860439 L24.6426366,25.039629 L24.8875731,24.2692933 L25.3249598,23.1871549 L25.0975187,22.7653044 L24.6601321,22.7836458 L24.5201684,22.6002325 L24.6076457,22.3984779 L24.6601321,21.8298967 L25.447428,20.8211237 L25.7623464,20.7294171 L25.9547965,20.5276625 L26.0597693,19.94074 L26.2172285,19.8123508 L26.8995516,18.7485538 L27.5818747,17.9598767 L27.6168657,17.2629063 L27.0220199,16.7860318 L26.7945788,15.9790134 L26.8645607,14.1999046 L27.5118929,11.1735857 L28.2991888,7.3585896 L28.9640165,4.88251044 L29.1039802,4.18554 L31.3783907,4.64407318 L30.6435811,8.58745852 L31.1509496,9.99974072 L30.9584995,10.8434418 L31.3084088,11.6871428 L31.8682637,11.9989454 L32.6555596,13.7963954 L33.1279372,14.4933659 L33.23291,14.6951205 L33.8277558,14.8968751 L33.9152331,15.3554082 L32.708046,18.4367512 L32.7605324,19.042015 L33.23291,19.5739135 L33.5653238,19.6656201 L34.4051061,19.0053324 L34.475088,18.9136257 L34.5100789,19.0603563 L34.5625653,19.8123508 L35.0174474,22.178382 L35.6297887,22.6735978 L35.6997705,22.8203284 L36.0671753,23.2605203 L35.9272116,23.7740774 L36.0496798,24.4710479 L36.3820937,24.6361198 L36.7494984,24.3426586 L37.2043805,24.2509519 L37.7992263,24.5444132 L38.236613,24.4343652 L38.9014406,24.3976825 L39.6012592,24.6911438 L40.0736368,24.6361198 L40.231096,24.2142693 L40.6684826,23.920808 L40.7909509,24.2326106 L40.8959236,24.6361198 L41.2983193,25.094653 L40.6334917,29.4965715 L39.741223,34.8155564 L39.0064134,34.7605324 L37.5717853,34.4854125 L35.8572297,34.1552686 L33.722783,33.7150767 L31.5358498,33.2565436 L30.0487353,32.9263997 L28.4216571,32.6145971 L26.8120743,32.3027946 Z" id="ID" stroke="#FFFFFF" fill="#759DE0"></path>
                                    <polygon id="IL" stroke="#FFFFFF" fill="#759DE0" points="106.538908 54.4040938 106.538908 53.743806 106.591395 52.845081 107.011286 52.2764998 107.326204 51.5795294 107.781086 50.8642176 107.711105 49.8921273 107.361195 49.2501809 107.3437 48.6449171 107.466168 47.6728267 107.326204 46.3522512 107.133754 43.4543215 106.906313 40.7031224 106.748854 38.5755284 106.696368 38.4104565 106.556404 37.933582 106.328963 37.2549529 106.049035 36.924809 105.786603 36.4479345 105.751613 35.4391615 104.019561 35.6775987 99.260795 35.9894013 97.7386896 35.916036 97.7736805 36.3562279 98.1760762 36.4846171 98.3335354 36.6863717 98.4210127 37.0165156 99.1033358 37.6401208 99.2258041 38.0619713 99.1033358 38.6855764 98.7884175 39.3642055 98.6659492 39.8227387 98.2635535 40.1528826 97.9486351 40.2812719 97.0213755 40.5380504 96.8989072 40.8681943 96.776439 41.2900449 96.8989072 41.5468234 97.2138256 41.8402847 97.1788347 42.5922791 96.8639163 42.8857403 96.741448 43.1792016 96.741448 43.6744174 96.4265297 43.766124 96.1466022 43.9678786 96.1116113 44.2246572 96.1466022 44.6098251 95.8491793 44.8482623 95.6742247 45.3618195 95.761702 46.0404486 96.1640977 47.3793655 97.4412666 48.754965 98.4035172 49.4335941 98.3685263 50.2222712 98.5259855 50.4790498 99.6456952 50.5707564 100.118073 50.827535 99.9956045 51.5061641 99.5932088 52.5883024 99.4707406 53.1752249 99.8731363 53.8905366 100.992846 54.862627 101.797637 54.9910163 102.165042 55.9080826 102.532447 56.4950051 102.374988 57.0452449 102.654915 57.7972393 102.969834 58.1824072 103.302247 58.0356766 103.424716 57.6321674 103.774625 57.3753888 104.33448 57.1736342 104.876839 57.3937301 105.384208 57.5954847 105.524171 57.5588021 105.506676 57.3387061 105.314226 56.825149 105.384208 56.3849571 105.786603 56.0914959 106.206495 55.9080826 106.41644 55.8347173 106.311467 55.5962801 106.171504 55.1927709 106.381449 54.9543336"></polygon>
                                    <polygon id="IN" stroke="#FFFFFF" fill="#759DE0" points="106.643881 54.2940458 106.661377 53.7621473 106.748854 52.9367876 107.15125 52.4048891 107.466168 51.6895774 107.92105 50.9192416 107.833573 49.8554447 107.518655 49.3602288 107.466168 48.7733063 107.606132 47.7645334 107.518655 46.4806405 107.291213 43.5460281 107.063772 40.7214637 106.888818 38.5755284 107.431177 38.7406004 107.693609 38.9240137 107.886059 38.8689897 108.253464 38.5205045 108.743337 38.2270432 109.635606 38.1903606 113.484608 37.76851 114.464354 37.6768034 114.726786 40.6114158 115.479091 47.3610242 115.584064 48.4248211 115.496587 48.809989 115.706532 49.1401329 115.724028 49.3969115 115.286641 49.6903727 114.6743 49.9838339 114.114445 50.0938819 114.009472 50.9926069 113.204681 51.5978707 112.714808 52.3315238 112.767294 52.7717157 112.662321 53.0468356 112.084971 53.0468356 111.805043 52.7533743 111.367657 52.9918116 110.895279 53.2669315 110.93027 53.8355126 110.720325 53.8905366 110.632847 53.7071234 110.247947 53.4320034 109.670597 53.6704407 109.390669 54.2206805 109.145733 54.0739499 108.883301 53.7804887 108.096005 53.8721953 107.116259 54.0556086"></polygon>
                                    <polygon id="KS" stroke="#FFFFFF" fill="#759DE0" points="86.5240965 58.732647 84.3196679 58.7693297 76.2542585 58.677623 68.4512811 58.2924551 64.1473967 58.0540179 64.8647107 46.1871792 68.6787221 46.3339098 75.7643855 46.5906884 83.4798855 46.6823951 84.3721543 46.6823951 84.9320091 47.2693175 85.4218822 47.3060002 85.5793413 47.5077548 85.5793413 47.8745813 85.264423 48.1680426 85.1769457 48.6449171 85.5618459 49.3052048 85.9992325 49.873786 86.4366191 50.2406125 86.6290693 52.2948412"></polygon>
                                    <polygon id="KY" stroke="#FFFFFF" fill="#759DE0" points="124.734192 53.7254647 124.331796 54.2206805 123.596987 54.8809683 122.844682 55.9631066 122.529764 56.2932505 122.529764 56.6784184 121.84744 57.0635862 120.850199 57.6871914 120.237858 57.7605567 111.157711 58.6592817 108.393428 58.9894256 107.588636 59.0811322 106.906313 59.0811322 106.871322 59.851468 105.436694 59.8698093 104.212012 59.9798572 102.392483 60.0165399 102.724897 59.9798572 103.109797 59.6497134 103.477202 59.4479588 103.512193 58.8610363 103.669652 58.5308924 103.389725 58.0723592 103.529688 57.723874 103.932084 57.3937301 104.299489 57.2836822 104.771866 57.5221194 105.401703 57.7605567 105.594153 57.7055327 105.629144 57.2836822 105.401703 56.8434903 105.45419 56.4216398 105.786603 56.1465199 106.241486 56.0364719 106.521413 55.9264239 106.381449 55.5962801 106.276476 55.2477948 106.468927 55.1010642 106.661377 54.4958004 107.186241 54.1839979 108.200978 54.0005846 108.830814 53.908878 109.093246 54.2573632 109.408165 54.4040938 109.723083 53.8171713 110.230452 53.5420514 110.562865 53.8355126 110.702829 54.0372672 111.070234 53.9455606 111.035243 53.3219555 111.542611 53.0284943 111.735062 52.8817636 111.927512 53.1752249 112.749799 53.1752249 112.889762 52.790057 112.837276 52.3682065 113.344644 51.7079187 114.166931 50.9926069 114.254409 50.1672472 114.726786 50.1122232 115.409109 49.7820793 115.881487 49.4335941 115.829 49.0851089 115.566568 48.809989 115.671541 48.4064798 116.388855 48.3697971 116.808746 48.2230665 117.316115 48.5165278 117.596042 49.3235462 118.610779 49.3785701 118.925698 49.708714 119.293102 49.7453967 119.712994 49.4702768 120.255353 49.5619834 120.482794 49.8371033 120.955172 49.3602288 121.27009 49.1217916 121.550017 49.1217916 121.65499 49.6170074 121.969909 49.8004207 122.3898 50.2039299 122.424791 51.2127029 122.564754 51.5061641 123.019637 51.781284 123.124609 52.2031345 123.631978 52.8817636 124.08686 53.3769795"></polygon>
                                    <path d="M155.911111,31.0005603 L156.296011,30.872171 L156.383488,30.5603685 L156.558443,30.5787098 L156.733398,31.0005603 L156.505957,31.092267 L155.823633,31.1106083 L155.911111,31.0005603 Z M154.266537,31.1472909 L154.668933,30.6704164 L154.94886,30.6704164 L155.263779,30.9455363 L154.843887,31.1289496 L154.458987,31.3123629 L154.266537,31.1472909 Z M148.178115,27.112199 L151.239822,26.3418632 L151.642217,26.2318153 L152.009622,25.6448928 L152.656954,25.3330902 L153.164323,26.1401086 L152.744432,27.0938576 L152.691945,27.3689775 L153.024359,27.845852 L153.216809,27.6991214 L153.531728,27.6991214 L153.934123,28.1759959 L154.616446,29.2764756 L155.246283,29.3681822 L155.648679,29.1847689 L155.963597,28.854625 L155.823633,28.3594092 L155.456229,28.065948 L155.193797,28.2126786 L155.018842,27.9742413 L155.106319,27.8825347 L155.473724,27.845852 L155.788643,27.9925827 L156.121056,28.4327745 L156.296011,28.964673 L156.348497,29.4048649 L155.613688,29.6799848 L154.931365,30.02847 L154.249042,30.8538297 L153.916628,31.1289496 L153.916628,30.9455363 L154.336519,30.6704164 L154.423996,30.3402725 L154.284033,29.7716914 L153.776664,30.0468113 L153.6367,30.3219312 L153.724178,30.7437817 L153.356773,30.927195 L152.884395,30.1018353 L152.28955,29.2948169 L151.922145,28.964673 L150.78494,29.3131582 L149.892671,29.5149128 L146.078659,30.3952965 L146.008678,29.4965715 L146.11365,27.5523908 L147.023415,27.3873189 L148.178115,27.112199 Z" id="MA" stroke="#FFFFFF" fill="#759DE0"></path>
                                    <path d="M144.888968,45.9304006 L143.821744,46.1688379 L142.807007,46.2055205 L142.492089,44.9032863 L142.124684,43.1241776 L141.722289,42.0787219 L141.494848,41.2717035 L140.182688,41.5651648 L137.575863,42.0787219 L131.015064,43.4726628 L131.207514,44.3897292 L131.382469,45.4351848 L131.434955,45.3801608 L131.80236,44.939969 L132.204756,44.4630945 L132.624647,44.3530465 L132.887079,44.0779266 L133.201997,43.6010521 L133.429438,43.7111 L133.936807,43.6560761 L134.391689,43.2709082 L134.741598,42.9957883 L135.056516,42.9040817 L135.336444,43.1058363 L135.843812,43.3809562 L136.176226,43.7111 L136.386172,43.98622 L137.103486,44.2980225 L137.103486,44.829921 L138.065736,45.0683583 L138.258187,45.1600649 L138.503123,44.7932384 L139.010492,45.1600649 L138.783051,45.6185981 L138.643087,46.3522512 L138.328168,46.8291257 L138.328168,47.2142935 L138.433141,47.5444374 L139.32541,47.801216 L140.077715,47.7828747 L140.620074,47.966288 L140.987479,48.0213119 L141.162434,47.6361441 L140.900002,47.2509762 L140.900002,46.9208323 L140.480111,46.5356644 L140.112706,45.5268914 L140.340147,44.5548011 L140.305156,44.1696332 L140.077715,43.931196 C140.077715,43.931196 140.340147,43.6377347 140.340147,43.5093455 C140.340147,43.3992975 140.427624,43.1241776 140.427624,43.1241776 L140.760038,42.8857403 L141.092452,42.5922791 L141.179929,42.7756924 L140.917497,43.0691536 L140.690056,43.7477827 L140.742543,43.9495373 L141.057461,44.0045613 L141.144938,45.0133343 L140.777534,45.1967475 L140.83002,45.8570353 L140.917497,45.8203527 L141.109947,45.4718675 L141.389875,45.8020113 L141.109947,46.0404486 L141.057461,46.6640537 L141.512343,47.2876588 L142.194666,47.3793655 L142.474594,47.2326349 L143.034449,48.0029706 L143.279385,48.0946772 L144.451581,47.5811201 L144.801491,46.847467 L144.888968,45.9304006 Z M141.967225,47.5811201 L142.159675,48.0396533 L142.194666,48.3697971 L142.387116,48.7182824 C142.387116,48.7182824 142.544576,48.5532104 142.544576,48.4981864 C142.544576,48.4431625 142.422107,47.9296053 142.422107,47.9296053 L142.299639,47.5077548 L141.967225,47.5811201 Z" id="MD" stroke="#FFFFFF" fill="#759DE0"></path>
                                    <path d="M159.970059,13.2828383 L160.302473,13.6680061 L160.704868,14.3466353 L160.704868,14.6951205 L160.337463,15.5571628 L160.00505,15.6672108 L159.410204,16.235792 L158.570421,17.2445649 L158.34298,17.2445649 C158.238008,17.2445649 158.168026,16.8593971 158.168026,16.8593971 L157.853107,16.8960797 L157.678153,17.1711996 L157.258262,17.4463195 L157.083307,17.7214395 L157.363234,17.9965594 L157.275757,18.1066073 L157.18828,18.6018232 L156.855866,18.5651405 L156.855866,18.2716793 L156.80338,18.033242 L156.540948,18.088266 L156.226029,17.5013435 L155.858624,17.7397808 L156.086065,18.0149007 L156.138552,18.2166553 L155.998588,18.4550925 L156.051075,19.0236737 L156.086065,19.3171349 L155.806138,19.7940094 L155.29877,19.8857161 L155.246283,20.4176145 L154.319023,20.9861957 L154.091582,21.0779023 L153.811655,20.8027824 L153.269296,21.4630702 L153.44425,22.0499927 L153.181818,22.2884299 L153.146827,23.0954483 L152.954377,24.2509519 L152.516991,24.030856 L152.429513,23.4622749 L151.74719,23.2605203 L151.694704,22.7653044 L150.417535,18.4734339 L149.682725,15.9790134 L149.927662,15.960672 L150.190094,16.0340374 L150.190094,15.5571628 L150.330057,14.5483899 L150.78494,13.6863475 L151.047372,12.9526944 L150.714958,12.5125025 L150.714958,11.4120229 L150.854921,11.2286096 L150.994885,10.7333938 L150.959894,10.4582739 L150.924903,9.57789019 L151.239822,8.69750649 L151.74719,7.06512837 L152.114595,6.29479263 L152.342036,6.29479263 L152.569477,6.33147528 L152.569477,6.53322988 L152.796918,6.95508041 L153.269296,7.06512837 L153.409259,6.91839775 L153.409259,6.73498448 L154.109078,6.20308599 L154.423996,5.8729421 L154.686428,5.90962476 L155.736156,6.34981661 L156.06857,6.53322988 L157.660657,12.0172867 L158.710385,12.0172867 L158.850349,12.3657719 L158.88534,13.2461556 L159.392708,13.6680061 L159.532672,13.6680061 L159.567663,13.5762995 L159.480186,13.3745449 L159.970059,13.2828383 Z M156.313506,18.8219191 L156.575938,18.5467992 L156.820875,18.7485538 L156.925848,19.1887456 L156.628425,19.3538176 L156.313506,18.8219191 Z M157.485703,17.7397808 L157.800621,18.088266 C157.800621,18.088266 158.028062,18.1066073 158.028062,18.0515833 C158.028062,17.9965594 158.063053,17.6847568 158.063053,17.6847568 L158.220512,17.5380262 L158.080548,17.2078823 L157.730639,17.3362716 L157.485703,17.7397808 Z" id="ME" stroke="#FFFFFF" fill="#759DE0"></path>
                                    <path d="M100.20555,14.163222 L100.520468,13.7780541 L100.905369,13.6313235 L101.850124,12.9160117 L102.25252,12.8059638 L102.339997,12.8976704 L101.447728,13.8330781 L100.870378,14.1815633 L100.502973,14.3466353 L100.20555,14.163222 Z M115.286641,20.050788 L115.391614,20.5093212 L115.951469,20.5460038 L116.17891,20.3259079 C116.17891,20.3259079 116.161414,20.050788 116.108928,20.0324467 C116.056441,19.995764 115.829,19.6839615 115.829,19.6839615 L115.4441,19.7206441 L115.164173,19.7573268 L115.111686,19.9590814 L115.286641,20.050788 Z M120.552776,31.6058241 L119.992921,30.1018353 L119.590525,28.4327745 L119.170634,27.845852 L118.715752,27.5157082 L118.435825,27.7174628 L117.753502,28.0476066 L117.421088,28.964673 L116.94871,29.6433021 L116.75626,29.7533501 L116.493828,29.6433021 C116.493828,29.6433021 116.038946,29.3681822 116.073937,29.2581342 C116.108928,29.1480863 116.161414,28.3410679 116.161414,28.3410679 L116.75626,28.1026306 L116.896224,27.4790255 L117.001197,27.002151 L117.421088,26.7086898 L117.368601,24.874557 L117.088674,24.4527065 L116.861233,24.3059759 L116.721269,23.920808 L116.861233,23.7740774 L117.14116,23.8291014 L117.176151,23.5356402 L116.721269,23.132131 L116.493828,22.6552565 L116.038946,22.6552565 L115.25165,22.3801366 L114.289399,21.7565314 L113.817022,21.7565314 L113.712049,21.8665794 L113.537094,21.7748728 L112.994735,21.3530222 L112.487367,21.6831661 L111.979998,22.1050166 L112.032484,22.7653044 L112.207439,22.8203284 L112.574844,22.912035 L112.662321,23.0587657 L112.207439,23.2054963 L111.752557,23.2605203 L111.490125,23.5906641 L111.437639,23.975832 L111.490125,24.2692933 L111.542611,25.2780662 L110.912775,25.6632341 L110.807802,25.6265515 L110.807802,24.8562157 L111.035243,24.4160239 L111.140216,23.975832 L111.000252,23.8291014 L110.667838,23.975832 L110.492884,24.7461678 L110.020506,24.9479224 L109.705588,25.2964076 L109.670597,25.4798208 L109.775569,25.6265515 L109.670597,26.103426 L109.268201,26.1951326 L109.268201,26.3968872 L109.408165,26.8370791 L109.215715,27.9559 L108.935787,28.6895531 L109.04076,29.5515955 L109.128237,29.7533501 L108.988274,30.1935419 L108.935787,30.3402725 L108.883301,30.8354884 L109.513138,31.935968 L110.020506,33.1281543 L110.282938,34.008538 L110.142974,34.8705804 L109.96802,35.97106 L109.548128,36.924809 L109.495642,37.4200248 L108.918292,37.988606 L109.688092,37.9519233 L113.432122,37.5300728 L114.709291,37.3466595 L114.726786,37.6584621 L115.933973,37.4383662 L117.736006,37.1632463 L118.418329,37.0715396 L118.435825,36.9614917 L118.470816,36.6863717 L118.83822,36.0077426 L119.18813,35.6959401 L119.153139,34.7605324 L119.433066,34.4670712 L119.625516,34.4120472 L119.660507,33.7517594 L119.922939,33.2015196 L120.115389,33.3115675 L120.15038,33.4216155 L120.290344,33.4582982 L120.622758,33.2748849 L120.552776,31.6058241 Z M97.7386896,19.5005482 L97.8611578,19.3905002 L98.3335354,19.2437696 L98.9633721,18.8219191 L98.9633721,18.6385058 L99.0683449,18.5284578 L100.118073,18.3450446 L100.537964,17.9965594 L101.307764,17.6113915 L101.342755,17.3729542 L101.675169,16.8410557 L101.990088,16.6943251 L102.217529,16.3641812 L102.619924,15.9423307 L103.389725,15.5021389 L104.212012,15.4104322 L104.404462,15.6121868 L104.351975,15.7956001 L103.704643,15.9790134 L103.442211,16.5475945 L103.039815,16.6943251 L102.952338,17.134517 L102.532447,17.7214395 L102.479961,18.198314 L102.619924,18.2900206 L102.794879,18.088266 L103.424716,17.5563675 L103.652157,17.7948048 L104.054552,17.7948048 L104.614407,17.978218 L104.876839,18.1799726 L105.139271,18.7485538 L105.611649,19.2437696 L106.293972,19.207087 L106.556404,19.0236737 L106.836331,19.2621109 L107.116259,19.3538176 L107.3437,19.207087 L107.53615,19.207087 L107.816077,19.0236737 L108.515896,18.3633859 L109.110742,18.1616313 L110.265443,18.1066073 L111.052738,17.7581221 L111.507621,17.5196849 L111.770053,17.5563675 L111.770053,18.6018232 L111.85753,18.6568471 L112.364898,18.8035778 L112.697312,18.7118711 L113.764536,18.4184099 L113.956986,18.2166553 L114.219418,18.3083619 L114.219418,19.5922548 L114.779272,20.160836 L115.006714,20.2708839 L115.234155,20.4542972 L115.006714,20.5093212 L114.86675,20.4542972 L114.219418,20.3625906 L113.852013,20.4726385 L113.449617,20.4359559 L112.889762,20.7110758 L112.574844,20.7110758 L111.560107,20.4726385 L110.650343,20.5093212 L110.317929,20.9861957 L109.093246,21.0962437 L108.673355,21.2429743 L108.480905,21.8115554 L108.253464,22.01331 L108.165987,21.9766274 L107.903555,21.6831661 L107.116259,22.123358 L107.011286,22.123358 L106.818836,21.8298967 L106.678872,21.8665794 L106.346458,22.6735978 L106.171504,23.4072509 L105.611649,24.6911438 L105.401703,24.5077305 L105.156767,24.3243172 L104.824353,22.4351605 L104.212012,22.178382 L103.844607,21.7565314 L101.727656,21.2613156 L101.220287,21.0779023 L99.785659,20.6743931 L98.4035172,20.4726385 L97.7386896,19.5005482 Z" id="MI" stroke="#FFFFFF" fill="#759DE0"></path>
                                    <polygon id="MN" stroke="#FFFFFF" fill="#759DE0" points="81.013025 22.6735978 80.9255476 21.114585 80.6106293 19.7756681 80.2957109 17.2995889 80.2082336 15.5021389 79.8933152 14.8785337 79.6133878 13.9614674 79.6133878 12.0723107 79.735856 11.3569989 79.4209377 10.3482259 84.6870726 10.3482259 84.739559 8.8442371 84.8445318 8.80755445 85.2469275 8.89926109 85.5793413 9.0459917 85.7193051 10.0547647 85.981737 11.1735857 86.2616645 11.4670469 87.1014468 11.4670469 87.1539332 11.7421668 88.2561475 11.7971908 88.2561475 12.1823586 89.0959298 12.1823586 89.1484162 11.9439214 89.3408663 11.7421668 89.743262 11.6321188 89.9707031 11.8155321 90.4780716 11.8155321 91.1603947 12.2924066 92.0876543 12.7325985 92.5075455 12.8243051 92.5950228 12.6408918 92.8574548 12.5491852 92.9449321 13.0810837 93.3998142 13.3195209 93.4872915 13.2278143 93.7147326 13.264497 93.7147326 13.6496648 94.1696147 13.8330781 94.7119741 13.8330781 94.9919015 13.6863475 95.5517564 13.099425 96.0066385 13.0077184 96.1466022 13.3378623 96.2340796 13.5762995 96.4090342 13.5762995 96.5839889 13.4295689 98.1410852 13.3745449 98.4560036 13.9431261 98.5609764 13.9431261 98.6834447 13.7413715 99.4532451 13.6680061 99.3482723 14.0898567 98.6659492 14.4200006 97.0563664 15.171995 96.2165841 15.5388215 95.6742247 16.015696 95.2543335 16.6759838 94.8519378 17.3912956 94.5370194 17.5380262 93.7497235 18.4550925 93.5222825 18.4917752 92.8574548 19.0236737 92.3675818 19.6105962 92.3325909 20.160836 92.3675818 21.5914595 92.0876543 21.8849207 91.1778902 22.5818912 90.8629718 23.6273468 91.3003584 24.2876346 91.3878357 24.7461678 91.1953856 25.2964076 91.1603947 25.9750367 91.247872 27.2772709 91.8427178 28.0292653 92.3675818 28.0292653 92.8049684 28.4511158 93.3648233 28.7078944 94.0121555 29.6249608 95.2543335 30.5420271 95.5692519 30.927195 95.6042428 31.9726507 92.000177 32.10104 81.4679071 32.1927466 81.4154207 25.6448928 81.3279433 25.094653 80.6106293 24.4710479 80.4181792 24.140904 80.4181792 23.8474427 80.7855839 23.5539815 81.0305204 23.2972029"></polygon>
                                    <polygon id="MO" stroke="#FFFFFF" fill="#759DE0" points="95.6917201 44.8666037 95.2543335 44.2980225 95.0618834 43.876172 93.6972371 44.0045613 91.9826816 44.0962679 87.5388334 44.2613399 85.1769457 44.2980225 83.7948039 44.3163638 83.3924082 44.3347052 83.6198493 44.7932384 83.5848583 45.2150889 84.022245 45.9304006 84.5646044 46.6823951 85.1069638 47.1776109 85.5093595 47.2142935 85.754296 47.3793655 85.754296 47.9296053 85.4393776 48.2230665 85.3519003 48.6449171 85.7193051 49.2685222 86.1566917 49.818762 86.5940783 50.1489059 86.8390148 52.2948412 86.7165466 58.7693297 86.7515375 59.631372 86.8390148 60.6218037 90.9329537 60.6034624 94.9919015 60.4750731 98.6309583 60.3283425 100.677928 60.2916598 101.062828 60.9152649 100.94036 61.5205287 100.398 61.9607206 100.293027 62.2908645 101.237783 62.3825711 101.920106 62.2541818 102.217529 61.2454088 102.339997 60.1632705 102.742393 59.796444 103.039815 59.5213241 103.40722 59.3379108 103.424716 58.8060123 103.529688 58.4942097 103.354734 58.1824072 102.882356 58.2007485 102.497456 57.723874 102.25252 56.9535383 102.392483 56.4950051 102.060069 55.8714 101.745151 55.0276989 100.905369 54.8809683 99.6806862 53.853854 99.3832633 53.1018596 99.523227 52.5149371 99.8906318 51.3961161 99.9781091 50.8642176 99.6456952 50.6808044 98.4385082 50.5340738 98.2635535 50.2222712 98.246058 49.4519355 97.2838075 48.8283303 96.0591249 47.3977068 95.6567292 46.0587899 95.6217383 45.2884542"></polygon>
                                    <polygon id="MS" stroke="#FFFFFF" fill="#759DE0" points="107.7286 84.7589902 107.676114 84.9974275 106.76635 84.9974275 106.503918 84.8506969 106.136513 84.7956729 104.946821 85.1441581 104.631903 84.9974275 104.177021 85.7677632 103.984571 85.9144939 103.79212 85.4559607 103.59967 84.7406489 103.004825 84.1537265 103.197275 82.7781269 103.074806 82.613055 102.759888 82.6497376 101.32526 82.7781269 97.0913573 82.9065162 97.00388 82.613055 97.1263483 81.1457488 97.7211941 80.0085865 98.6484537 78.3395257 98.4909945 77.9543579 98.6834447 77.9543579 98.8059129 77.3674354 98.4035172 77.0372915 98.4385082 76.7071476 98.0711034 75.8634466 98.018617 74.8913562 98.2635535 74.3961404 98.1935716 73.6074633 97.9486351 73.0572235 98.1935716 72.8004449 97.9486351 72.4152771 98.0361125 72.0851332 98.1935716 70.9479709 98.7184356 70.4527551 98.5959673 70.0675872 99.2432995 69.0954968 99.7156771 68.9304249 99.7156771 68.4718917 99.5932088 68.2151131 100.065586 67.2430228 100.537964 67.0412682 100.555459 66.4176631 102.077565 66.3993218 106.293972 66.0508365 107.098763 66.0141539 107.098763 67.1879988 107.133754 70.2510005 106.993791 75.9368119 106.9588 78.522939 107.431177 81.9711085"></polygon>
                                    <path d="M60.8582493,21.5364355 L60.963222,19.4822069 L61.3656177,14.9335577 C61.4530951,14.0164914 61.5580679,13.3745449 61.6105542,12.1089933 L61.7680134,9.43115957 L56.3969057,8.91760241 L51.2882299,8.27565596 L46.1620586,7.54200288 L40.5110234,6.56991254 L37.2918578,5.94630741 L31.5708408,4.68075584 L30.7835449,8.58745852 L31.3783907,9.96305806 L31.1334542,10.8067591 L31.4483725,11.6504602 L32.0082274,11.9072387 L32.8130188,13.8881021 L33.2853964,14.4750245 L33.3728737,14.6767791 L33.9677195,14.8785337 L34.0551968,15.2637016 L32.8130188,18.4917752 L32.8130188,18.9503084 L33.2504054,19.5372308 L33.4078646,19.5372308 L34.2476469,18.986991 L34.3701152,18.7852364 L34.6500426,18.9136257 L34.6150517,19.8857161 L35.0874293,22.1967233 L35.6122932,22.6552565 L35.7697524,22.7836458 L36.0846708,23.2054963 L35.9971934,23.8291014 L36.1196617,24.4527065 L36.3121118,24.6177785 L36.7145075,24.1959279 L37.1868851,24.1959279 L37.7467399,24.4893892 L38.1841266,24.3243172 L38.9014406,24.3243172 L39.5487728,24.6177785 L40.0211504,24.5260718 L40.1086277,23.975832 L40.6334917,23.8474427 L40.8784282,24.1042213 L40.9659055,24.6911438 L41.2808239,24.9479224 L41.5432558,22.8203284 L45.1648171,23.3705682 L50.0985383,24.1042213 L53.0027854,24.4527065 L58.4963615,25.094653 L60.4208626,25.3697729 L60.6133127,22.5452085 L60.8582493,21.5364355 Z" id="MT" stroke="#FFFFFF" fill="#759DE0"></path>
                                    <path d="M144.03169,53.853854 L144.329113,54.7158963 L144.95895,55.9080826 L145.378841,56.3482745 L145.483814,56.770125 L145.063922,56.8068076 L145.203886,56.9168556 L145.1514,57.6871914 L144.696518,57.9256286 L144.591545,58.3107965 L144.364104,58.842695 L143.716772,59.1361562 L143.296881,59.0811322 L143.034449,59.0444496 L142.754521,58.8060123 L142.807007,59.0444496 L142.807007,59.2278628 L143.139421,59.2278628 L143.279385,59.4663001 L142.946971,60.6218037 L143.681781,60.6218037 L143.786754,60.9152649 L144.189149,60.4934144 L144.41659,60.4017078 L144.084176,61.0619955 L143.541817,61.9423793 L143.314376,61.9423793 L143.121926,61.8506726 L142.649548,61.9607206 L141.739784,62.4009124 L140.602579,63.3730028 L140.007733,64.2350451 L139.675319,65.4272314 L139.587842,65.8674233 L138.765555,65.9591299 L137.803304,66.1975672 L136.071253,64.6935783 L133.866825,63.2996375 L133.359456,63.1529068 L131.155028,63.4280268 L130.402723,63.5747574 L130.122795,62.9878349 L129.597931,62.602667 L126.71118,62.6943737 L125.434011,62.8411043 L123.841923,63.666464 L122.7747,64.1433385 L122.494773,64.1983625 L121.480036,64.3817758 L120.255353,64.5285064 L119.065661,64.620213 L119.153139,63.8682186 L119.468057,63.5930987 L119.940435,63.4830507 L120.045407,62.8044216 L120.780217,62.3092058 L121.46254,62.0340859 L122.19735,61.3737981 L122.96715,60.9886302 L123.072123,60.4200491 L123.754446,59.7047373 L123.859419,59.6680547 C123.859419,59.6680547 123.859419,59.8698093 123.999383,59.8698093 C124.139346,59.8698093 124.331796,59.9248333 124.331796,59.9248333 L124.734192,59.2645455 L125.101597,59.1544975 L125.503993,59.2095215 L125.78392,58.5492337 L126.291288,58.0723592 L126.378766,57.6871914 L126.378766,56.9535383 L127.166062,57.0819276 L128.40824,56.8434903 L131.172523,56.4950051 L134.164248,56.0181306 L137.645845,55.2844775 L141.092452,54.5141418 L143.086935,54.0005846 L144.03169,53.853854 Z M144.714013,59.9064919 L145.168895,59.4479588 L145.72875,58.9710843 L145.991182,58.8610363 L146.026173,58.4942097 L145.9212,57.3753888 L145.658768,56.9535383 L145.553795,56.605053 L145.676264,56.5683704 L146.148641,57.5771434 L146.218623,58.3841618 L146.183632,59.0077669 L145.588786,59.2828868 L145.098913,59.7230787 L144.906463,59.9431746 L144.714013,59.9064919 Z" id="NC" stroke="#FFFFFF" fill="#759DE0"></path>
                                    <polygon id="ND" stroke="#FFFFFF" fill="#759DE0" points="80.9080522 22.5268672 80.8380703 21.1512676 80.488161 19.8123508 80.1732427 17.3179303 80.0857653 15.5204802 79.735856 14.9518991 79.4559286 13.9614674 79.4559286 12.0723107 79.5783968 11.3569989 79.2109921 10.3482259 74.24228 10.238178 70.9881235 10.12813 66.3518253 9.88969275 61.9954545 9.54120754 61.7680134 12.145676 61.5230769 14.9152164 61.1206812 19.4822069 61.0332039 21.4997528 70.970628 22.1967233"></polygon>
                                    <polyline id="NE" stroke="#FFFFFF" fill="#759DE0" points="83.1649672 44.4080705 83.4099037 44.9032863 83.4273992 45.2884542 83.8472903 45.9670833 84.3196679 46.5540058 83.4448946 46.5540058 75.8343673 46.3889338 68.6962176 46.2238619 64.987179 46.0404486 65.1796291 42.1337459 59.3361438 41.6385301 60.0884488 33.5683461 62.8002459 33.7517594 66.3343298 33.953514 69.4485226 34.1552686 73.6124433 34.3570232 75.484458 34.2653166 75.8518628 34.6871671 76.6916451 35.2374069 76.8840952 35.4024788 77.6364002 35.1457003 78.3187234 35.0539936 78.7911009 35.017311 79.1060193 35.2740896 79.9807925 35.5675508 80.5056565 35.861012 80.5931338 36.1544733 80.750593 36.5396411 81.0655114 36.5396411 81.2054751 36.5396411 81.3804297 37.4933901 81.8528073 38.9606963 82.0627529 39.8043974 82.4301576 40.5013678 82.517635 41.4000928 82.7625715 42.1887699 82.8500488 43.3809562"></polyline>
                                    <polygon id="NH" stroke="#FFFFFF" fill="#759DE0" points="152.551982 25.2230423 152.709441 25.0212877 152.901891 24.4160239 152.464504 24.2509519 152.377027 23.6823708 151.694704 23.4806162 151.642217 22.9854004 150.365048 18.6935298 149.560257 16.0340374 149.402798 16.0340374 149.297825 16.3274986 149.192852 16.235792 149.017898 16.0523787 148.755466 16.4008639 148.755466 17.3179303 148.807952 18.3633859 149.140366 18.8586017 149.140366 19.5922548 148.493034 20.5276625 148.038152 20.7294171 148.038152 20.9311717 148.230602 21.2613156 148.230602 22.8386697 148.090638 24.5260718 148.055647 25.4064555 148.230602 25.6448928 148.195611 26.4702525 148.108133 26.8003964 148.370565 26.9654683 151.239822 26.103426 151.642217 25.993378 151.904649 25.5165035"></polygon>
                                    <polygon id="NJ" stroke="#FFFFFF" fill="#759DE0" points="143.349367 34.008538 142.981962 34.4487298 142.981962 35.017311 142.649548 35.5858921 142.614557 35.8793533 142.841998 36.1177906 142.807007 36.5579825 142.404612 36.7597371 142.544576 37.2549529 142.579566 37.4567075 143.051944 37.5117315 143.226899 37.988606 143.856735 38.4287978 144.276627 38.7222591 144.276627 38.8689897 143.716772 39.4375708 143.436844 39.8594213 143.174412 40.3546372 142.772017 40.5930744 142.562071 40.7214637 142.52708 40.9415596 142.422107 41.4184342 142.614557 41.8219434 143.174412 42.3538418 144.014195 42.7756924 144.714013 42.8857403 144.749004 43.1608602 144.60904 43.3442735 144.661527 43.8394893 144.801491 43.8394893 145.168895 43.3992975 145.308859 42.5189138 145.781237 41.7852607 146.323596 40.5930744 146.516046 39.5843014 146.411073 39.3825468 146.376082 37.6584621 146.096155 37.034857 145.903705 37.1815876 145.431327 37.2366116 145.34385 37.1449049 145.5363 36.9614917 145.903705 36.6130064 145.9212 36.4112518 145.851218 35.7876467 145.938696 35.2924309 145.903705 34.907263 145.448823 34.7055084 144.661527 34.5220951 143.979204 34.3203405"></polygon>
                                    <polygon id="NM" stroke="#FFFFFF" fill="#759DE0" points="47.9116051 78.1561125 47.7891369 77.0372915 49.2937469 77.1289981 54.454909 77.6975793 59.4236211 77.9543579 59.7735304 73.8642419 60.4208626 63.61144 60.6133127 60.0532226 60.963222 60.1082465 60.963222 58.0723592 55.3296823 57.6321674 48.8738557 56.825149 42.8379203 56.0731546 42.1031107 61.7222833 40.8784282 71.4798694 40.2136005 76.4136864 39.8636912 78.8530829 42.5754883 79.2199094 42.8029293 77.3857767 45.724672 77.8626512"></polygon>
                                    <polygon id="NY" stroke="#FFFFFF" fill="#759DE0" points="143.471835 33.8251247 143.279385 33.6417114 142.824503 33.6050288 142.422107 33.2565436 142.14218 32.1377226 141.529839 32.1560639 141.109947 31.6608481 137.715827 32.4678665 130.192777 34.063562 128.880617 34.2836579 128.758149 33.0914716 129.003086 32.889717 129.230527 32.6879624 129.405481 32.3945012 129.7204 32.1927466 130.052813 31.8626027 130.140291 31.5691415 130.507696 31.0739256 130.700146 30.8905124 130.665155 30.7070991 130.437714 30.1385179 130.122795 30.1018353 129.790382 28.9830143 130.29775 28.6528704 131.06755 28.3777505 131.767369 28.1393133 132.327224 28.0476066 133.429438 28.010924 133.761852 28.2493612 134.04178 28.2860439 134.409184 28.0476066 134.864066 27.845852 135.773831 27.7541454 136.141235 27.4240015 136.456154 26.8370791 136.736081 26.4885938 137.103486 26.4885938 137.4359 26.2868392 137.470891 25.8649887 137.208459 25.4798208 137.155972 25.2047009 137.348422 24.8195331 137.348422 24.5444132 137.033504 24.5444132 136.718586 24.3976825 136.578622 24.1959279 136.543631 23.7190534 137.558368 22.7102804 137.663341 22.5635498 137.925773 22.0316513 138.433141 21.2062916 138.905519 20.5276625 139.272924 20.0874707 139.692815 19.7573268 140.235174 19.5372308 141.197425 19.2987936 141.75728 19.3354762 142.544576 19.0603563 143.874231 18.6751885 143.961708 19.5922548 144.381599 20.7844411 144.521563 21.7381901 144.346608 22.4535019 144.801491 23.2788616 144.941454 23.6640295 144.801491 24.1959279 145.308859 24.4343652 145.413832 24.4893892 145.956191 26.5069352 145.868714 27.4423429 145.781237 29.4232062 145.9212 30.4319792 146.061164 31.092267 146.323596 32.4311838 146.323596 33.9168313 146.131146 34.3386819 146.446064 34.7055084 146.586028 35.017311 146.253614 35.3474549 146.3061 35.5858921 146.533542 35.5308681 146.795974 35.2924309 147.198369 34.8155564 147.390819 34.7055084 147.670747 34.8155564 148.073142 34.852239 149.455284 34.1369273 149.962653 33.6417114 150.190094 33.3665915 150.924903 33.6600528 150.330057 34.3203405 149.647734 34.852239 148.405556 35.8243294 147.950674 36.0077426 146.935937 36.3562279 146.236119 36.5579825 146.026173 36.4662758 145.991182 35.7876467 146.078659 35.2924309 146.043669 34.907263 145.553795 34.5954604 144.7665 34.4120472 144.084176 34.2102926"></polygon>
                                    <polygon id="OH" stroke="#FFFFFF" fill="#759DE0" points="126.413757 34.8705804 125.346533 35.6225748 124.66421 36.0444253 124.069364 36.7230544 123.369546 37.4383662 122.809691 37.5850968 122.302322 37.6768034 121.340072 38.1536779 120.972667 38.1903606 120.377821 37.6217794 119.468057 37.7318274 119.013175 37.4567075 118.593284 37.1999289 117.736006 37.3283182 115.951469 37.6217794 114.586822 37.8418754 114.814263 40.5197091 115.129182 43.0324709 115.584064 47.3243415 115.689037 48.2047252 116.406351 48.1863839 116.826242 48.0396533 117.421088 48.3147732 117.788492 49.1217916 118.680761 49.1217916 119.013175 49.5069594 119.328093 49.4886181 119.76548 49.2501809 120.202867 49.3235462 120.552776 49.5986661 120.850199 49.2134982 121.252595 48.9750609 121.619999 48.8466717 121.724972 49.3418875 122.03989 49.5253008 122.652232 49.9471513 123.037132 49.92881 123.229582 49.7270554 123.212087 49.4702768 123.492014 49.1951569 123.527005 48.2780905 123.70196 47.5627788 123.964392 47.3060002 124.226824 47.4710721 124.366787 47.691168 124.576733 47.6544854 124.506751 47.2142935 124.401778 47.1042456 124.401778 46.6640537 124.576733 46.4256165 124.979129 45.8020113 125.20657 45.5268914 125.573974 45.6185981 125.97637 45.3251368 126.51873 44.7015317 126.921125 43.98622 126.956116 42.9957883 127.043593 42.0787219 127.043593 41.2166796 126.851143 40.6480984 127.026098 40.3729785 127.183557 40.1895652 126.938621 38.3921152"></polygon>
                                    <polygon id="OK" stroke="#FFFFFF" fill="#759DE0" points="64.1124057 58.2741138 62.240391 58.1824072 61.1206812 58.0907005 61.1731676 58.1273832 61.0506994 60.0348812 64.8997017 60.2916598 70.515746 60.5300971 70.1133503 65.0053809 70.0258729 68.2701371 70.0608639 68.5635984 70.8131689 69.2422275 71.1805736 69.4439821 71.3030419 69.4072994 71.4255101 69.0221315 71.6704466 69.3522754 72.0378514 69.3522754 72.0378514 69.0954968 72.510229 69.3522754 72.4227516 70.0675872 73.1400657 70.1042698 73.5774523 70.3060244 74.2947664 70.4344137 74.732153 70.7645576 75.1345487 70.3793898 75.7293945 70.507779 76.1667812 71.1313842 76.3242403 71.1313842 76.3242403 71.5532347 76.726636 71.681624 77.1290317 71.2597735 77.4439501 71.3881627 77.8813367 71.3881627 78.0387959 71.8466959 78.8785782 72.1768398 79.1235148 72.0484505 79.4384331 71.2964561 79.6308832 71.2964561 79.8233334 71.681624 80.5406474 71.8100133 81.1879796 72.0667918 81.7128436 72.2318638 82.0277619 72.0667918 82.1502302 71.6082587 82.9025352 71.6082587 83.26994 71.7733306 83.7423175 71.3881627 83.9347676 71.3881627 84.0572359 71.681624 84.77455 71.681624 85.0544774 71.2964561 85.3693958 71.3881627 85.7368005 71.8466959 86.2966554 72.1768398 86.8565103 72.3419118 87.1889241 72.5436664 87.1189423 65.7206927 86.8740058 63.7031467 86.8390148 62.0707685 86.5940783 60.8785823 86.4541146 59.5580067 86.4366191 58.8610363 84.3196679 58.9160603 76.2017721 58.8243536 68.3288128 58.4391858"></polygon>
                                    <polygon id="PA" stroke="#FFFFFF" fill="#759DE0" points="142.299639 40.6114158 142.492089 40.5013678 142.894485 40.3913198 143.156917 39.896104 143.436844 39.4742535 143.996699 38.9056723 143.996699 38.7589417 143.576808 38.4654805 142.946971 38.0252886 142.772017 37.5484141 142.299639 37.4933901 142.264648 37.2916355 142.124684 36.7964197 142.52708 36.5946651 142.562071 36.1544733 142.33463 35.916036 142.369621 35.6225748 142.702035 35.0539936 142.702035 34.4854125 143.10443 34.0452206 143.139421 33.843466 142.684539 33.8067834 142.282144 33.4582982 141.862252 32.4862078 141.337388 32.3211359 140.934993 31.935968 137.680836 32.6696211 130.157786 34.2653166 128.60069 34.5404365 128.513213 33.2382022 127.550962 34.2653166 127.323521 34.3570232 126.588711 34.907263 127.09608 38.4104565 127.603448 40.1528826 128.233285 43.6927587 128.810635 43.5827108 130.892596 43.3075909 137.523377 41.8953087 140.130201 41.3817515 141.582325 41.0882903 141.634811 41.0516076 142.002216 40.7581464"></polygon>
                                    <polygon id="RI" stroke="#FFFFFF" fill="#759DE0" points="151.379785 32.0826986 151.292308 31.3123629 151.152344 30.5053445 150.854921 29.4232062 151.852163 29.1480863 152.13209 29.3498409 152.726936 30.1568593 153.234305 30.9638777 152.726936 31.2389976 152.499495 31.2023149 152.307045 31.5324588 151.887154 31.880944"></polygon>
                                    <polygon id="SC" stroke="#FFFFFF" fill="#759DE0" points="131.627405 74.8363323 131.312487 75.0197455 130.857605 74.7813083 130.752632 74.3961404 130.525191 73.7358526 130.122795 73.3506848 129.667913 73.2406368 129.387986 72.3602531 128.915608 71.2597735 128.180799 70.9112882 127.813394 70.562803 127.585953 70.0859285 127.218548 69.719102 126.816152 69.4806647 126.413757 68.9487662 125.871397 68.5269157 125.084101 68.1967718 124.996624 67.9216519 124.576733 67.3897534 124.489256 67.1146335 123.89441 66.1608845 123.299564 66.1975672 122.599745 65.7573753 122.372304 65.5189381 122.319818 65.1887942 122.459782 64.8403089 122.862177 64.6568957 122.809691 64.2717278 123.876914 63.7948533 125.469002 62.9694936 126.746171 62.822763 129.632922 62.7310563 130.035318 63.0795415 130.315245 63.666464 131.085046 63.5747574 133.289475 63.2996375 133.796843 63.4463681 136.001272 64.8403089 137.768314 66.3259564 136.823558 67.3347294 136.368676 68.4535504 136.281199 69.609054 136.001272 69.7557846 135.808821 70.2510005 135.38893 70.3610484 135.021526 71.0213362 134.549148 71.516552 134.146752 72.1401572 133.866825 72.2868878 133.236988 72.9104929 132.72962 72.9471756 132.904574 73.534098 132.029801 74.542871"></polygon>
                                    <polygon id="SD" stroke="#FFFFFF" fill="#759DE0" points="81.1704842 36.3745692 80.9955295 36.1728146 80.7330975 35.5125268 81.0480159 34.8338977 81.240466 33.8067834 80.7855839 33.4216155 80.7330975 32.9263997 80.8380703 32.3761599 81.2229706 32.2294292 81.275457 31.1839736 81.2579615 25.6632341 81.1529887 25.1129943 80.4356746 24.4527065 80.26072 24.08588 80.26072 23.7373948 80.5931338 23.4989575 80.8555658 23.1504723 80.8905567 22.6552565 70.8481598 22.3617952 61.0157084 21.6464835 60.8757447 22.6185738 60.5958173 25.5348448 60.3683762 28.8179424 60.0884488 33.3299089 62.8877232 33.5133221 66.3168343 33.7150767 69.4660181 33.953514 73.6299387 34.1919512 75.5019535 34.0452206 76.009322 34.4670712 76.761627 35.017311 76.9365816 35.1640416 77.5489229 34.9989696 78.2487415 34.9439457 78.7211191 34.9256043 79.2634785 35.1457003 80.0507744 35.4024788 80.5931338 35.7326227 80.6981066 36.0811079 80.8555658 36.4295932 80.978034 36.3378865"></polygon>
                                    <path d="M120.412812,57.9072873 L111.332666,58.8243536 L108.568382,59.1544975 L107.763591,59.2462042 L107.081268,59.2462042 L107.081268,59.9615159 L105.611649,60.0532226 L104.386966,60.1632705 L102.44497,60.1816118 L102.392483,61.2454088 L102.025078,62.4009124 L101.850124,62.9511522 L101.622683,63.7581706 L101.570196,64.2350451 L100.870378,64.6568957 L101.13281,65.3171835 L100.957855,66.1242018 L100.7829,66.2709325 L102.060069,66.2342498 L106.276476,65.8857646 L107.203736,65.8490819 L108.620869,65.7573753 L113.484608,65.2805008 L115.269146,65.1337702 L116.738765,64.9503569 L118.208384,64.7486023 L119.048166,64.6018717 L119.030671,63.776512 L119.345589,63.5013921 L119.817966,63.3913441 L119.922939,62.712715 L120.657749,62.2174992 L121.340072,61.9423793 L122.074881,61.2820915 L122.844682,60.8969236 L123.002141,60.2549772 L123.754446,59.5396654 L123.859419,59.5029827 C123.859419,59.5029827 123.859419,59.7047373 123.999383,59.7047373 C124.139346,59.7047373 124.331796,59.7597613 124.331796,59.7597613 L124.734192,59.0994735 L125.101597,58.9894256 L125.503993,59.0444496 L125.78392,58.3841618 L126.151325,57.9806526 L126.256298,57.7972393 L126.291288,57.0819276 L126.028857,57.0269036 L125.608965,57.3753888 L124.226824,57.4120714 L122.127368,57.7605567 L120.412812,57.9072873 Z" id="TN" stroke="#FFFFFF" fill="#759DE0"></path>
                                    <path d="M60.9282311,60.2549772 L64.8997017,60.4567318 L70.3407913,60.6584864 L69.9383956,64.9686982 L69.8859092,68.3068198 L69.9034047,68.6919877 L70.6557097,69.3889581 L70.9531326,69.5356887 L71.2680509,69.5907127 L71.3905192,69.3522754 L71.5479784,69.5173474 L71.8454013,69.609054 L72.1253287,69.4806647 L72.3177789,69.55403 L72.2652925,70.1776352 L73.0175975,70.3610484 L73.489975,70.507779 L74.1897936,70.5994857 L74.5746938,70.9296296 L75.1345487,70.6361683 L75.6244217,70.7095336 L75.974331,71.2230908 L76.1667812,71.2781148 L76.1317902,71.6449413 L76.6741496,71.8650373 L77.1640227,71.5348934 L77.4264546,71.6082587 L77.8463458,71.6449413 L77.9163277,71.9934265 L78.7211191,72.3602531 L79.1934966,72.3235704 L79.5434059,71.571576 L79.5958923,71.571576 L79.7883424,71.9200612 L80.5581429,72.1034745 L81.1354932,72.3235704 L81.7128436,72.470301 L82.0802483,72.3235704 L82.2202121,71.8650373 L82.8675443,71.8650373 L83.1999581,72.0117679 L83.7423175,71.7183066 L83.8647858,71.7183066 L83.9347676,71.9200612 L84.6870726,71.9200612 L85.1069638,71.681624 L85.4043867,71.736648 L85.6493232,72.0851332 L86.1566917,72.3969357 L86.769033,72.5986903 L87.2414105,72.8554689 L87.6613017,73.1489302 L88.238652,72.9838582 L88.5710659,73.1672715 L88.6585432,75.0197455 L88.7110296,76.7988543 L88.8334978,78.5412803 L88.9209752,79.2749334 L89.3933527,80.1186345 L89.5858028,80.8706289 L90.268126,82.0261325 L90.3556033,82.558031 L90.4430806,82.7414443 L90.3206124,84.1170438 L89.8482348,84.9240622 L90.0231895,85.4559607 L89.9532076,85.9144939 L89.8132439,87.2534107 L89.5683074,87.7486266 L89.6732802,88.555645 L88.6760387,88.8491062 L86.9439876,89.6744659 L86.769033,90.0229511 L86.3141509,90.3714364 L85.9467461,90.6465563 L85.7193051,90.7932869 L84.7220636,91.7653772 L84.249686,92.1505451 L83.3224264,92.7374676 L82.3251849,93.1776594 L81.2229706,93.8012645 L80.9080522,94.0763845 L79.8933152,94.7366722 L79.2984694,94.8467202 L78.6161463,95.8554932 L77.9163277,95.9105172 L77.741373,96.2590024 L78.1437687,96.6074876 L77.8813367,97.6162606 L77.6538957,98.4416203 L77.4614456,99.1569321 L77.3214819,99.9822918 L77.4614456,100.422484 L77.7763639,101.706377 L77.9513186,102.825198 L78.266237,103.320413 L78.0912823,103.595533 L77.5489229,103.944018 L76.5516814,103.228707 L75.5894308,103.026952 L75.3619898,103.118659 L74.8021349,103.008611 L74.0673254,102.44003 L73.1575612,102.238275 L71.8279058,101.61467 L71.4605011,100.899358 L71.23306,99.7071719 L70.6732051,99.3586867 L70.5682323,98.9368362 L70.6732051,98.8267882 L70.7256915,98.2031831 L70.4982505,98.0931351 L70.3932777,97.9097218 L70.6207187,97.1027034 L70.3407913,96.6808529 L69.7809364,96.4424157 L69.1860906,95.6353973 L68.5562539,94.4248697 L67.8214443,93.9479952 L67.8564353,93.5995099 L66.9291756,91.3435267 L66.7892119,90.573191 L66.4742935,90.2247057 L66.4393026,89.9495858 L65.3895747,88.9774955 L64.9346926,88.4089144 L64.9346926,88.2071598 L64.4798105,87.8219919 L63.2901189,87.6202373 L61.9954545,87.5101893 L61.4530951,87.0883388 L60.6657991,87.4184827 L60.0359624,87.6936026 L59.6335667,88.2805251 L59.458612,88.9591542 L58.6888116,90.0779751 L58.2689204,90.518167 L57.8140383,90.3347537 L57.49912,90.1329991 L57.1667061,90.0229511 L56.484383,89.6011006 L56.484383,89.4910527 L56.1694646,89.1425674 L55.2597004,88.7573996 L53.965036,87.3267761 L53.5626403,86.4647337 L53.5626403,84.9790862 L53.0027854,83.7868999 L52.9153081,83.2916841 L52.6353807,83.1082708 L52.4429306,82.7231029 L51.5681573,82.3379351 L51.3407163,82.0444738 L50.0985383,80.595509 L49.8710972,80.0085865 L49.0488104,79.586736 L48.7863784,78.7797176 L48.3314963,78.2478191 L47.9990824,78.1561125 L47.8941097,77.2940701 L49.2937469,77.4224594 L54.3674317,77.9176752 L59.493603,78.2111365 L59.8959987,73.8459006 L60.5783218,63.6481227 L60.8582493,60.2182945 L61.1031858,60.2182945 L60.9282311,60.2549772 Z M78.4411916,103.155341 L78.3362188,101.853107 L77.8638413,100.532532 L77.7588685,99.2486387 L78.0213005,97.7446499 L78.5986508,96.4790983 L79.2109921,95.4886666 L79.770847,94.8283789 L79.8758197,94.8650615 L79.0360374,96.0755891 L78.266237,97.2677754 L77.9163277,98.478303 L77.8638413,99.432052 L78.0213005,100.550873 L78.4761825,101.871448 L78.5636599,102.825198 L78.5986508,103.100317 L78.4411916,103.155341 Z" id="TX" stroke="#FFFFFF" fill="#759DE0"></path>
                                    <polygon id="UT" stroke="#FFFFFF" fill="#759DE0" points="42.715452 55.8347173 38.4115676 55.1927709 33.7577739 54.2940458 27.8443067 53.1935662 28.1242342 51.5061641 28.684089 48.7182824 29.2439439 45.6919634 29.6288442 43.1975429 29.961258 41.5651648 30.6260857 37.8051927 31.2384269 34.5954604 31.4308771 33.5683461 33.6528011 33.9901967 35.7522569 34.3753645 37.5542898 34.7055084 39.0064134 34.962287 39.6537456 35.0539936 39.3913137 36.9981743 38.988918 39.4192295 40.3535642 39.5843014 43.2228205 39.9144453 44.6574486 40.0795173 44.2900439 44.1146092 43.730189 48.2597492 43.0653613 53.3586381 42.7679384 55.3945255"></polygon>
                                    <path d="M143.471835,48.4798451 L143.45434,48.1313599 L144.591545,47.6728267 L144.451581,48.2597492 L143.944213,48.9567196 L143.874231,49.8004207 L143.961708,50.4240258 L143.64679,51.3410922 L143.26189,51.6895774 L142.999458,50.8458763 L143.069439,49.8554447 L143.349367,49.0851089 L143.471835,48.4798451 Z M143.874231,53.6704407 L133.69187,55.9814479 L127.148566,56.9535383 L125.97637,56.880173 L125.521488,57.2286582 L124.244319,57.2653408 L122.7747,57.4487541 L121.217604,57.6321674 L122.704718,56.7334423 L122.704718,56.3482745 L122.96715,55.9631066 L124.821669,53.853854 L125.503993,54.6792137 L126.16882,54.862627 L126.606207,54.6608724 L126.991107,54.4224351 L127.428494,54.6608724 L128.110817,54.4040938 L128.443231,53.5603927 L128.898113,53.6520994 L129.405481,53.2669315 L129.7204,53.3586381 L130.210273,52.680009 L130.262759,52.2948412 L130.087804,52.0564039 L130.262759,51.7079187 L131.190019,49.4519355 L131.294991,48.4064798 L131.504937,48.3147732 L131.889837,48.754965 L132.57216,48.699941 L132.904574,47.3060002 L133.394447,47.1959522 L133.569402,46.7007364 L134.024284,46.2788859 L134.251725,45.8570353 L134.514157,45.2334302 L134.531653,44.2980225 L136.246208,44.994993 C136.368676,45.0500169 136.368676,44.1146092 136.368676,44.1146092 L137.08599,44.3713878 L136.998513,44.8482623 L138.433141,45.3801608 L138.660582,45.7103047 L138.503123,46.3889338 L138.275682,46.6273711 L138.188205,46.9391736 L138.275682,47.3793655 L138.625591,47.6178027 L139.307914,47.8745813 L139.815283,48.0579946 L140.672561,48.2230665 L141.057461,48.6082344 L141.617316,48.6815997 L141.774775,48.9016956 L141.704793,49.763738 L141.94973,49.9654926 L141.862252,50.3139778 L142.072198,50.4607084 L142.037207,50.717487 L141.564829,50.6991457 L141.582325,50.9926069 L141.984721,51.2677268 L142.002216,51.5245054 L142.317134,51.8546493 L142.404612,52.3131825 L141.94973,52.5699611 L142.229657,52.845081 L143.244394,52.5332784 L143.874231,53.6704407 Z" id="VA" stroke="#FFFFFF" fill="#759DE0"></path>
                                    <polygon id="VT" stroke="#FFFFFF" fill="#759DE0" points="146.166137 27.2956122 146.026173 26.2501566 145.606282 24.4160239 145.501309 24.3609999 144.993941 24.1225626 145.133904 23.5906641 144.993941 23.2054963 144.521563 22.3617952 144.696518 21.6464835 144.556554 20.6927345 144.136663 19.5005482 143.996699 18.6018232 148.580511 17.3729542 148.632997 18.4367512 148.965411 18.931967 148.965411 19.6656201 148.318079 20.3992732 147.863197 20.6010278 147.863197 20.8027824 148.055647 21.1329263 148.055647 22.7102804 147.915683 24.3976825 147.880692 25.2780662 148.055647 25.5165035 148.020656 26.3418632 147.933179 26.6720071 148.055647 26.9654683 146.830964 27.2222469"></polygon>
                                    <polygon id="WI" stroke="#FFFFFF" fill="#759DE0" points="105.681631 35.2740896 105.751613 34.7238497 105.471685 33.89849 105.366712 32.7796691 105.174262 32.3394772 105.349217 31.7708961 105.489181 31.2389976 105.751613 30.7621231 105.64664 30.1385179 105.541667 29.4782302 105.629144 29.1480863 105.961558 28.7078944 105.996549 28.2126786 105.856585 27.9742413 105.961558 27.4973668 106.049035 26.9104444 106.521413 25.8649887 107.028781 24.6177785 107.063772 24.1959279 107.011286 24.0125147 106.871322 24.1042213 106.136513 25.2597249 105.664135 25.993378 105.331721 26.3235219 105.191758 26.7453724 104.929326 26.892103 104.736876 27.2405883 104.474444 27.1855643 104.439453 26.8554204 104.666894 26.4152285 105.034298 25.5531862 105.349217 25.2597249 105.541667 24.8378744 105.26174 24.6728024 105.016803 24.4160239 104.736876 22.5268672 104.089543 22.3251126 103.844607 21.903262 101.640178 21.4080462 101.202792 21.2062916 99.7681635 20.7844411 98.3335354 20.5826865 97.5987258 19.5922548 97.5112485 19.8306921 97.3187984 19.7940094 97.2138256 19.5922548 96.741448 19.4455242 96.5489979 19.4822069 96.2340796 19.6656201 96.0591249 19.5555722 96.1640977 19.207087 96.4965115 18.6385058 96.6889616 18.4367512 96.3565478 18.1616313 95.989143 18.3083619 95.4817746 18.6568471 94.1871101 19.2437696 93.6797417 19.3538176 93.1723732 19.2621109 92.9974185 19.097039 92.6300138 19.6105962 92.5950228 20.105812 92.5950228 21.6648248 92.4025727 21.958286 91.4753131 22.6735978 91.0729174 23.7557361 91.1603947 23.7924187 91.5977813 24.1775866 91.7202496 24.7645091 91.4053312 25.3514316 91.4053312 26.0667433 91.4928085 27.2772709 92.0176725 27.8275107 92.6125183 27.8275107 92.9274367 28.4144332 93.5222825 28.5061398 94.2046056 29.5515955 95.4467836 30.3035899 95.8141884 30.7988057 95.9716476 32.1560639 96.0941158 32.7613277 96.4965115 33.054789 96.5315025 33.3115675 96.1640977 33.9351727 96.1990886 34.5220951 96.6364753 35.2374069 97.0738619 35.4391615 97.5987258 35.5308681 97.8261669 35.7876467 99.4357497 35.7876467 104.002066 35.5125268"></polygon>
                                    <path d="M130.787623,43.5276868 L130.980073,44.4264118 L131.172523,45.6919634 L131.80236,45.1967475 L132.204756,44.6281664 L132.642142,44.5181184 L132.904574,44.2429985 L133.219493,43.766124 L133.429438,43.876172 L133.936807,43.821148 L134.391689,43.4359801 L134.741598,43.1608602 L135.056516,43.0691536 L135.283958,43.2525669 L135.668858,43.4543215 L136.001272,43.7844654 L136.246208,44.0229026 L136.228713,44.884945 L135.231471,44.3163638 L134.444175,43.98622 L134.409184,44.9583103 L134.321707,45.3434782 L134.04178,45.838694 L133.936807,46.1321552 L133.394447,46.5723471 L133.30697,46.9941976 L132.712124,47.0492216 L132.659638,47.6178027 L132.467188,48.6265757 L132.012306,48.6265757 L131.784865,48.4798451 L131.504937,47.9846293 L131.190019,48.0213119 L131.137532,48.8283303 L130.770128,50.0388579 L129.895354,52.0197213 L130.035318,52.2581585 L130.000327,52.7533743 L129.632922,53.1018596 L129.37049,53.0468356 L128.810635,53.4870274 L128.355753,53.3036142 L128.040835,54.1656565 C128.040835,54.1656565 127.393503,54.3123872 127.271035,54.3490698 C127.166062,54.3857525 126.851143,54.1106326 126.851143,54.1106326 L126.431252,54.5324831 L125.97637,54.642531 L125.469002,54.4958004 L125.241561,54.2573632 L124.85666,53.7071234 L124.314301,53.3402968 L123.859419,52.845081 L123.35205,52.1664519 L123.247078,51.7446013 L122.792195,51.4694814 L122.652232,51.1760202 L122.617241,50.2039299 L123.002141,50.1855885 L123.334555,50.0388579 L123.369546,49.5436421 L123.649473,49.2685222 L123.684464,48.3514558 L123.859419,47.6361441 L124.08686,47.5260961 L124.314301,47.7278507 L124.401778,48.0579946 L124.716697,47.8745813 L124.804174,47.5811201 L124.611724,47.2509762 L124.611724,46.8107843 L124.786678,46.5723471 L125.189074,45.948742 L125.416515,45.6736221 L125.78392,45.7653287 L126.186316,45.4718675 L126.728675,44.8482623 L127.131071,44.1329506 L127.183557,43.0874949 L127.271035,42.1704286 L127.271035,41.3083862 L127.078584,40.739805 L127.253539,40.4646851 L127.48098,40.2262479 L128.093321,43.8578307 L128.898113,43.7111 L130.787623,43.5276868 Z" id="WV" stroke="#FFFFFF" fill="#759DE0"></path>
                                    <polygon id="WY" stroke="#FFFFFF" fill="#759DE0" points="60.4383581 25.4798208 58.6013343 25.3330902 52.98529 24.7278264 50.1510246 24.3426586 45.199808 23.5906641 41.7182105 23.0404243 41.473274 25.094653 40.8084463 29.5515955 39.8811867 35.1273589 39.6187547 37.0531983 39.3213318 39.2358162 40.458537 39.4008882 44.9898625 39.8594213 48.5939283 40.2812719 55.0322594 41.0332663 59.1961801 41.5651648 59.983476 33.4582982 60.2284125 28.7996011"></polygon>
                                </g>
                            </g>
                        </g>
                    </g>
                </g>
                <path d="M47.472,20.8 L47.472,32 L49.248,32 L49.248,23.632 L52.784,30.832 L54.016,30.832 L57.552,23.632 L57.568,32 L59.312,32 L59.312,20.8 L57.088,20.8 L53.408,28.24 L49.712,20.8 L47.472,20.8 Z M69.072,32 L67.264,32 L67.264,30.96 C66.656,31.712 65.68,32.08 64.448,32.08 C62.608,32.08 61.456,30.944 61.456,29.44 C61.456,27.888 62.624,26.896 64.672,26.88 L67.248,26.88 L67.248,26.624 C67.248,25.552 66.56,24.912 65.216,24.912 C64.4,24.912 63.552,25.2 62.704,25.776 L61.952,24.496 C63.136,23.792 64,23.424 65.616,23.424 C67.808,23.424 69.04,24.544 69.056,26.416 L69.072,32 Z M64.832,30.624 C66.144,30.624 67.152,29.936 67.248,29.008 L67.248,28.224 L64.944,28.224 C63.744,28.224 63.184,28.544 63.184,29.36 C63.184,30.128 63.808,30.624 64.832,30.624 Z M76.432,23.424 C78.848,23.424 80.496,25.184 80.496,27.776 C80.496,30.32 78.896,32.064 76.464,32.064 C75.104,32.064 74.08,31.52 73.456,30.528 L73.456,35.104 L71.616,35.104 L71.616,23.488 L73.456,23.488 L73.456,24.96 C74.08,23.968 75.104,23.424 76.432,23.424 Z M76.048,30.496 C77.568,30.496 78.64,29.344 78.64,27.712 C78.64,26.128 77.568,24.96 76.048,24.96 C74.528,24.96 73.456,26.112 73.456,27.712 C73.456,29.36 74.528,30.496 76.048,30.496 Z" id="Map" fill="#4B5671" opacity="0.5"></path>
            </g>
        </g>
    </g>
</svg>