<?xml version="1.0" encoding="UTF-8"?>
<svg width="125px" height="125px" viewBox="0 0 125 125" version="1.1" xmlns="http://www.w3.org/2000/svg" xmlns:xlink="http://www.w3.org/1999/xlink">
    <!-- Generator: Sketch 44 (41411) - http://www.bohemiancoding.com/sketch -->
    <title>Chart types/Pie/Regular</title>
    <desc>Created with Sketch.</desc>
    <defs>
        <path d="M0,2.00136642 C0,0.896042268 0.899304869,0 2.00136642,0 L122.998634,0 C124.103958,0 125,0.899304869 125,2.00136642 L125,122.998634 C125,124.103958 124.100695,125 122.998634,125 L2.00136642,125 C0.896042268,125 0,124.100695 0,122.998634 L0,2.00136642 Z" id="path-1"></path>
        <rect id="path-2" x="10" y="41" width="105" height="74"></rect>
    </defs>
    <g id="Symbols" stroke="none" stroke-width="1" fill="none" fill-rule="evenodd">
        <g id="Chart-types/Pie/Regular">
            <g id="pie">
                <g id="Group-13">
                    <g id="Rectangle-4-Copy-4">
                        <use fill="#FFFFFF" fill-rule="evenodd" xlink:href="#path-1"></use>
                        <path stroke="#EEEFF3" stroke-width="1" d="M0.5,2.00136642 L0.5,122.998634 C0.5,123.825805 1.17343623,124.5 2.00136642,124.5 L122.998634,124.5 C123.825805,124.5 124.5,123.826564 124.5,122.998634 L124.5,2.00136642 C124.5,1.17419455 123.826564,0.5 122.998634,0.5 L2.00136642,0.5 C1.17419455,0.5 0.5,1.17343623 0.5,2.00136642 Z"></path>
                    </g>
                    <mask id="mask-3" fill="white">
                        <use xlink:href="#path-2"></use>
                    </mask>
                    <g id="Mask"></g>
                    <g id="Group-5" opacity="0.75" mask="url(#mask-3)" fill="#FF7E70">
                        <g transform="translate(10.000000, 62.000000)" id="Combined-Shape">
                            <path d="M83.9839162,52.5 L105,52.5 C105,41.8305221 101.817248,31.9044157 96.3493798,23.6193172 C92.0703749,17.1356244 86.3919188,11.6569179 79.7442157,7.6134019 C71.8017995,2.78236686 62.4758281,0 52.5,0 C41.0577632,0 30.4704779,3.66048258 21.845287,9.8743049 C8.61400191,19.4064828 0,34.9472874 0,52.5 L23.0160838,52.5 C23.5437836,36.1181787 36.9899344,23 53.5,23 C70.0100656,23 83.4562164,36.1181787 83.9839162,52.5 L83.9839162,52.5 Z" opacity="0.200000003"></path>
                            <path d="M52.5,23.0160838 L52.5,0 C41.0577632,0 30.4704779,3.66048258 21.845287,9.8743049 L35.5065737,28.8704652 C40.2997487,25.3627865 46.1550805,23.2204697 52.5,23.0160838 L52.5,23.0160838 Z" opacity="0.400000006"></path>
                            <path d="M52.5,23.0160838 L52.5,0 C62.4758281,0 71.8017995,2.78236686 79.7442157,7.6134019 L68.1378627,26.7356151 C63.7927422,24.3541493 58.8045104,23 53.5,23 C53.1653807,23 52.8320201,23.0053886 52.5,23.0160838 L52.5,23.0160838 Z" opacity="0.600000024"></path>
                            <path d="M78.1851871,35.5828681 L96.3493798,23.6193172 C92.0703749,17.1356244 86.3919188,11.6569179 79.7442157,7.6134019 L68.1378627,26.7356151 C72.1064611,28.9107173 75.5385754,31.9428078 78.1851871,35.5828681 L78.1851871,35.5828681 Z" opacity="0.800000012"></path>
                            <path d="M83.9839162,52.5 L105,52.5 C105,41.8305221 101.817248,31.9044157 96.3493798,23.6193172 L78.1851871,35.5828681 C81.6598657,40.3618237 83.7806135,46.1887057 83.9839162,52.5 L83.9839162,52.5 Z"></path>
                        </g>
                    </g>
                </g>
                <path d="M57.436,20.8 C60.252,20.8 61.868,22.192 61.868,24.624 C61.868,27.152 60.252,28.624 57.436,28.624 L54.86,28.624 L54.86,32 L52.972,32 L52.972,20.8 L57.436,20.8 Z M57.356,26.928 C59.084,26.928 60.06,26.192 60.06,24.672 C60.06,23.2 59.084,22.496 57.356,22.496 L54.86,22.496 L54.86,26.928 L57.356,26.928 Z M64.54,19.936 C63.932,19.936 63.468,20.4 63.468,21.056 C63.468,21.696 63.932,22.16 64.54,22.16 C65.148,22.16 65.612,21.696 65.612,21.056 C65.612,20.4 65.148,19.936 64.54,19.936 Z M63.628,23.488 L63.628,32 L65.452,32 L65.452,23.488 L63.628,23.488 Z M71.676,23.424 C74.668,23.424 75.884,25.376 75.66,28.448 L69.228,28.448 C69.516,29.76 70.524,30.576 71.868,30.576 C72.796,30.576 73.644,30.224 74.268,29.584 L75.244,30.624 C74.412,31.536 73.196,32.064 71.724,32.064 C69.1,32.064 67.372,30.32 67.372,27.76 C67.372,25.184 69.148,23.44 71.676,23.424 Z M69.196,27.104 L74.06,27.104 C73.996,25.728 73.084,24.896 71.692,24.896 C70.348,24.896 69.388,25.744 69.196,27.104 Z" id="Pie" fill="#4B5671" opacity="0.5"></path>
            </g>
        </g>
    </g>
</svg>