<?xml version="1.0" encoding="UTF-8" standalone="no"?>
<svg
   xmlns:dc="http://purl.org/dc/elements/1.1/"
   xmlns:cc="http://creativecommons.org/ns#"
   xmlns:rdf="http://www.w3.org/1999/02/22-rdf-syntax-ns#"
   xmlns:svg="http://www.w3.org/2000/svg"
   xmlns="http://www.w3.org/2000/svg"
   xmlns:sodipodi="http://sodipodi.sourceforge.net/DTD/sodipodi-0.dtd"
   xmlns:inkscape="http://www.inkscape.org/namespaces/inkscape"
   width="20"
   height="20"
   viewBox="0 0 2.0957839 2.096"
   preserveAspectRatio="xMidYMid"
   version="1.1"
   id="svg4501"
   sodipodi:docname="google-icon.svg"
   inkscape:version="0.92.1 r15371">
  <metadata
     id="metadata4507">
    <rdf:RDF>
      <cc:Work
         rdf:about="">
        <dc:format>image/svg+xml</dc:format>
        <dc:type
           rdf:resource="http://purl.org/dc/dcmitype/StillImage" />
        <dc:title></dc:title>
      </cc:Work>
    </rdf:RDF>
  </metadata>
  <defs
     id="defs4505" />
  <sodipodi:namedview
     pagecolor="#ffffff"
     bordercolor="#666666"
     borderopacity="1"
     objecttolerance="10"
     gridtolerance="10"
     guidetolerance="10"
     inkscape:pageopacity="0"
     inkscape:pageshadow="2"
     inkscape:window-width="2560"
     inkscape:window-height="1490"
     id="namedview4503"
     showgrid="false"
     inkscape:zoom="8.5441126"
     inkscape:cx="-97.329537"
     inkscape:cy="6.8257172"
     inkscape:window-x="-12"
     inkscape:window-y="1668"
     inkscape:window-maximized="1"
     inkscape:current-layer="svg4501" />
  <g
     id="g4489"
     transform="translate(2.5e-8,0.02138987)">
    <path
       style="fill:#4285f4;stroke-width:0.00738395"
       inkscape:connector-curvature="0"
       id="path4493"
       d="m 1.9855001,1.048199 c 0,-0.0798344 -0.00638,-0.13813439 -0.020198,-0.19856875 H 1.0670268 V 1.2100657 h 0.5272676 c -0.010627,0.089553 -0.068031,0.2244809 -0.1955992,0.3151234 l -0.00179,0.01208 0.2840183,0.2233637 0.019677,0.00182 C 1.8813173,1.59318 1.9855001,1.343886 1.9855001,1.048199" />
    <path
       style="fill:#34a853;stroke-width:0.00738395"
       inkscape:connector-curvature="0"
       id="path4495"
       d="m 1.0670268,1.9978741 c 0.258317,0 0.4751763,-0.086374 0.6335757,-0.2352617 L 1.3986952,1.5251891 c -0.08079,0.057219 -0.1892233,0.097127 -0.3316684,0.097127 -0.25300376,0 -0.4677378,-0.1694233 -0.54428457,-0.4036133 l -0.01122,9.082e-4 -0.29532617,0.2320193 -0.003862,0.010899 C 0.36966334,1.779878 0.6928307,1.9978741 1.0670268,1.9978741" />
    <path
       style="fill:#fbbc05;stroke-width:0.00738395"
       inkscape:connector-curvature="0"
       id="path4497"
       d="m 0.52274223,1.2187031 c -0.0201975,-0.060398 -0.0318865,-0.1251829 -0.0318865,-0.192093 0,-0.0669374 0.0116891,-0.13165862 0.030824,-0.19209298 l -5.3498e-4,-0.012897 -0.2990271,-0.23575214 -0.009784,0.004541 c -0.0648428,0.1318677 -0.1020499,0.27972027 -0.1020499,0.43620112 0,0.1564809 0.0372071,0.3043243 0.10205015,0.435983 l 0.31040833,-0.24389" />
    <path
       style="fill:#eb4335;stroke-width:0.00738395"
       inkscape:connector-curvature="0"
       id="path4499"
       d="m 1.0670268,0.43090385 c 0.1796522,0 0.3008372,0.0787445 0.3699381,0.14461015 L 1.7069783,0.3078826 C 1.5411477,0.15140174 1.3253438,0.05534616 1.0670268,0.05534616 c -0.3741961,0 -0.69736346,0.21799603 -0.8546929,0.53527189 L 0.52167959,0.83451712 C 0.59928904,0.60033623 0.81402304,0.43090385 1.0670268,0.43090385" />
  </g>
</svg>
