<?xml version="1.0" encoding="UTF-8" standalone="no"?>
<svg
   xmlns:dc="http://purl.org/dc/elements/1.1/"
   xmlns:cc="http://creativecommons.org/ns#"
   xmlns:rdf="http://www.w3.org/1999/02/22-rdf-syntax-ns#"
   xmlns:svg="http://www.w3.org/2000/svg"
   xmlns="http://www.w3.org/2000/svg"
   xmlns:sodipodi="http://sodipodi.sourceforge.net/DTD/sodipodi-0.dtd"
   xmlns:inkscape="http://www.inkscape.org/namespaces/inkscape"
   width="20"
   height="20"
   viewBox="0 0 20 20"
   version="1.1"
   id="svg8"
   sodipodi:docname="icon_tree.svg"
   inkscape:version="0.92.1 r15371">
  <metadata
     id="metadata14">
    <rdf:RDF>
      <cc:Work
         rdf:about="">
        <dc:format>image/svg+xml</dc:format>
        <dc:type
           rdf:resource="http://purl.org/dc/dcmitype/StillImage" />
        <dc:title></dc:title>
      </cc:Work>
    </rdf:RDF>
  </metadata>
  <defs
     id="defs12" />
  <sodipodi:namedview
     pagecolor="#ffffff"
     bordercolor="#666666"
     borderopacity="1"
     objecttolerance="10"
     gridtolerance="10"
     guidetolerance="10"
     inkscape:pageopacity="0"
     inkscape:pageshadow="2"
     inkscape:window-width="1448"
     inkscape:window-height="1156"
     id="namedview10"
     showgrid="false"
     inkscape:zoom="9.8333333"
     inkscape:cx="0.55932203"
     inkscape:cy="12"
     inkscape:window-x="0"
     inkscape:window-y="0"
     inkscape:window-maximized="0"
     inkscape:current-layer="g6" />
  <g
     id="g6"
     style="fill:none;fill-rule:evenodd"
     transform="translate(-2,-2)">
    <path
       d="m 8.5,6.5 h 7 V 6.49896 C 15.5,5.9472481 15.94266,5.5 16.498957,5.5 h 1.002086 C 18.052752,5.5 18.5,5.9426603 18.5,6.4989566 V 7.5010434 C 18.5,8.0527519 18.05734,8.5 17.501043,8.5 H 16.498957 C 15.947248,8.5 15.5,8.0573397 15.5,7.5010434 V 7.5 h -3 v 4 h 3 v -10e-4 c 0,-0.551752 0.44266,-0.999 0.998957,-0.999 h 1.002086 C 18.052752,10.5 18.5,10.94266 18.5,11.498957 v 1.002086 C 18.5,13.052752 18.05734,13.5 17.501043,13.5 H 16.498957 C 15.947248,13.5 15.5,13.05734 15.5,12.501043 V 12.5 h -3 v 4 h 3 v -0.001 c 0,-0.551752 0.44266,-0.999 0.998957,-0.999 h 1.002086 C 18.052752,15.5 18.5,15.94266 18.5,16.498957 v 1.002086 C 18.5,18.052752 18.05734,18.5 17.501043,18.5 H 16.498957 C 15.947248,18.5 15.5,18.05734 15.5,17.501043 V 17.5 H 11.997699 C 11.722827,17.5 11.5,17.268066 11.5,17 c 0,-2.05e-4 0,-4.1e-4 0,-6.15e-4 0,-2.06e-4 0,-4.11e-4 0,-6.16e-4 V 7.5 h -3 V 7.50104 C 8.5,8.0527519 8.0573397,8.5 7.5010434,8.5 H 6.4989566 C 5.9472481,8.5 5.5,8.0573397 5.5,7.5010434 V 6.4989566 C 5.5,5.9472481 5.9426603,5.5 6.4989566,5.5 H 7.5010434 C 8.0527519,5.5 8.5,5.9426603 8.5,6.4989566 Z m 8,6 h 1 v -1 h -1 z m 0,-5 h 1 v -1 h -1 z m -10,0 h 1 v -1 h -1 z m 10,10 h 1 v -1 h -1 z"
       id="path4"
       inkscape:connector-curvature="0"
       style="fill:#000000" />
  </g>
</svg>
