<?xml version="1.0" encoding="UTF-8" standalone="no"?>
<svg
   xmlns:dc="http://purl.org/dc/elements/1.1/"
   xmlns:cc="http://creativecommons.org/ns#"
   xmlns:rdf="http://www.w3.org/1999/02/22-rdf-syntax-ns#"
   xmlns:svg="http://www.w3.org/2000/svg"
   xmlns="http://www.w3.org/2000/svg"
   xmlns:sodipodi="http://sodipodi.sourceforge.net/DTD/sodipodi-0.dtd"
   xmlns:inkscape="http://www.inkscape.org/namespaces/inkscape"
   width="20"
   height="20"
   viewBox="0 0 20 20"
   version="1.1"
   id="svg8"
   sodipodi:docname="icon_cql-toggle.svg"
   inkscape:version="0.92.1 r15371">
  <metadata
     id="metadata14">
    <rdf:RDF>
      <cc:Work
         rdf:about="">
        <dc:format>image/svg+xml</dc:format>
        <dc:type
           rdf:resource="http://purl.org/dc/dcmitype/StillImage" />
        <dc:title></dc:title>
      </cc:Work>
    </rdf:RDF>
  </metadata>
  <defs
     id="defs12" />
  <sodipodi:namedview
     pagecolor="#ffffff"
     bordercolor="#666666"
     borderopacity="1"
     objecttolerance="10"
     gridtolerance="10"
     guidetolerance="10"
     inkscape:pageopacity="0"
     inkscape:pageshadow="2"
     inkscape:window-width="1973"
     inkscape:window-height="1461"
     id="namedview10"
     showgrid="false"
     inkscape:zoom="9.8333333"
     inkscape:cx="0.55932203"
     inkscape:cy="12"
     inkscape:window-x="0"
     inkscape:window-y="0"
     inkscape:window-maximized="0"
     inkscape:current-layer="g6" />
  <g
     id="g6"
     style="fill:none;fill-rule:evenodd"
     transform="translate(-2,-2)">
    <path
       d="M 0,1.9950893 C 0,0.8932319 0.8926228,0 1.9950893,0 H 16.004911 C 17.106768,0 18,0.8926228 18,1.9950893 V 16.004911 C 18,17.106768 17.107377,18 16.004911,18 H 1.9950893 C 0.8932319,18 0,17.107377 0,16.004911 Z M 9,13 c 0,0.556135 0.4476291,1 0.9998075,1 H 13.000193 C 13.556283,14 14,13.552285 14,13 14,12.443865 13.552371,12 13.000193,12 H 9.9998075 C 9.4437167,12 9,12.447715 9,13 Z M 3.2928932,12.292893 c -0.3905243,0.390524 -0.3905243,1.02369 0,1.414214 0.3905243,0.390524 1.0236893,0.390524 1.4142136,0 L 8.7347993,9.6794142 C 9.1272368,9.2869768 9.125032,8.6500335 8.7298871,8.2603223 L 4.7021945,4.2880149 C 4.308976,3.9002035 3.6758262,3.9045869 3.2880149,4.2978054 2.9002035,4.691024 2.9045869,5.3241738 3.2978054,5.7119851 l 3.3107613,3.2652347 z"
       transform="translate(3,3)"
       id="path4"
       inkscape:connector-curvature="0"
       style="fill:#000000" />
  </g>
</svg>
