<?xml version="1.0" encoding="UTF-8" standalone="no"?>
<svg
   xmlns:dc="http://purl.org/dc/elements/1.1/"
   xmlns:cc="http://creativecommons.org/ns#"
   xmlns:rdf="http://www.w3.org/1999/02/22-rdf-syntax-ns#"
   xmlns:svg="http://www.w3.org/2000/svg"
   xmlns="http://www.w3.org/2000/svg"
   xmlns:sodipodi="http://sodipodi.sourceforge.net/DTD/sodipodi-0.dtd"
   xmlns:inkscape="http://www.inkscape.org/namespaces/inkscape"
   width="20"
   height="20"
   viewBox="0 0 20 20"
   version="1.1"
   id="svg8"
   sodipodi:docname="icon_export.svg"
   inkscape:version="0.92.1 r15371">
  <metadata
     id="metadata14">
    <rdf:RDF>
      <cc:Work
         rdf:about="">
        <dc:format>image/svg+xml</dc:format>
        <dc:type
           rdf:resource="http://purl.org/dc/dcmitype/StillImage" />
        <dc:title></dc:title>
      </cc:Work>
    </rdf:RDF>
  </metadata>
  <defs
     id="defs12" />
  <sodipodi:namedview
     pagecolor="#ffffff"
     bordercolor="#666666"
     borderopacity="1"
     objecttolerance="10"
     gridtolerance="10"
     guidetolerance="10"
     inkscape:pageopacity="0"
     inkscape:pageshadow="2"
     inkscape:window-width="1641"
     inkscape:window-height="902"
     id="namedview10"
     showgrid="false"
     inkscape:zoom="9.8333333"
     inkscape:cx="0.55932203"
     inkscape:cy="12"
     inkscape:window-x="0"
     inkscape:window-y="0"
     inkscape:window-maximized="0"
     inkscape:current-layer="g6" />
  <g
     id="g6"
     style="fill:none;fill-rule:evenodd"
     transform="translate(-2,-2)">
    <path
       d="M 12.75,14.18934 V 9 C 12.75,8.5857864 12.414214,8.25 12,8.25 11.585786,8.25 11.25,8.5857864 11.25,9 v 5.18934 L 9.5303301,12.46967 c -0.2928932,-0.292893 -0.767767,-0.292893 -1.0606602,0 -0.2928932,0.292893 -0.2928932,0.767767 0,1.06066 l 3.0000001,3 c 0.292893,0.292893 0.767767,0.292893 1.06066,0 l 3,-3 c 0.292893,-0.292893 0.292893,-0.767767 0,-1.06066 -0.292893,-0.292893 -0.767767,-0.292893 -1.06066,0 z M 15.747247,3.0330314 15.75,3 H 14 V 5.9951185 C 14,7.5176677 15.475873,9 17,9 h 3 V 7.5 H 17 C 16.304731,7.5 15.5,6.694552 15.5,6 l 0.247247,-2.9669686 c 0.224323,0.05535 0.461099,0.1753145 0.607726,0.3219419 l 3.290054,3.2900534 C 19.841073,6.841073 20,7.2199066 20,7.4982674 V 18.994141 C 20,20.101946 19.105486,21 18.00594,21 H 5.9940603 C 4.8927712,21 4,20.107377 4,19.004911 V 4.9950893 C 4,3.8932319 4.9019504,3 6.0085302,3 h 9.4911228 c 0.07679,0 0.16127,0.011731 0.247594,0.033031 z"
       id="path4"
       inkscape:connector-curvature="0"
       style="fill:#000000" />
  </g>
</svg>
