<?xml version="1.0" encoding="UTF-8" standalone="no"?>
<svg
   xmlns:dc="http://purl.org/dc/elements/1.1/"
   xmlns:cc="http://creativecommons.org/ns#"
   xmlns:rdf="http://www.w3.org/1999/02/22-rdf-syntax-ns#"
   xmlns:svg="http://www.w3.org/2000/svg"
   xmlns="http://www.w3.org/2000/svg"
   xmlns:sodipodi="http://sodipodi.sourceforge.net/DTD/sodipodi-0.dtd"
   xmlns:inkscape="http://www.inkscape.org/namespaces/inkscape"
   width="20"
   height="20"
   viewBox="0 0 20 20"
   version="1.1"
   id="svg8"
   sodipodi:docname="icon_insights.svg"
   inkscape:version="0.92.1 r15371">
  <metadata
     id="metadata14">
    <rdf:RDF>
      <cc:Work
         rdf:about="">
        <dc:format>image/svg+xml</dc:format>
        <dc:type
           rdf:resource="http://purl.org/dc/dcmitype/StillImage" />
        <dc:title></dc:title>
      </cc:Work>
    </rdf:RDF>
  </metadata>
  <defs
     id="defs12" />
  <sodipodi:namedview
     pagecolor="#ffffff"
     bordercolor="#666666"
     borderopacity="1"
     objecttolerance="10"
     gridtolerance="10"
     guidetolerance="10"
     inkscape:pageopacity="0"
     inkscape:pageshadow="2"
     inkscape:window-width="2560"
     inkscape:window-height="1490"
     id="namedview10"
     showgrid="false"
     inkscape:zoom="9.8333333"
     inkscape:cx="-1.1694915"
     inkscape:cy="12"
     inkscape:window-x="-12"
     inkscape:window-y="1668"
     inkscape:window-maximized="1"
     inkscape:current-layer="g6" />
  <g
     id="g6"
     style="fill:none;fill-rule:evenodd"
     transform="translate(0,-4)">
    <rect
       width="24"
       height="24"
       id="rect2"
       x="-2"
       y="2" />
    <path
       d="M 3,12.50965 C 3,12.228178 3.214035,12 3.5046844,12 H 4.4953155 C 4.7740451,12 5,12.227653 5,12.50965 v 8.980701 C 5,21.771822 4.785965,22 4.4953155,22 H 3.5046844 C 3.2259549,22 3,21.772347 3,21.490351 Z M 7,6.4963932 C 7,6.2222428 7.214035,6 7.5046844,6 H 8.495316 C 8.774045,6 9,6.226181 9,6.4963932 V 21.503607 C 9,21.777757 8.785965,22 8.495316,22 H 7.5046844 C 7.2259549,22 7,21.773819 7,21.503607 Z m 4,8.0040428 C 11,14.224053 11.214035,14 11.504684,14 h 0.990632 C 12.774045,14 13,14.230797 13,14.500436 v 6.999128 C 13,21.775947 12.785965,22 12.495316,22 H 11.504684 C 11.225955,22 11,21.769203 11,21.499564 Z m 4,-4.000089 C 15,10.224013 15.214035,10 15.504684,10 h 0.990632 C 16.774045,10 17,10.229001 17,10.500347 V 21.499653 C 17,21.775987 16.785965,22 16.495316,22 H 15.504684 C 15.225955,22 15,21.770999 15,21.499653 Z"
       id="path4"
       inkscape:connector-curvature="0"
       style="fill:#000000" />
  </g>
</svg>
