<?xml version="1.0" encoding="UTF-8" standalone="no"?>
<svg
   xmlns:dc="http://purl.org/dc/elements/1.1/"
   xmlns:cc="http://creativecommons.org/ns#"
   xmlns:rdf="http://www.w3.org/1999/02/22-rdf-syntax-ns#"
   xmlns:svg="http://www.w3.org/2000/svg"
   xmlns="http://www.w3.org/2000/svg"
   xmlns:sodipodi="http://sodipodi.sourceforge.net/DTD/sodipodi-0.dtd"
   xmlns:inkscape="http://www.inkscape.org/namespaces/inkscape"
   width="20"
   height="20"
   viewBox="0 0 20 20"
   version="1.1"
   id="svg8"
   sodipodi:docname="icon_send-to.svg"
   inkscape:version="0.92.1 r15371">
  <metadata
     id="metadata14">
    <rdf:RDF>
      <cc:Work
         rdf:about="">
        <dc:format>image/svg+xml</dc:format>
        <dc:type
           rdf:resource="http://purl.org/dc/dcmitype/StillImage" />
        <dc:title></dc:title>
      </cc:Work>
    </rdf:RDF>
  </metadata>
  <defs
     id="defs12" />
  <sodipodi:namedview
     pagecolor="#ffffff"
     bordercolor="#666666"
     borderopacity="1"
     objecttolerance="10"
     gridtolerance="10"
     guidetolerance="10"
     inkscape:pageopacity="0"
     inkscape:pageshadow="2"
     inkscape:window-width="1317"
     inkscape:window-height="921"
     id="namedview10"
     showgrid="false"
     inkscape:zoom="9.8333333"
     inkscape:cx="-1.1694915"
     inkscape:cy="12"
     inkscape:window-x="446"
     inkscape:window-y="1959"
     inkscape:window-maximized="0"
     inkscape:current-layer="g6" />
  <g
     id="g6"
     style="fill:none;fill-rule:evenodd"
     transform="translate(0,-4)">
    <path
       d="M 12.030102,13.2 H 6.2500311 C 5.8358004,13.2 5.5,13.558172 5.5,14 c 0,0.441828 0.3358004,0.8 0.7500311,0.8 h 5.7800709 l -1.232838,1.479367 c -0.279558,0.335461 -0.241787,0.840501 0.08436,1.128038 0.326151,0.287538 0.817175,0.248689 1.096733,-0.08677 L 14.24265,14.603556 C 14.400565,14.456889 14.500373,14.240877 14.500373,14 c 0,-0.240877 -0.09981,-0.456889 -0.257719,-0.603554 l -2.264293,-2.717079 c -0.279558,-0.335461 -0.770582,-0.37431 -1.096733,-0.08677 -0.326151,0.287537 -0.363922,0.792577 -0.08436,1.128038 z M 3,9.0058587 C 3,7.8980535 3.8970601,7 5.0058587,7 H 14.994141 C 16.101946,7 17,7.8970601 17,9.0058587 V 18.994141 C 17,20.101946 16.10294,21 14.994141,21 H 5.0058587 C 3.8980535,21 3,20.10294 3,18.994141 Z"
       id="path4"
       inkscape:connector-curvature="0"
       style="fill:#000000" />
  </g>
</svg>
