<?xml version="1.0" encoding="UTF-8" standalone="no"?>
<svg
   xmlns:dc="http://purl.org/dc/elements/1.1/"
   xmlns:cc="http://creativecommons.org/ns#"
   xmlns:rdf="http://www.w3.org/1999/02/22-rdf-syntax-ns#"
   xmlns:svg="http://www.w3.org/2000/svg"
   xmlns="http://www.w3.org/2000/svg"
   xmlns:sodipodi="http://sodipodi.sourceforge.net/DTD/sodipodi-0.dtd"
   xmlns:inkscape="http://www.inkscape.org/namespaces/inkscape"
   width="20"
   height="20"
   viewBox="0 0 20 20"
   version="1.1"
   id="svg8"
   sodipodi:docname="icon_settings.svg"
   inkscape:version="0.92.1 r15371">
  <metadata
     id="metadata14">
    <rdf:RDF>
      <cc:Work
         rdf:about="">
        <dc:format>image/svg+xml</dc:format>
        <dc:type
           rdf:resource="http://purl.org/dc/dcmitype/StillImage" />
        <dc:title></dc:title>
      </cc:Work>
    </rdf:RDF>
  </metadata>
  <defs
     id="defs12" />
  <sodipodi:namedview
     pagecolor="#ffffff"
     bordercolor="#666666"
     borderopacity="1"
     objecttolerance="10"
     gridtolerance="10"
     guidetolerance="10"
     inkscape:pageopacity="0"
     inkscape:pageshadow="2"
     inkscape:window-width="1701"
     inkscape:window-height="1146"
     id="namedview10"
     showgrid="false"
     inkscape:zoom="6.5555556"
     inkscape:cx="0.83898305"
     inkscape:cy="18"
     inkscape:window-x="0"
     inkscape:window-y="0"
     inkscape:window-maximized="0"
     inkscape:current-layer="g6" />
  <g
     id="g6"
     style="fill:none;fill-rule:evenodd"
     transform="translate(-8,-8)">
    <path
       d="m 13.871748,11.14599 c 0.675009,-0.40744 1.415096,-0.717974 2.201004,-0.912339 L 16.395716,8.734177 C 16.45331,8.4667735 16.715753,8.25 16.995389,8.25 h 2.009222 c 0.273596,0 0.544599,0.2284731 0.599673,0.484177 l 0.322975,1.499527 c 0.785828,0.194382 1.525871,0.504928 2.200859,0.912372 l 1.289408,-0.832402 c 0.229808,-0.148358 0.568665,-0.116065 0.766398,0.08167 l 1.420734,1.420734 c 0.193462,0.193462 0.223535,0.546644 0.08167,0.766398 l -0.832442,1.28947 c 0.407394,0.67495 0.717921,1.414961 0.912317,2.200776 l 1.499622,0.322996 C 27.533227,16.45331 27.75,16.715753 27.75,16.995389 v 2.009222 c 0,0.273596 -0.228473,0.544599 -0.484177,0.599673 l -1.499368,0.322941 c -0.194348,0.785953 -0.504899,1.526088 -0.912373,2.201138 l 0.832244,1.289163 c 0.148358,0.229808 0.116065,0.568665 -0.08167,0.766398 l -1.420734,1.420734 c -0.193462,0.193462 -0.546644,0.223535 -0.766398,0.08167 l -1.289253,-0.832302 c -0.675032,0.407425 -1.415131,0.717951 -2.201023,0.912314 l -0.322966,1.499485 C 19.54669,27.533227 19.284247,27.75 19.004611,27.75 h -2.009222 c -0.273596,0 -0.544599,-0.228473 -0.599673,-0.484177 l -0.322955,-1.499432 c -0.785972,-0.194346 -1.526116,-0.504861 -2.201169,-0.91228 l -1.289118,0.832215 c -0.229808,0.148358 -0.568665,0.116065 -0.766398,-0.08167 L 10.395342,24.183924 C 10.20188,23.990462 10.171807,23.63728 10.313674,23.417526 l 0.832169,-1.289047 C 10.738374,21.453395 10.427838,20.713218 10.233507,19.927217 L 8.734177,19.604284 C 8.4667735,19.54669 8.25,19.284247 8.25,19.004611 v -2.009222 c 0,-0.273596 0.2284731,-0.544599 0.484177,-0.599673 l 1.499584,-0.322987 c 0.194379,-0.785864 0.504891,-1.525917 0.912281,-2.200901 l -0.832368,-1.289354 c -0.148358,-0.229808 -0.116065,-0.568665 0.08167,-0.766398 l 1.420734,-1.420734 c 0.193462,-0.193462 0.546644,-0.223535 0.766398,-0.08167 z M 15.125,18.000225 c 0,1.587791 1.287042,2.874775 2.875,2.874775 1.587733,0 2.875,-1.286984 2.875,-2.874775 C 20.875,16.412209 19.587733,15.125 18,15.125 c -1.587958,0 -2.875,1.287209 -2.875,2.875225 z"
       id="path4"
       inkscape:connector-curvature="0"
       style="fill:#000000" />
  </g>
</svg>
