<?xml version="1.0" encoding="UTF-8" standalone="no"?>
<svg
   xmlns:dc="http://purl.org/dc/elements/1.1/"
   xmlns:cc="http://creativecommons.org/ns#"
   xmlns:rdf="http://www.w3.org/1999/02/22-rdf-syntax-ns#"
   xmlns:svg="http://www.w3.org/2000/svg"
   xmlns="http://www.w3.org/2000/svg"
   xmlns:sodipodi="http://sodipodi.sourceforge.net/DTD/sodipodi-0.dtd"
   xmlns:inkscape="http://www.inkscape.org/namespaces/inkscape"
   width="20"
   height="20"
   viewBox="0 0 20 20"
   version="1.1"
   id="svg8"
   sodipodi:docname="icon_globe.svg"
   inkscape:version="0.92.1 r15371">
  <metadata
     id="metadata14">
    <rdf:RDF>
      <cc:Work
         rdf:about="">
        <dc:format>image/svg+xml</dc:format>
        <dc:type
           rdf:resource="http://purl.org/dc/dcmitype/StillImage" />
        <dc:title></dc:title>
      </cc:Work>
    </rdf:RDF>
  </metadata>
  <defs
     id="defs12" />
  <sodipodi:namedview
     pagecolor="#ffffff"
     bordercolor="#666666"
     borderopacity="1"
     objecttolerance="10"
     gridtolerance="10"
     guidetolerance="10"
     inkscape:pageopacity="0"
     inkscape:pageshadow="2"
     inkscape:window-width="1274"
     inkscape:window-height="1102"
     id="namedview10"
     showgrid="false"
     inkscape:zoom="9.8333333"
     inkscape:cx="0.55932203"
     inkscape:cy="12"
     inkscape:window-x="0"
     inkscape:window-y="0"
     inkscape:window-maximized="0"
     inkscape:current-layer="g6" />
  <g
     id="g6"
     style="fill:none;fill-rule:evenodd"
     transform="translate(-2,-2)">
    <path
       d="m 12,5.5 c -3.588,0 -6.5,2.912 -6.5,6.5 0,3.588 2.912,6.5 6.5,6.5 3.588,0 6.5,-2.912 6.5,-6.5 C 18.5,8.412 15.588,5.5 12,5.5 Z M 11.95154,17.3 C 9.0163845,16.985339 6.75,14.827664 6.75,12.20763 c 0,-0.398142 0.059446,-0.77702 0.1560461,-1.149476 l 3.5593379,3.075972 v 0.642165 c 0,0.706382 0.66877,1.28433 1.486154,1.28433 z m 3.836134,-2.496738 c -0.16905,-0.47399 -0.650192,-0.813391 -1.235365,-0.813391 h -0.650192 v -1.755519 c 0,-0.321845 -0.292587,-0.585173 -0.650192,-0.585173 H 9.350769 v -1.170346 h 1.300385 c 0.357605,0 0.650192,-0.263328 0.650192,-0.585173 V 8.7233139 h 1.300384 c 0.715212,0 1.300385,-0.5266557 1.300385,-1.1703461 V 7.3130469 c 1.905063,0.6963559 3.250961,2.3758021 3.250961,4.3361321 0,1.21716 -0.520154,2.323137 -1.365404,3.154083 z"
       id="path4"
       inkscape:connector-curvature="0"
       style="fill:#000000" />
  </g>
</svg>
