<?xml version="1.0" encoding="UTF-8" standalone="no"?>
<svg
   xmlns:dc="http://purl.org/dc/elements/1.1/"
   xmlns:cc="http://creativecommons.org/ns#"
   xmlns:rdf="http://www.w3.org/1999/02/22-rdf-syntax-ns#"
   xmlns:svg="http://www.w3.org/2000/svg"
   xmlns="http://www.w3.org/2000/svg"
   xmlns:sodipodi="http://sodipodi.sourceforge.net/DTD/sodipodi-0.dtd"
   xmlns:inkscape="http://www.inkscape.org/namespaces/inkscape"
   width="20"
   height="20"
   viewBox="0 0 20 20"
   version="1.1"
   id="svg8"
   sodipodi:docname="icon_full-screen.svg"
   inkscape:version="0.92.1 r15371">
  <metadata
     id="metadata14">
    <rdf:RDF>
      <cc:Work
         rdf:about="">
        <dc:format>image/svg+xml</dc:format>
        <dc:type
           rdf:resource="http://purl.org/dc/dcmitype/StillImage" />
        <dc:title></dc:title>
      </cc:Work>
    </rdf:RDF>
  </metadata>
  <defs
     id="defs12" />
  <sodipodi:namedview
     pagecolor="#ffffff"
     bordercolor="#666666"
     borderopacity="1"
     objecttolerance="10"
     gridtolerance="10"
     guidetolerance="10"
     inkscape:pageopacity="0"
     inkscape:pageshadow="2"
     inkscape:window-width="1800"
     inkscape:window-height="1225"
     id="namedview10"
     showgrid="false"
     inkscape:zoom="9.8333333"
     inkscape:cx="0.55932203"
     inkscape:cy="12"
     inkscape:window-x="0"
     inkscape:window-y="0"
     inkscape:window-maximized="0"
     inkscape:current-layer="g6" />
  <g
     id="g6"
     style="fill:none;fill-rule:evenodd"
     transform="translate(-2,-2)">
    <path
       d="m 18.5,15 c 0,-0.414214 0.335786,-0.75 0.75,-0.75 0.414214,0 0.75,0.335786 0.75,0.75 v 2.990631 C 20,18.54809 19.556283,19 19.000192,19 H 15 c -0.414214,0 -0.75,-0.335786 -0.75,-0.75 0,-0.414214 0.335786,-0.75 0.75,-0.75 h 3.5 z M 4,15 v 2.990631 C 4,18.54809 4.4437166,19 4.9998075,19 H 9 C 9.4142136,19 9.75,18.664214 9.75,18.25 9.75,17.835786 9.4142136,17.5 9,17.5 H 5.5 V 15 C 5.5,14.585786 5.1642136,14.25 4.75,14.25 4.3357864,14.25 4,14.585786 4,15 Z M 20,9 V 6.0093689 C 20,5.4519098 19.556283,5 19.000192,5 H 15 c -0.414214,0 -0.75,0.3357864 -0.75,0.75 0,0.4142136 0.335786,0.75 0.75,0.75 h 3.5 V 9 c 0,0.4142136 0.335786,0.75 0.75,0.75 C 19.664214,9.75 20,9.4142136 20,9 Z M 4,9.25 V 6.0071907 C 4,5.4509346 4.447612,5 4.9998423,5 H 9.25 C 9.6642136,5 10,5.3357864 10,5.75 10,6.1642136 9.6642136,6.5 9.25,6.5 H 5.5 V 9.25 C 5.5,9.6642136 5.1642136,10 4.75,10 4.3357864,10 4,9.6642136 4,9.25 Z"
       id="path4"
       inkscape:connector-curvature="0"
       style="fill:#000000" />
  </g>
</svg>
