<?xml version="1.0" encoding="UTF-8" standalone="no"?>
<svg
   xmlns:dc="http://purl.org/dc/elements/1.1/"
   xmlns:cc="http://creativecommons.org/ns#"
   xmlns:rdf="http://www.w3.org/1999/02/22-rdf-syntax-ns#"
   xmlns:svg="http://www.w3.org/2000/svg"
   xmlns="http://www.w3.org/2000/svg"
   xmlns:sodipodi="http://sodipodi.sourceforge.net/DTD/sodipodi-0.dtd"
   xmlns:inkscape="http://www.inkscape.org/namespaces/inkscape"
   width="20"
   height="20"
   viewBox="0 0 20 20"
   version="1.1"
   id="svg8"
   sodipodi:docname="icon_close.svg"
   inkscape:version="0.92.1 r15371">
  <metadata
     id="metadata14">
    <rdf:RDF>
      <cc:Work
         rdf:about="">
        <dc:format>image/svg+xml</dc:format>
        <dc:type
           rdf:resource="http://purl.org/dc/dcmitype/StillImage" />
        <dc:title></dc:title>
      </cc:Work>
    </rdf:RDF>
  </metadata>
  <defs
     id="defs12" />
  <sodipodi:namedview
     pagecolor="#ffffff"
     bordercolor="#666666"
     borderopacity="1"
     objecttolerance="10"
     gridtolerance="10"
     guidetolerance="10"
     inkscape:pageopacity="0"
     inkscape:pageshadow="2"
     inkscape:window-width="1871"
     inkscape:window-height="1297"
     id="namedview10"
     showgrid="false"
     inkscape:zoom="9.8333333"
     inkscape:cx="0.55932203"
     inkscape:cy="12"
     inkscape:window-x="0"
     inkscape:window-y="0"
     inkscape:window-maximized="0"
     inkscape:current-layer="g6" />
  <g
     id="g6"
     style="fill:none;fill-rule:evenodd"
     transform="translate(-2,-2)">
    <path
       d="M 12.252074,11.190151 8.5302401,7.4695799 C 8.2372972,7.1767364 7.7624234,7.176817 7.4695799,7.4697599 7.1767364,7.7627028 7.176817,8.2375766 7.4697599,8.5304201 L 11.191414,12.250811 7.4725552,15.96967 c -0.2928932,0.292893 -0.2928932,0.767767 0,1.06066 0.2928932,0.292893 0.767767,0.292893 1.0606602,0 l 3.7190386,-3.719039 3.720391,3.719129 c 0.292943,0.292844 0.767817,0.292763 1.06066,-1.8e-4 0.292844,-0.292943 0.292763,-0.767817 -1.8e-4,-1.06066 l -3.720211,-3.718949 3.720301,-3.7203009 c 0.292894,-0.2928932 0.292894,-0.767767 0,-1.0606602 -0.292893,-0.2928932 -0.767767,-0.2928932 -1.06066,0 z"
       id="path4"
       inkscape:connector-curvature="0"
       style="fill:#000000;fill-rule:nonzero" />
  </g>
</svg>
