<?xml version="1.0" encoding="UTF-8"?>
<svg width="141px" height="42px" viewBox="0 0 141 42" version="1.1" xmlns="http://www.w3.org/2000/svg" xmlns:xlink="http://www.w3.org/1999/xlink">
    <!-- Generator: Sketch 43.2 (39069) - http://www.bohemiancoding.com/sketch -->
    <title>Shape</title>
    <desc>Created with Sketch.</desc>
    <defs></defs>
    <g id="Page-1" stroke="none" stroke-width="1" fill="none" fill-rule="evenodd">
        <g id="logo_cmd_large" fill-rule="nonzero" fill="#FFFFFF">
            <path d="M141,3.31775363 L141,33.7329313 C141,36.6610443 139.689537,37 138.703095,37 C137.811558,37 137.221994,36.7550226 136.91427,36.214383 C136.614215,35.8036235 136.450288,35.2883263 136.405231,34.6368133 L136.320871,33.3411788 L135.510819,34.2894101 C134.124623,35.913441 132.583128,36.7360158 130.928513,36.7360158 L127.734182,36.7360158 C125.893591,36.7360158 124.507395,36.2904104 123.367571,35.3210604 C121.374555,33.7265957 120.1149,32.3179759 119.603944,31.0909773 C119.196522,30.2895212 119,29.039292 119,27.2716537 L119,21.4439659 C119,19.801984 119.192687,18.5211326 119.569433,17.6425932 C119.964393,16.724984 120.738976,15.7302915 121.868255,14.6838581 C123.021501,13.6163059 123.944673,12.9003807 124.607094,12.5593131 C125.405642,12.1686164 126.43043,11.9785478 127.734182,11.9785478 L130.928513,11.9785478 C132.324295,11.9785478 133.820734,12.7588852 135.504108,14.3617973 L136.361134,15.1790925 L136.361134,3.31775363 C136.361134,0.34317948 137.698439,0 138.703095,0 C139.689537,0 141,0.34317948 141,3.31775363 Z M136.25,25.4670427 L136.25,23.0329573 C136.25,21.9626937 135.321332,20.5846018 133.119378,18.4043218 C132.939054,18.2473498 132.759732,18.1026094 132.579408,17.9609269 C132.412107,17.8253602 132.242803,17.691832 131.989348,17.4828758 C131.162864,17.0017668 130.018809,16.75 128.680406,16.75 C127.486261,16.75 126.392296,17.190337 125.430569,18.0557217 C124.46784,18.9190677 124,19.9669068 124,21.2563197 L124,27.2416418 C124,28.5463441 124.480864,29.6410709 125.430569,30.4962626 C126.368253,31.3402419 127.433166,31.75 128.680406,31.75 C129.937664,31.75 130.659961,31.6653982 131.174886,31.456442 C131.766949,31.2158875 132.425131,30.7531258 133.127392,30.0885431 C135.230168,28.1692036 136.25,26.6575836 136.25,25.4670427 Z M112.999297,19.1137715 L112.993093,33.8455729 C113.042726,35.0091596 112.824548,35.85417 112.348899,36.359714 C111.938393,36.790053 111.323151,37 110.466983,37 C109.431929,37 108.04841,36.6688896 107.989471,33.8215491 L107.983267,20.2575125 C107.983267,16.3144785 105.594681,16.3144785 104.697152,16.3144785 C103.637282,16.3144785 103.206095,16.5818737 102.500894,17.0216134 L97.338033,20.2084204 L97.331829,33.8455729 C97.381462,35.0091596 97.163284,35.85417 96.687634,36.359714 C96.276095,36.790053 95.661887,37 94.8057184,37 C93.7696305,37 92.3871461,36.6688896 92.3282069,33.8215491 L92.3220028,20.2575125 C92.3220028,16.3144785 89.933417,16.3144785 89.0348538,16.3144785 C87.9760175,16.3144785 87.5448313,16.5818737 86.8396297,17.0216134 L81.0036219,20.6230918 L81.0036219,33.7170979 C81.0036219,36.6271091 79.653192,37 78.4775115,37 C77.252198,37 76,36.6093524 76,33.7170979 L76,14.2797686 C76,11.3739354 77.3245794,11 78.4775115,11 C79.4525922,11 80.7678654,11.2914189 80.9446828,13.8212277 L81.009826,14.7706894 L83.6806992,13.0420215 C85.4829957,11.8585891 87.0257533,11.2600836 88.264509,11.2600836 L90.6303464,11.2600836 C92.2454853,11.2600836 93.7117254,11.8293428 95.103516,12.996063 C95.451981,13.2989716 96.050678,14.1126466 96.252312,14.400932 L96.56045,14.8427607 L99.341963,13.0420215 C101.14426,11.8585891 102.687017,11.2600836 103.925773,11.2600836 L106.291611,11.2600836 C107.906749,11.2600836 109.371956,11.8293428 110.766848,12.998152 C112.184489,14.2244094 112.999297,16.4544432 112.999297,19.1137715 Z M54.5055088,37 C53.2600822,37 52.2726254,36.7554347 51.568293,36.2730661 C50.828637,35.764776 50.1965576,34.9133054 49.6832942,33.7327423 L46.8472326,27.6129736 C46.2777724,26.4476253 46,25.2704433 46,24.0177503 C46,22.77351 46.2777724,21.5839307 46.8499086,20.3780094 L49.6859702,14.2621853 C50.2056562,13.0990911 50.8473693,12.2594544 51.6014759,11.7635615 C52.1343414,11.3973944 52.7919144,11.1619432 53.5637207,11.0593287 C53.7842037,11.0211334 54.0366444,11.0001683 54.3255722,11.0001683 L54.4527782,11.0001683 C54.4691021,11.0000633 58.9651593,11.0000072 59.5839178,11 L63.4253408,11.0593287 C65.7647059,11.0001683 67,11.6499992 67,13.5999993 C67,15.5499993 65.7647059,16.1999994 63.2941176,16.1999994 C60.8235294,16.1999994 63.453711,16.1902764 63.4253408,16.1902764 L59.6542044,16.1999994 C59.0040815,16.2000064 59.0040353,16.2000064 57.0535687,16.2000418 C55.1047367,16.2001072 54.4731319,16.2001346 54.4527782,16.2001684 C54.4527782,16.2001684 54.3152545,16.1991189 54.3662977,16.1902764 L54.2929165,16.2015066 C54.2472552,16.2850426 54.192585,16.3956978 54.126575,16.5427835 L51.2706848,22.7008799 C51.0339686,23.1998188 50.9411765,23.5972034 50.9411765,24.0177503 C50.9411765,24.4323074 51.0268695,24.7958275 51.2883879,25.3335628 L54.1765019,31.5692586 C54.2133362,31.6539815 54.2486107,31.7289959 54.2817242,31.7944338 C54.3483996,31.7979794 54.4230509,31.7999998 54.5054595,31.7999998 C55.6326421,31.799988 55.6326421,31.799988 59.0141953,31.7999291 C59.356376,31.7999218 59.3595999,31.7999218 59.6930567,31.7999142 L63.2941176,31.7999998 C65.7647059,31.7999998 67,32.5269337 67,34.3999999 C67,36.2730661 65.7647059,37 63.2941176,37 L59.5858899,37 C57.1435252,36.9999724 54.5055088,37 54.5055088,37 Z M17.0613392,26.0467125 L4.394576,36.3959391 C3.31654151,37.3101015 1.54797366,37.1697047 0.63465354,36.0898108 C0.17324211,35.5472248 -0.04743292,34.8568527 0.00852773,34.1474796 C0.06554425,33.4381065 0.39602887,32.7931258 0.94085335,32.3307665 L11.2160905,24.0157096 L0.94085335,15.699597 C0.39602887,15.2372378 0.06554425,14.5922571 0.00852773,13.882884 C-0.04743292,13.1735109 0.17324211,12.4831388 0.63465354,11.9405528 C1.14146702,11.3430748 1.88268172,11 2.66718675,11 C3.29859187,11 3.91204734,11.224846 4.394576,11.6354801 L17.0613392,21.9836511 C17.6589568,22.4914018 18,23.2324434 18,24.0157096 C18,24.7979202 17.6589568,25.5389617 17.0613392,26.0467125 Z M21.1104805,37 L34.8895195,37 C37.6465813,37 38,38.3225873 38,39.4757181 C38,40.5585865 37.6713305,42 34.8420011,42 L21.1104805,42 C18.3534187,42 18,40.6505476 18,39.4757181 C18,38.2512916 18.3702482,37 21.1104805,37 Z" id="Shape"></path>
        </g>
    </g>
</svg>