<?xml version="1.0" encoding="UTF-8"?>
<svg width="24px" height="24px" viewBox="0 0 24 24" version="1.1" xmlns="http://www.w3.org/2000/svg" xmlns:xlink="http://www.w3.org/1999/xlink">
    <!-- Generator: Sketch 44.1 (41455) - http://www.bohemiancoding.com/sketch -->
    <title>logo</title>
    <desc>Created with Sketch.</desc>
    <defs></defs>
    <g id="Page-1" stroke="none" stroke-width="1" fill="none" fill-rule="evenodd">
        <g id="toc" transform="translate(-70.000000, -718.000000)">
            <g id="logo" transform="translate(70.000000, 718.000000)">
                <rect id="highlight" fill="#8071F1" x="0" y="0" width="24" height="24" rx="4"></rect>
                <path d="M11.2387694,12.4084774 L6.90392157,15.990902 C6.53499421,16.3073428 5.92975099,16.2587439 5.61719255,15.8849345 C5.4592873,15.6971163 5.3837674,15.4581413 5.40291838,15.2125891 C5.4224307,14.9670368 5.53552988,14.7437743 5.72198092,14.5837269 L9.23839541,11.7054379 L5.72198092,8.82678359 C5.53552988,8.66673615 5.4224307,8.44347362 5.40291838,8.19792138 C5.3837674,7.95236914 5.4592873,7.71339419 5.61719255,7.52557596 C5.79063538,7.31875666 6.04429552,7.2 6.31277058,7.2 C6.52885144,7.2 6.73878953,7.27783129 6.90392157,7.41997388 L11.2387694,11.0020331 C11.4432874,11.1777929 11.56,11.4343073 11.56,11.7054379 C11.56,11.9762031 11.4432874,12.2327175 11.2387694,12.4084774 Z M12.6548891,16.2 L17.5051109,16.2 C18.4755966,16.2 18.6,16.6761314 18.6,17.0912585 C18.6,17.4810911 18.4843083,18 17.4883844,18 L12.6548891,18 C11.6844034,18 11.56,17.5141971 11.56,17.0912585 C11.56,16.650465 11.6903273,16.2 12.6548891,16.2 Z" id="Combined-Shape" fill="#FFFFFF"></path>
            </g>
        </g>
    </g>
</svg>