<?xml version="1.0" encoding="UTF-8"?>
<svg width="452px" height="360px" viewBox="0 0 452 360" version="1.1" xmlns="http://www.w3.org/2000/svg" xmlns:xlink="http://www.w3.org/1999/xlink">
    <!-- Generator: Sketch 44.1 (41455) - http://www.bohemiancoding.com/sketch -->
    <title>Combined Shape</title>
    <desc>Created with Sketch.</desc>
    <defs></defs>
    <g id="Page-1" stroke="none" stroke-width="1" fill="none" fill-rule="evenodd">
        <g id="front" transform="translate(-57.000000, -407.000000)" fill="#6B5ECA">
            <path d="M255.74455,580.637448 L108.191645,700.066414 C95.6338106,710.61575 75.0320738,708.995586 64.3929679,696.533726 C59.018067,690.272342 56.4474622,682.305522 57.099338,674.119432 C57.7635134,665.933342 61.6132708,658.490335 67.9598357,653.154758 L187.654272,557.199893 L67.9598357,461.232846 C61.6132708,455.897269 57.7635134,448.454262 57.099338,440.268172 C56.4474622,432.082082 59.018067,424.115262 64.3929679,417.853878 C70.2967492,410.959046 78.9310293,407 88.0695908,407 C95.4247184,407 102.570754,409.594698 108.191645,414.333372 L255.74455,533.750156 C262.706092,539.609545 266.678845,548.161085 266.678845,557.199893 C266.678845,566.226519 262.706092,574.778059 255.74455,580.637448 Z M305.662812,707.037212 L471.552141,707.037212 C504.745103,707.037212 509,722.679068 509,736.316811 C509,749.12358 505.043065,766.170759 470.980054,766.170759 L305.662812,766.170759 C272.46985,766.170759 268.214953,750.211178 268.214953,736.316811 C268.214953,721.835874 272.672464,707.037212 305.662812,707.037212 Z" id="Combined-Shape"></path>
        </g>
    </g>
</svg>