<?xml version="1.0" encoding="UTF-8"?>
<svg width="173px" height="48px" viewBox="0 0 173 48" version="1.1" xmlns="http://www.w3.org/2000/svg" xmlns:xlink="http://www.w3.org/1999/xlink">
    <!-- Generator: Sketch 44.1 (41455) - http://www.bohemiancoding.com/sketch -->
    <title>Combined Shape</title>
    <desc>Created with Sketch.</desc>
    <defs></defs>
    <g id="Page-1" stroke="none" stroke-width="1" fill="none" fill-rule="evenodd">
        <g id="front" transform="translate(-70.000000, -70.000000)" fill="#6B5ECA">
            <path d="M229.676775,73.7838568 L229.676775,108.643387 C229.676775,111.892538 228.136836,112.268657 226.977658,112.268657 C225.930004,112.268657 225.2372,111.99682 224.875591,111.396905 C224.522993,110.94111 224.33036,110.369316 224.277414,109.646371 L224.178281,108.208683 L223.226381,109.260878 C221.597448,111.062968 219.78602,111.975729 217.841665,111.975729 L215.263084,111.975729 C213.100186,111.975729 211.471253,111.481268 210.131833,110.405639 C207.789819,108.636357 206.309586,107.073297 205.709156,105.71177 C205.230389,104.822443 204.999455,103.435138 204.999455,101.473697 L204.999455,93.8974228 C204.999455,92.0754145 205.225883,90.6541308 205.668602,89.6792684 C206.132724,88.6610529 207.042943,87.5573025 208.369972,86.3961383 C209.725163,85.21154 210.809992,84.4171209 211.58841,84.0386587 C212.526792,83.6051262 213.731031,83.3942185 215.263084,83.3942185 L217.841665,83.3942185 C219.481863,83.3942185 221.240344,84.2601118 223.218495,86.0387669 L224.225595,86.9456701 L224.225595,73.7838568 C224.225595,70.483151 225.797076,70.1023454 226.977658,70.1023454 C228.136836,70.1023454 229.676775,70.483151 229.676775,73.7838568 Z M224.225595,99.0845809 L224.225595,96.2865386 C224.225595,95.0562435 223.18132,93.4720922 220.705252,90.9658055 C220.50248,90.7853623 220.300835,90.6189795 220.098063,90.4561119 C219.909936,90.3002745 219.719556,90.1467806 219.434549,89.9065801 C218.505179,89.3535332 217.218705,89.0641209 215.713688,89.0641209 C214.370888,89.0641209 213.14074,89.5702995 212.059291,90.5650809 C210.976715,91.5575188 210.450635,92.7620363 210.450635,94.2442488 L210.450635,101.124527 C210.450635,102.624315 210.99136,103.882732 212.059291,104.865796 C213.113704,105.835971 214.311183,106.306999 215.713688,106.306999 C217.127457,106.306999 217.939671,106.209747 218.518697,105.969546 C219.184464,105.693023 219.924581,105.161067 220.714264,104.397112 C223.078808,102.190783 224.225595,100.453138 224.225595,99.0845809 Z M197.74062,92.2634504 L197.733561,108.740525 C197.790031,110.041962 197.5418,110.98708 197.000632,111.552516 C196.53358,112.033837 195.833591,112.268657 194.859489,112.268657 C193.681861,112.268657 192.107768,111.89832 192.04071,108.713655 L192.033651,93.5426901 C192.033651,89.1325258 189.316047,89.1325258 188.294887,89.1325258 C187.089024,89.1325258 186.598443,89.4315992 185.796103,89.9234347 L179.922078,93.4877821 L179.91502,108.740525 C179.971489,110.041962 179.723258,110.98708 179.18209,111.552516 C178.713862,112.033837 178.01505,112.268657 177.040948,112.268657 C175.862143,112.268657 174.289226,111.89832 174.222169,108.713655 L174.21511,93.5426901 C174.21511,89.1325258 171.497506,89.1325258 170.475169,89.1325258 C169.270482,89.1325258 168.779902,89.4315992 167.977562,89.9234347 L161.337667,93.9515795 L161.337667,108.59683 C161.337667,111.85159 159.80122,112.268657 158.463594,112.268657 C157.069499,112.268657 155.644815,111.831729 155.644815,108.59683 L155.644815,86.8567641 C155.644815,83.6066775 157.15185,83.188442 158.463594,83.188442 C159.572989,83.188442 161.069436,83.5143853 161.270609,86.3439 L161.344725,87.4058442 L164.383501,85.4723814 C166.434057,84.148748 168.189323,83.4793376 169.598712,83.4793376 L172.290434,83.4793376 C174.128052,83.4793376 175.796261,84.1160369 177.379766,85.4209782 C177.77623,85.7597723 178.457396,86.6698433 178.686804,86.9922818 L179.037387,87.4864538 L182.202042,85.4723814 C184.252598,84.148748 186.007864,83.4793376 187.417254,83.4793376 L190.108976,83.4793376 C191.946594,83.4793376 193.613626,84.1160369 195.20066,85.4233147 C196.813576,86.7948466 197.74062,89.289072 197.74062,92.2634504 Z M132.252766,112.268657 C130.789252,112.268657 129.628881,111.995118 128.801213,111.455603 C127.932035,110.887096 127.189272,109.934752 126.586131,108.614328 L123.253445,101.769551 C122.584267,100.466145 122.257854,99.1495022 122.257854,97.748403 C122.257854,96.3567579 122.584267,95.0262494 123.25659,93.6774629 L126.589276,86.8370985 C127.199964,85.5362129 127.954048,84.5971045 128.840206,84.0424634 C129.466382,83.6329166 130.239103,83.3695715 131.146061,83.2548003 C131.405153,83.21208 131.701798,83.1886311 132.04132,83.1886311 L132.190802,83.1886311 C132.209984,83.1885137 137.493348,83.188451 138.220457,83.1884429 L142.734554,83.2548003 C145.483566,83.1886311 146.935173,83.9154474 146.935173,86.0964635 C146.935173,88.2774796 145.483566,89.004485 142.580352,89.004485 C139.677138,89.004485 142.767892,88.9936102 142.734554,88.9936102 L138.303052,89.004485 C137.539086,89.0044929 137.539032,89.0044929 135.247018,89.0045324 C132.956925,89.0046056 132.21472,89.0046362 132.190802,89.004674 C132.190802,89.004674 132.029196,89.0035002 132.089177,88.9936102 L132.002947,89.0061708 C131.949289,89.0996033 131.885046,89.2233678 131.807477,89.3878787 L128.45149,96.2755233 C128.173323,96.8335713 128.064282,97.278034 128.064282,97.748403 C128.064282,98.2120725 128.16498,98.6186589 128.472293,99.2200995 L131.866146,106.194537 C131.909431,106.289297 131.950882,106.373198 131.989794,106.446388 C132.068145,106.450354 132.155869,106.452614 132.252708,106.452614 C133.577272,106.452601 133.577272,106.452601 137.550971,106.452535 C137.953071,106.452527 137.956859,106.452526 138.348708,106.452518 L142.580352,106.452614 C145.483566,106.452614 146.935173,107.265667 146.935173,109.360635 C146.935173,111.455603 145.483566,112.268657 142.580352,112.268657 L138.222775,112.268657 C135.352727,112.268626 132.252766,112.268657 132.252766,112.268657 Z M89.2627246,100.017735 L74.961598,111.593033 C73.7444672,112.615496 71.7477051,112.458466 70.7165414,111.250638 C70.1955951,110.643772 69.9464469,109.871611 70.009628,109.078199 C70.0740013,108.284786 70.4471276,107.563395 71.0622495,107.04626 L82.6632768,97.7461201 L71.0622495,88.4447994 C70.4471276,87.9276645 70.0740013,87.2062731 70.009628,86.4128607 C69.9464469,85.6194483 70.1955951,84.847288 70.7165414,84.2404219 C71.2887479,83.5721608 72.1255998,83.188442 73.0113277,83.188442 C73.7242016,83.188442 74.4168098,83.4399254 74.961598,83.8992073 L89.2627246,95.4733241 C89.9374513,96.0412279 90.3224986,96.8700605 90.3224986,97.7461201 C90.3224986,98.620999 89.9374513,99.4498316 89.2627246,100.017735 Z M237.664708,73.9402985 L236.829885,73.9402985 L236.829885,70.7864222 L235.715832,70.7864222 L235.715832,70 L238.773847,70 L238.773847,70.7864222 L237.664708,70.7864222 L237.664708,73.9402985 Z M242.105282,70 L243,70 L243,73.9402985 L242.167634,73.9402985 L242.167634,71.7328262 L241.200744,73.9402985 L240.903962,73.9402985 L239.93134,71.7197397 L239.93134,73.9402985 L239.098155,73.9402985 L239.098155,70 L239.99916,70 L241.057443,72.4613152 L242.105282,70 Z M94.1009038,112.268657 L110.179234,112.268657 C113.396363,112.268657 113.808756,113.784697 113.808756,115.106495 C113.808756,116.347753 113.425242,118 110.123786,118 L94.1009038,118 C90.8837746,118 90.4713814,116.453165 90.4713814,115.106495 C90.4713814,113.702973 90.9034124,112.268657 94.1009038,112.268657 Z" id="Combined-Shape"></path>
        </g>
    </g>
</svg>