<svg xmlns="http://www.w3.org/2000/svg" width="24" height="24" viewBox="0 0 24 24">
  <g fill="none" fill-rule="evenodd">
    <rect width="24" height="24"/>
    <path fill="rgba(75, 86, 113, .6)" fill-rule="nonzero" d="M18.2803301,17.2196699 C18.5732233,17.5125631 18.5732233,17.9874369 18.2803301,18.2803301 C17.9874369,18.5732233 17.5125631,18.5732233 17.2196699,18.2803301 L14.3941308,15.4547909 C13.4950115,16.1283348 12.4007278,16.5 11.25,16.5 C8.35050506,16.5 6,14.1494949 6,11.25 C6,8.35050506 8.35050506,6 11.25,6 C14.1494949,6 16.5,8.35050506 16.5,11.25 C16.5,12.4007278 16.1283348,13.4950115 15.4547909,14.3941308 L18.2803301,17.2196699 Z M11.25,15 C13.3210678,15 15,13.3210678 15,11.25 C15,9.17893219 13.3210678,7.5 11.25,7.5 C9.17893219,7.5 7.5,9.17893219 7.5,11.25 C7.5,13.3210678 9.17893219,15 11.25,15 Z"/>
  </g>
</svg>
