<?xml version="1.0" encoding="UTF-8"?>
<svg width="950px" height="200px" viewBox="0 0 950 200" version="1.1" xmlns="http://www.w3.org/2000/svg" xmlns:xlink="http://www.w3.org/1999/xlink">
    <!-- Generator: Sketch 44.1 (41455) - http://www.bohemiancoding.com/sketch -->
    <title>Artboard 3</title>
    <desc>Created with Sketch.</desc>
    <defs>
        <linearGradient x1="50%" y1="0%" x2="50%" y2="100%" id="linearGradient-1">
            <stop stop-color="#FAFAFA" offset="0%"></stop>
            <stop stop-color="#FFFFFF" offset="100%"></stop>
        </linearGradient>
    </defs>
    <g id="Page-1" stroke="none" stroke-width="1" fill="none" fill-rule="evenodd">
        <g id="Artboard-3">
            <g id="web-interface" transform="translate(816.000000, 32.000000)">
                <path d="M52.7777778,86.5609756 L52.7777778,68.804878 L11.6666667,68.804878 C7.98476833,68.804878 5,65.8237497 5,62.1463415 L5,6.65853659 C5,2.98112837 7.98476833,0 11.6666667,0 L98.3333333,0 C102.015232,0 105,2.98112837 105,6.65853659 L105,62.1463415 C105,65.8237497 102.015232,68.804878 98.3333333,68.804878 L57.2222222,68.804878 L57.2222222,86.5609756 L79.4444444,86.5609756 C80.6717439,86.5609756 81.6666667,87.5546851 81.6666667,88.7804878 C81.6666667,90.0062905 80.6717439,91 79.4444444,91 L30.5555556,91 C29.3282561,91 28.3333333,90.0062905 28.3333333,88.7804878 C28.3333333,87.5546851 29.3282561,86.5609756 30.5555556,86.5609756 L52.7777778,86.5609756 Z" id="Combined-Shape" fill="#3B4763"></path>
                <path d="M0,138.864 L2.032,138.864 L4.752,147.968 L7.456,138.864 L9.312,138.864 L12.032,147.968 L14.736,138.864 L16.688,138.864 L12.944,150.064 L11.008,150.064 L8.352,141.328 L5.664,150.064 L3.712,150.064 L0,138.864 Z M20.528,141.488 C23.52,141.488 24.736,143.44 24.512,146.512 L18.08,146.512 C18.368,147.824 19.376,148.64 20.72,148.64 C21.648,148.64 22.496,148.288 23.12,147.648 L24.096,148.688 C23.264,149.6 22.048,150.128 20.576,150.128 C17.952,150.128 16.224,148.384 16.224,145.824 C16.224,143.248 18,141.504 20.528,141.488 Z M18.048,145.168 L22.912,145.168 C22.848,143.792 21.936,142.96 20.544,142.96 C19.2,142.96 18.24,143.808 18.048,145.168 Z M31.328,141.488 C33.744,141.488 35.392,143.248 35.392,145.84 C35.392,148.384 33.792,150.128 31.36,150.128 C30,150.128 28.976,149.584 28.352,148.592 L28.352,150.064 L26.512,150.064 L26.512,138.192 L28.352,138.192 L28.352,143.024 C28.976,142.032 30,141.488 31.328,141.488 Z M30.944,148.56 C32.464,148.56 33.536,147.408 33.536,145.776 C33.536,144.192 32.464,143.024 30.944,143.024 C29.424,143.024 28.352,144.176 28.352,145.776 C28.352,147.424 29.424,148.56 30.944,148.56 Z M42.352,138 C41.744,138 41.28,138.464 41.28,139.12 C41.28,139.76 41.744,140.224 42.352,140.224 C42.96,140.224 43.424,139.76 43.424,139.12 C43.424,138.464 42.96,138 42.352,138 Z M41.44,141.552 L41.44,150.064 L43.264,150.064 L43.264,141.552 L41.44,141.552 Z M50.96,141.488 C49.52,141.488 48.432,142 47.824,143.184 L47.824,141.552 L45.984,141.552 L45.984,150.064 L47.824,150.064 L47.824,145.536 C47.952,144.208 48.832,143.232 50.24,143.216 C51.52,143.216 52.288,144 52.288,145.28 L52.288,150.064 L54.128,150.064 L54.128,144.768 C54.128,142.736 52.944,141.488 50.96,141.488 Z M60.944,148.112 C60.448,148.352 60.048,148.48 59.664,148.48 C59.088,148.48 58.752,148.208 58.752,147.328 L58.752,143.248 L61.264,143.248 L61.264,141.872 L58.752,141.872 L58.752,139.536 L56.928,139.536 L56.928,141.872 L55.728,141.872 L55.728,143.248 L56.928,143.248 L56.928,147.664 C56.928,149.408 58.032,150.144 59.312,150.144 C60.032,150.144 60.736,149.92 61.408,149.52 L60.944,148.112 Z M66.512,141.488 C69.504,141.488 70.72,143.44 70.496,146.512 L64.064,146.512 C64.352,147.824 65.36,148.64 66.704,148.64 C67.632,148.64 68.48,148.288 69.104,147.648 L70.08,148.688 C69.248,149.6 68.032,150.128 66.56,150.128 C63.936,150.128 62.208,148.384 62.208,145.824 C62.208,143.248 63.984,141.504 66.512,141.488 Z M64.032,145.168 L68.896,145.168 C68.832,143.792 67.92,142.96 66.528,142.96 C65.184,142.96 64.224,143.808 64.032,145.168 Z M74.256,143.248 L74.256,141.552 L72.416,141.552 L72.416,150.064 L74.256,150.064 L74.256,145.616 C74.4,144.16 75.488,143.152 77.2,143.248 L77.2,141.488 C75.856,141.488 74.832,142.096 74.256,143.248 Z M82.048,139.712 C81.424,139.712 80.896,140.064 80.896,140.864 L80.896,141.872 L83.12,141.872 L83.12,143.248 L80.896,143.248 L80.896,150.064 L79.072,150.064 L79.072,143.248 L77.952,143.248 L77.952,141.872 L79.072,141.872 L79.072,141.04 C79.072,139.056 80.528,138.112 82,138.112 C82.688,138.112 83.376,138.304 83.92,138.704 L83.216,140.112 C82.864,139.856 82.432,139.712 82.048,139.712 Z M90.624,150.064 L88.816,150.064 L88.816,149.024 C88.208,149.776 87.232,150.144 86,150.144 C84.16,150.144 83.008,149.008 83.008,147.504 C83.008,145.952 84.176,144.96 86.224,144.944 L88.8,144.944 L88.8,144.688 C88.8,143.616 88.112,142.976 86.768,142.976 C85.952,142.976 85.104,143.264 84.256,143.84 L83.504,142.56 C84.688,141.856 85.552,141.488 87.168,141.488 C89.36,141.488 90.592,142.608 90.608,144.48 L90.624,150.064 Z M86.384,148.688 C87.696,148.688 88.704,148 88.8,147.072 L88.8,146.288 L86.496,146.288 C85.296,146.288 84.736,146.608 84.736,147.424 C84.736,148.192 85.36,148.688 86.384,148.688 Z M99.088,144.064 L100.096,142.88 C99.312,141.984 98.112,141.488 96.576,141.488 C94.048,141.488 92.288,143.248 92.288,145.824 C92.288,148.384 94.048,150.128 96.576,150.128 C98.192,150.128 99.424,149.552 100.192,148.544 L99.168,147.52 C98.592,148.192 97.728,148.544 96.656,148.544 C95.184,148.544 94.128,147.44 94.128,145.824 C94.128,144.208 95.184,143.104 96.656,143.104 C97.68,143.088 98.496,143.456 99.088,144.064 Z M105.28,141.488 C108.272,141.488 109.488,143.44 109.264,146.512 L102.832,146.512 C103.12,147.824 104.128,148.64 105.472,148.64 C106.4,148.64 107.248,148.288 107.872,147.648 L108.848,148.688 C108.016,149.6 106.8,150.128 105.328,150.128 C102.704,150.128 100.976,148.384 100.976,145.824 C100.976,143.248 102.752,141.504 105.28,141.488 Z M102.8,145.168 L107.664,145.168 C107.6,143.792 106.688,142.96 105.296,142.96 C103.952,142.96 102.992,143.808 102.8,145.168 Z" id="Web-interface" fill="#34495E" opacity="0.5"></path>
            </g>
            <path d="M697.8284,58.9973654 L775.005616,58.9973654 C776.107084,58.9973654 777,59.8924588 777,60.9966126 C777,62.1007664 776.107084,62.9958599 775.005616,62.9958599 L697.799393,62.9958599 L701.402184,66.5975568 C702.182105,67.3772413 702.183835,68.6430935 701.406047,69.4249168 C700.628259,70.2067401 699.365487,70.2084739 698.585565,69.4287895 L691.586074,62.4314241 C690.805398,61.6509844 690.804532,60.3836374 691.584141,59.6021265 L698.583632,52.585566 C699.362488,51.8048113 700.625261,51.8048113 701.404117,52.585566 C702.182972,53.3663206 702.182972,54.6321739 701.404117,55.4129285 L697.8284,58.9973654 Z M769.978249,95.9834394 L692.994384,95.9834394 C691.892916,95.9834394 691,95.088346 691,93.9841922 C691,92.8800384 691.892916,91.9849449 692.994384,91.9849449 L769.949241,91.9849449 L766.373525,88.4005081 C765.594669,87.6197535 765.594669,86.3539002 766.373525,85.5731455 C767.15238,84.7923909 768.415154,84.7923909 769.194009,85.5731455 L776.1935,92.5897061 C776.973109,93.371217 776.972244,94.638564 776.191567,95.4190037 L769.192076,102.416369 C768.412155,103.196054 767.149382,103.19432 766.371594,102.412496 C765.593807,101.630673 765.595536,100.364821 766.375457,99.5851364 L769.978249,95.9834394 Z" id="left-right" fill="#3B4763" fill-rule="nonzero" opacity="0.300000012"></path>
            <g id="cmd" transform="translate(546.000000, 28.000000)">
                <path d="M22.592,142.672 C25.952,142.672 28.384,145.024 28.384,148.272 C28.384,151.504 25.936,153.872 22.544,153.872 L18,153.872 L18,142.672 L22.592,142.672 Z M22.64,152.176 C24.816,152.176 26.48,150.56 26.48,148.288 C26.48,146 24.768,144.368 22.56,144.368 L19.888,144.368 L19.888,152.176 L22.64,152.176 Z M37.2,153.872 L35.392,153.872 L35.392,152.832 C34.784,153.584 33.808,153.952 32.576,153.952 C30.736,153.952 29.584,152.816 29.584,151.312 C29.584,149.76 30.752,148.768 32.8,148.752 L35.376,148.752 L35.376,148.496 C35.376,147.424 34.688,146.784 33.344,146.784 C32.528,146.784 31.68,147.072 30.832,147.648 L30.08,146.368 C31.264,145.664 32.128,145.296 33.744,145.296 C35.936,145.296 37.168,146.416 37.184,148.288 L37.2,153.872 Z M32.96,152.496 C34.272,152.496 35.28,151.808 35.376,150.88 L35.376,150.096 L33.072,150.096 C31.872,150.096 31.312,150.416 31.312,151.232 C31.312,152 31.936,152.496 32.96,152.496 Z M44.016,151.92 C43.52,152.16 43.12,152.288 42.736,152.288 C42.16,152.288 41.824,152.016 41.824,151.136 L41.824,147.056 L44.336,147.056 L44.336,145.68 L41.824,145.68 L41.824,143.344 L40,143.344 L40,145.68 L38.8,145.68 L38.8,147.056 L40,147.056 L40,151.472 C40,153.216 41.104,153.952 42.384,153.952 C43.104,153.952 43.808,153.728 44.48,153.328 L44.016,151.92 Z M53.088,153.872 L51.28,153.872 L51.28,152.832 C50.672,153.584 49.696,153.952 48.464,153.952 C46.624,153.952 45.472,152.816 45.472,151.312 C45.472,149.76 46.64,148.768 48.688,148.752 L51.264,148.752 L51.264,148.496 C51.264,147.424 50.576,146.784 49.232,146.784 C48.416,146.784 47.568,147.072 46.72,147.648 L45.968,146.368 C47.152,145.664 48.016,145.296 49.632,145.296 C51.824,145.296 53.056,146.416 53.072,148.288 L53.088,153.872 Z M48.848,152.496 C50.16,152.496 51.168,151.808 51.264,150.88 L51.264,150.096 L48.96,150.096 C47.76,150.096 47.2,150.416 47.2,151.232 C47.2,152 47.824,152.496 48.848,152.496 Z M60.448,145.296 C62.864,145.296 64.512,147.056 64.512,149.648 C64.512,152.192 62.912,153.936 60.48,153.936 C59.12,153.936 58.096,153.392 57.472,152.4 L57.472,153.872 L55.632,153.872 L55.632,142 L57.472,142 L57.472,146.832 C58.096,145.84 59.12,145.296 60.448,145.296 Z M60.064,152.368 C61.584,152.368 62.656,151.216 62.656,149.584 C62.656,148 61.584,146.832 60.064,146.832 C58.544,146.832 57.472,147.984 57.472,149.584 C57.472,151.232 58.544,152.368 60.064,152.368 Z M73.344,153.872 L71.536,153.872 L71.536,152.832 C70.928,153.584 69.952,153.952 68.72,153.952 C66.88,153.952 65.728,152.816 65.728,151.312 C65.728,149.76 66.896,148.768 68.944,148.752 L71.52,148.752 L71.52,148.496 C71.52,147.424 70.832,146.784 69.488,146.784 C68.672,146.784 67.824,147.072 66.976,147.648 L66.224,146.368 C67.408,145.664 68.272,145.296 69.888,145.296 C72.08,145.296 73.312,146.416 73.328,148.288 L73.344,153.872 Z M69.104,152.496 C70.416,152.496 71.424,151.808 71.52,150.88 L71.52,150.096 L69.216,150.096 C68.016,150.096 67.456,150.416 67.456,151.232 C67.456,152 68.08,152.496 69.104,152.496 Z M80.656,147.504 L81.328,146.144 C80.56,145.6 79.424,145.28 78.352,145.28 C76.72,145.28 75.216,146.016 75.216,147.744 C75.2,150.816 79.68,149.84 79.68,151.584 C79.68,152.224 79.072,152.496 78.288,152.496 C77.36,152.496 76.176,152.096 75.44,151.44 L74.784,152.752 C75.632,153.52 76.96,153.936 78.208,153.936 C79.92,153.936 81.472,153.152 81.472,151.408 C81.488,148.32 76.96,149.168 76.96,147.6 C76.96,146.992 77.488,146.752 78.208,146.752 C78.96,146.752 79.904,147.04 80.656,147.504 Z M86.832,145.296 C89.824,145.296 91.04,147.248 90.816,150.32 L84.384,150.32 C84.672,151.632 85.68,152.448 87.024,152.448 C87.952,152.448 88.8,152.096 89.424,151.456 L90.4,152.496 C89.568,153.408 88.352,153.936 86.88,153.936 C84.256,153.936 82.528,152.192 82.528,149.632 C82.528,147.056 84.304,145.312 86.832,145.296 Z M84.352,148.976 L89.216,148.976 C89.152,147.6 88.24,146.768 86.848,146.768 C85.504,146.768 84.544,147.616 84.352,148.976 Z" id="Database" fill="#34495E" opacity="0.5"></path>
                <path d="M4,73.7560024 L4,25.45997 L4,25.45997 C4,20.6892418 6.82601574,16.3716335 11.198137,14.4626016 L48.0600444,-1.63268787 L48.0600444,-1.63268787 C51.1217197,-2.96952998 54.6020951,-2.96952998 57.6637704,-1.63268787 L94.5256778,14.4626016 L94.5256778,14.4626016 C98.8977991,16.3716335 101.723815,20.6892418 101.723815,25.45997 L101.723815,73.7560024 L101.723815,73.7560024 C101.723815,78.5267306 98.8977991,82.8443389 94.5256778,84.7533708 L57.6637704,100.84866 L57.6637704,100.84866 C54.6020951,102.185502 51.1217197,102.185502 48.0600444,100.84866 L11.198137,84.7533708 L11.198137,84.7533708 C6.82601574,82.8443389 4,78.5267306 4,73.7560024 Z" id="Line" fill="#6B5ECA" transform="translate(52.861907, 49.607986) rotate(90.000000) translate(-52.861907, -49.607986) "></path>
                <path d="M71.8329704,61.9333333 C74.7787833,61.9333333 76.000005,63.2660756 76.000005,65.442061 C76.000005,67.6068684 74.769293,69 71.7845879,69 L55.2579488,69 C52.3075793,69 51.0909141,67.6458628 51.0909141,65.442061 C51.0909141,63.2296162 52.3073309,61.9333333 55.2579488,61.9333333 L71.8329704,61.9333333 Z M33.2902726,35.3465668 C32.5462262,34.7250525 32.0901173,33.8498822 32.0116429,32.8888534 C31.9347405,31.929321 32.2407879,30.9927572 32.870731,30.2636205 C33.5629856,29.4603391 34.5735819,29 35.6402505,29 C36.5003782,29 37.3348812,29.3018885 37.9917535,29.8521147 L53.0759826,42.4682466 C53.893656,43.1520561 54.3636414,44.1545194 54.3636414,45.2153068 C54.3636414,46.2752565 53.8935088,47.277652 53.0760549,47.961278 L37.9917843,60.5784732 C36.5039729,61.8203168 34.1300516,61.63159 32.8715446,60.1669074 C32.2407879,59.4368278 31.9347405,58.500264 32.011764,57.5392342 C32.0901173,56.5797028 32.5462262,55.7045325 33.2898269,55.0833907 L45.0895218,45.2152697 L33.2902726,35.3465668 Z" id="Combined-Shape" fill="#F7F8FA" fill-rule="nonzero"></path>
            </g>
            <g id="collector" transform="translate(289.000000, 27.000000)">
                <path d="M86,49.7217727 C85.9993587,49.779355 86,49.8370015 86,49.8947112 C86,59.8939861 66.7482442,68 43,68 C19.2517558,68 0,59.8939861 0,49.8947112 C0,49.8370015 0.000641253697,49.779355 0.00192092457,49.7217727 L0,25 C0.000641253697,25.0575823 0,25.1152289 0,25.1729385 C0,35.1722134 19.2517558,43.2782273 43,43.2782273 C66.7482442,43.2782273 86,35.1722134 86,25.1729385 C86,25.1152289 85.9993587,25.0575823 85.9980791,25 L86,49.7217727 Z M86,82.4544501 C85.9993587,82.5128745 86,82.5713642 86,82.6299178 C86,92.7754341 66.7482442,101 43,101 C19.2517558,101 0,92.7754341 0,82.6299178 C0,82.5713642 0.000641253697,82.5128745 0.00192092457,82.4544501 L0,58 C0.000641253697,58.0584245 0,58.1169141 0,58.1754678 C0,68.320984 19.2517558,76.5455499 43,76.5455499 C66.7482442,76.5455499 86,68.320984 86,58.1754678 C86,58.1169141 85.9993587,58.0584245 85.9980791,58 L86,82.4544501 Z M43,36 C19.2517558,36 0,27.9411255 0,18 C0,8.0588745 19.2517558,0 43,0 C66.7482442,0 86,8.0588745 86,18 C86,27.9411255 66.7482442,36 43,36 Z" id="Combined-Shape" fill="#3B4763"></path>
                <path d="M17.04,146.728 L18.144,145.352 C17.056,144.28 15.472,143.624 13.888,143.624 C10.576,143.624 8,146.072 8,149.256 C8,152.472 10.544,154.952 13.824,154.952 C15.408,154.952 17.024,154.232 18.16,153.112 L17.04,151.864 C16.192,152.68 15.04,153.192 13.92,153.192 C11.68,153.192 9.92,151.448 9.92,149.24 C9.92,147.032 11.68,145.304 13.92,145.304 C15.056,145.304 16.224,145.848 17.04,146.728 Z M23.376,146.296 C26,146.296 27.808,148.04 27.808,150.616 C27.808,153.176 26,154.936 23.376,154.936 C20.736,154.936 18.928,153.176 18.928,150.616 C18.928,148.04 20.736,146.296 23.376,146.296 Z M23.376,147.88 C21.84,147.88 20.768,149 20.768,150.632 C20.768,152.28 21.84,153.4 23.376,153.4 C24.896,153.4 25.968,152.28 25.968,150.632 C25.968,149 24.896,147.88 23.376,147.88 Z M29.808,143 L29.808,154.872 L31.648,154.872 L31.648,143 L29.808,143 Z M34.528,143 L34.528,154.872 L36.368,154.872 L36.368,143 L34.528,143 Z M42.672,146.296 C45.664,146.296 46.88,148.248 46.656,151.32 L40.224,151.32 C40.512,152.632 41.52,153.448 42.864,153.448 C43.792,153.448 44.64,153.096 45.264,152.456 L46.24,153.496 C45.408,154.408 44.192,154.936 42.72,154.936 C40.096,154.936 38.368,153.192 38.368,150.632 C38.368,148.056 40.144,146.312 42.672,146.296 Z M40.192,149.976 L45.056,149.976 C44.992,148.6 44.08,147.768 42.688,147.768 C41.344,147.768 40.384,148.616 40.192,149.976 Z M54.576,148.872 L55.584,147.688 C54.8,146.792 53.6,146.296 52.064,146.296 C49.536,146.296 47.776,148.056 47.776,150.632 C47.776,153.192 49.536,154.936 52.064,154.936 C53.68,154.936 54.912,154.36 55.68,153.352 L54.656,152.328 C54.08,153 53.216,153.352 52.144,153.352 C50.672,153.352 49.616,152.248 49.616,150.632 C49.616,149.016 50.672,147.912 52.144,147.912 C53.168,147.896 53.984,148.264 54.576,148.872 Z M61.952,152.92 C61.456,153.16 61.056,153.288 60.672,153.288 C60.096,153.288 59.76,153.016 59.76,152.136 L59.76,148.056 L62.272,148.056 L62.272,146.68 L59.76,146.68 L59.76,144.344 L57.936,144.344 L57.936,146.68 L56.736,146.68 L56.736,148.056 L57.936,148.056 L57.936,152.472 C57.936,154.216 59.04,154.952 60.32,154.952 C61.04,154.952 61.744,154.728 62.416,154.328 L61.952,152.92 Z M67.664,146.296 C70.288,146.296 72.096,148.04 72.096,150.616 C72.096,153.176 70.288,154.936 67.664,154.936 C65.024,154.936 63.216,153.176 63.216,150.616 C63.216,148.04 65.024,146.296 67.664,146.296 Z M67.664,147.88 C66.128,147.88 65.056,149 65.056,150.632 C65.056,152.28 66.128,153.4 67.664,153.4 C69.184,153.4 70.256,152.28 70.256,150.632 C70.256,149 69.184,147.88 67.664,147.88 Z M75.856,148.056 L75.856,146.36 L74.016,146.36 L74.016,154.872 L75.856,154.872 L75.856,150.424 C76,148.968 77.088,147.96 78.8,148.056 L78.8,146.296 C77.456,146.296 76.432,146.904 75.856,148.056 Z" id="Collector" fill="#34495E" opacity="0.5"></path>
            </g>
            <path d="M236.182982,78.9882777 L232.570851,82.5874911 C231.788908,83.366638 231.787174,84.6316173 232.566978,85.4129015 C233.346782,86.1941857 234.612828,86.1959183 235.394771,85.4167715 L242.412406,78.4242311 C243.195107,77.6443296 243.195975,76.3778565 242.414344,75.5968845 L235.396709,68.5851622 C234.615835,67.8049459 233.349787,67.8049459 232.568913,68.5851622 C231.788039,69.3653784 231.788039,70.6303589 232.568913,71.4105752 L236.153899,74.9925404 L158.999554,74.9925404 C157.895231,74.9925404 157,75.8870166 157,76.990409 C157,78.0938014 157.895231,78.9882777 158.999554,78.9882777 L236.182982,78.9882777 L236.182982,78.9882777 Z" id="right" fill="#3C4863" fill-rule="nonzero" opacity="0.300000012"></path>
            <path d="M500.182982,78.9882777 L496.570851,82.5874911 C495.788908,83.366638 495.787174,84.6316173 496.566978,85.4129015 C497.346782,86.1941857 498.612828,86.1959183 499.394771,85.4167715 L506.412406,78.4242311 C507.195107,77.6443296 507.195975,76.3778565 506.414344,75.5968845 L499.396709,68.5851622 C498.615835,67.8049459 497.349787,67.8049459 496.568913,68.5851622 C495.788039,69.3653784 495.788039,70.6303589 496.568913,71.4105752 L500.153899,74.9925404 L422.999554,74.9925404 C421.895231,74.9925404 421,75.8870166 421,76.990409 C421,78.0938014 421.895231,78.9882777 422.999554,78.9882777 L500.182982,78.9882777 L500.182982,78.9882777 Z" id="right-copy" fill="#3C4863" fill-rule="nonzero" opacity="0.300000012"></path>
            <g id="client" transform="translate(18.000000, 27.000000)">
                <path d="M20,11.3227799 C19.9998509,11.3358927 20,11.3490202 20,11.3621619 C20,13.6392246 15.5228475,15.4851485 10,15.4851485 C4.4771525,15.4851485 0,13.6392246 0,11.3621619 C0,11.3490202 0.000149128767,11.3358927 0.000446726643,11.3227799 L0,5.69306931 C0.000149128767,5.70618211 0,5.71930955 0,5.73245134 C0,8.00951395 4.4771525,9.85543791 10,9.85543791 C15.5228475,9.85543791 20,8.00951395 20,5.73245134 C20,5.71930955 19.9998509,5.70618211 19.9995533,5.69306931 L20,11.3227799 Z M20,18.776756 C19.9998509,18.7900605 20,18.80338 20,18.816714 C20,21.127079 15.5228475,23 10,23 C4.4771525,23 0,21.127079 0,18.816714 C0,18.80338 0.000149128767,18.7900605 0.000446726643,18.776756 L0,13.2079208 C0.000149128767,13.2212254 0,13.2345448 0,13.2478788 C0,15.5582439 4.4771525,17.4311648 10,17.4311648 C15.5228475,17.4311648 20,15.5582439 20,13.2478788 C20,13.2345448 19.9998509,13.2212254 19.9995533,13.2079208 L20,18.776756 Z M10,8.1980198 C4.4771525,8.1980198 0,6.36283056 0,4.0990099 C0,1.83518924 4.4771525,0 10,0 C15.5228475,0 20,1.83518924 20,4.0990099 C20,6.36283056 15.5228475,8.1980198 10,8.1980198 Z M60,11.3227799 C59.9998509,11.3358927 60,11.3490202 60,11.3621619 C60,13.6392246 55.5228475,15.4851485 50,15.4851485 C44.4771525,15.4851485 40,13.6392246 40,11.3621619 C40,11.3490202 40.0001491,11.3358927 40.0004467,11.3227799 L40,5.69306931 C40.0001491,5.70618211 40,5.71930955 40,5.73245134 C40,8.00951395 44.4771525,9.85543791 50,9.85543791 C55.5228475,9.85543791 60,8.00951395 60,5.73245134 C60,5.71930955 59.9998509,5.70618211 59.9995533,5.69306931 L60,11.3227799 Z M60,18.776756 C59.9998509,18.7900605 60,18.80338 60,18.816714 C60,21.127079 55.5228475,23 50,23 C44.4771525,23 40,21.127079 40,18.816714 C40,18.80338 40.0001491,18.7900605 40.0004467,18.776756 L40,13.2079208 C40.0001491,13.2212254 40,13.2345448 40,13.2478788 C40,15.5582439 44.4771525,17.4311648 50,17.4311648 C55.5228475,17.4311648 60,15.5582439 60,13.2478788 C60,13.2345448 59.9998509,13.2212254 59.9995533,13.2079208 L60,18.776756 Z M50,8.1980198 C44.4771525,8.1980198 40,6.36283056 40,4.0990099 C40,1.83518924 44.4771525,0 50,0 C55.5228475,0 60,1.83518924 60,4.0990099 C60,6.36283056 55.5228475,8.1980198 50,8.1980198 Z M20,54.3227799 C19.9998509,54.3358927 20,54.3490202 20,54.3621619 C20,56.6392246 15.5228475,58.4851485 10,58.4851485 C4.4771525,58.4851485 0,56.6392246 0,54.3621619 C0,54.3490202 0.000149128767,54.3358927 0.000446726643,54.3227799 L0,48.6930693 C0.000149128767,48.7061821 0,48.7193095 0,48.7324513 C0,51.0095139 4.4771525,52.8554379 10,52.8554379 C15.5228475,52.8554379 20,51.0095139 20,48.7324513 C20,48.7193095 19.9998509,48.7061821 19.9995533,48.6930693 L20,54.3227799 Z M20,61.776756 C19.9998509,61.7900605 20,61.80338 20,61.816714 C20,64.127079 15.5228475,66 10,66 C4.4771525,66 0,64.127079 0,61.816714 C0,61.80338 0.000149128767,61.7900605 0.000446726643,61.776756 L0,56.2079208 C0.000149128767,56.2212254 0,56.2345448 0,56.2478788 C0,58.5582439 4.4771525,60.4311648 10,60.4311648 C15.5228475,60.4311648 20,58.5582439 20,56.2478788 C20,56.2345448 19.9998509,56.2212254 19.9995533,56.2079208 L20,61.776756 Z M10,51.1980198 C4.4771525,51.1980198 0,49.3628306 0,47.0990099 C0,44.8351892 4.4771525,43 10,43 C15.5228475,43 20,44.8351892 20,47.0990099 C20,49.3628306 15.5228475,51.1980198 10,51.1980198 Z M60,54.3227799 C59.9998509,54.3358927 60,54.3490202 60,54.3621619 C60,56.6392246 55.5228475,58.4851485 50,58.4851485 C44.4771525,58.4851485 40,56.6392246 40,54.3621619 C40,54.3490202 40.0001491,54.3358927 40.0004467,54.3227799 L40,48.6930693 C40.0001491,48.7061821 40,48.7193095 40,48.7324513 C40,51.0095139 44.4771525,52.8554379 50,52.8554379 C55.5228475,52.8554379 60,51.0095139 60,48.7324513 C60,48.7193095 59.9998509,48.7061821 59.9995533,48.6930693 L60,54.3227799 Z M60,61.776756 C59.9998509,61.7900605 60,61.80338 60,61.816714 C60,64.127079 55.5228475,66 50,66 C44.4771525,66 40,64.127079 40,61.816714 C40,61.80338 40.0001491,61.7900605 40.0004467,61.776756 L40,56.2079208 C40.0001491,56.2212254 40,56.2345448 40,56.2478788 C40,58.5582439 44.4771525,60.4311648 50,60.4311648 C55.5228475,60.4311648 60,58.5582439 60,56.2478788 C60,56.2345448 59.9998509,56.2212254 59.9995533,56.2079208 L60,61.776756 Z M50,51.1980198 C44.4771525,51.1980198 40,49.3628306 40,47.0990099 C40,44.8351892 44.4771525,43 50,43 C55.5228475,43 60,44.8351892 60,47.0990099 C60,49.3628306 55.5228475,51.1980198 50,51.1980198 Z M20,97.3227799 C19.9998509,97.3358927 20,97.3490202 20,97.3621619 C20,99.6392246 15.5228475,101.485149 10,101.485149 C4.4771525,101.485149 0,99.6392246 0,97.3621619 C0,97.3490202 0.000149128767,97.3358927 0.000446726643,97.3227799 L0,91.6930693 C0.000149128767,91.7061821 0,91.7193095 0,91.7324513 C0,94.0095139 4.4771525,95.8554379 10,95.8554379 C15.5228475,95.8554379 20,94.0095139 20,91.7324513 C20,91.7193095 19.9998509,91.7061821 19.9995533,91.6930693 L20,97.3227799 Z M20,104.776756 C19.9998509,104.790061 20,104.80338 20,104.816714 C20,107.127079 15.5228475,109 10,109 C4.4771525,109 0,107.127079 0,104.816714 C0,104.80338 0.000149128767,104.790061 0.000446726643,104.776756 L0,99.2079208 C0.000149128767,99.2212254 0,99.2345448 0,99.2478788 C0,101.558244 4.4771525,103.431165 10,103.431165 C15.5228475,103.431165 20,101.558244 20,99.2478788 C20,99.2345448 19.9998509,99.2212254 19.9995533,99.2079208 L20,104.776756 Z M10,94.1980198 C4.4771525,94.1980198 0,92.3628306 0,90.0990099 C0,87.8351892 4.4771525,86 10,86 C15.5228475,86 20,87.8351892 20,90.0990099 C20,92.3628306 15.5228475,94.1980198 10,94.1980198 Z M60,97.3227799 C59.9998509,97.3358927 60,97.3490202 60,97.3621619 C60,99.6392246 55.5228475,101.485149 50,101.485149 C44.4771525,101.485149 40,99.6392246 40,97.3621619 C40,97.3490202 40.0001491,97.3358927 40.0004467,97.3227799 L40,91.6930693 C40.0001491,91.7061821 40,91.7193095 40,91.7324513 C40,94.0095139 44.4771525,95.8554379 50,95.8554379 C55.5228475,95.8554379 60,94.0095139 60,91.7324513 C60,91.7193095 59.9998509,91.7061821 59.9995533,91.6930693 L60,97.3227799 Z M60,104.776756 C59.9998509,104.790061 60,104.80338 60,104.816714 C60,107.127079 55.5228475,109 50,109 C44.4771525,109 40,107.127079 40,104.816714 C40,104.80338 40.0001491,104.790061 40.0004467,104.776756 L40,99.2079208 C40.0001491,99.2212254 40,99.2345448 40,99.2478788 C40,101.558244 44.4771525,103.431165 50,103.431165 C55.5228475,103.431165 60,101.558244 60,99.2478788 C60,99.2345448 59.9998509,99.2212254 59.9995533,99.2079208 L60,104.776756 Z M50,94.1980198 C44.4771525,94.1980198 40,92.3628306 40,90.0990099 C40,87.8351892 44.4771525,86 50,86 C55.5228475,86 60,87.8351892 60,90.0990099 C60,92.3628306 55.5228475,94.1980198 50,94.1980198 Z M100,11.3227799 C99.9998509,11.3358927 100,11.3490202 100,11.3621619 C100,13.6392246 95.5228475,15.4851485 90,15.4851485 C84.4771525,15.4851485 80,13.6392246 80,11.3621619 C80,11.3490202 80.0001491,11.3358927 80.0004467,11.3227799 L80,5.69306931 C80.0001491,5.70618211 80,5.71930955 80,5.73245134 C80,8.00951395 84.4771525,9.85543791 90,9.85543791 C95.5228475,9.85543791 100,8.00951395 100,5.73245134 C100,5.71930955 99.9998509,5.70618211 99.9995533,5.69306931 L100,11.3227799 Z M100,18.776756 C99.9998509,18.7900605 100,18.80338 100,18.816714 C100,21.127079 95.5228475,23 90,23 C84.4771525,23 80,21.127079 80,18.816714 C80,18.80338 80.0001491,18.7900605 80.0004467,18.776756 L80,13.2079208 C80.0001491,13.2212254 80,13.2345448 80,13.2478788 C80,15.5582439 84.4771525,17.4311648 90,17.4311648 C95.5228475,17.4311648 100,15.5582439 100,13.2478788 C100,13.2345448 99.9998509,13.2212254 99.9995533,13.2079208 L100,18.776756 Z M90,8.1980198 C84.4771525,8.1980198 80,6.36283056 80,4.0990099 C80,1.83518924 84.4771525,0 90,0 C95.5228475,0 100,1.83518924 100,4.0990099 C100,6.36283056 95.5228475,8.1980198 90,8.1980198 Z M100,54.3227799 C99.9998509,54.3358927 100,54.3490202 100,54.3621619 C100,56.6392246 95.5228475,58.4851485 90,58.4851485 C84.4771525,58.4851485 80,56.6392246 80,54.3621619 C80,54.3490202 80.0001491,54.3358927 80.0004467,54.3227799 L80,48.6930693 C80.0001491,48.7061821 80,48.7193095 80,48.7324513 C80,51.0095139 84.4771525,52.8554379 90,52.8554379 C95.5228475,52.8554379 100,51.0095139 100,48.7324513 C100,48.7193095 99.9998509,48.7061821 99.9995533,48.6930693 L100,54.3227799 Z M100,61.776756 C99.9998509,61.7900605 100,61.80338 100,61.816714 C100,64.127079 95.5228475,66 90,66 C84.4771525,66 80,64.127079 80,61.816714 C80,61.80338 80.0001491,61.7900605 80.0004467,61.776756 L80,56.2079208 C80.0001491,56.2212254 80,56.2345448 80,56.2478788 C80,58.5582439 84.4771525,60.4311648 90,60.4311648 C95.5228475,60.4311648 100,58.5582439 100,56.2478788 C100,56.2345448 99.9998509,56.2212254 99.9995533,56.2079208 L100,61.776756 Z M90,51.1980198 C84.4771525,51.1980198 80,49.3628306 80,47.0990099 C80,44.8351892 84.4771525,43 90,43 C95.5228475,43 100,44.8351892 100,47.0990099 C100,49.3628306 95.5228475,51.1980198 90,51.1980198 Z M100,97.3227799 C99.9998509,97.3358927 100,97.3490202 100,97.3621619 C100,99.6392246 95.5228475,101.485149 90,101.485149 C84.4771525,101.485149 80,99.6392246 80,97.3621619 C80,97.3490202 80.0001491,97.3358927 80.0004467,97.3227799 L80,91.6930693 C80.0001491,91.7061821 80,91.7193095 80,91.7324513 C80,94.0095139 84.4771525,95.8554379 90,95.8554379 C95.5228475,95.8554379 100,94.0095139 100,91.7324513 C100,91.7193095 99.9998509,91.7061821 99.9995533,91.6930693 L100,97.3227799 Z M100,104.776756 C99.9998509,104.790061 100,104.80338 100,104.816714 C100,107.127079 95.5228475,109 90,109 C84.4771525,109 80,107.127079 80,104.816714 C80,104.80338 80.0001491,104.790061 80.0004467,104.776756 L80,99.2079208 C80.0001491,99.2212254 80,99.2345448 80,99.2478788 C80,101.558244 84.4771525,103.431165 90,103.431165 C95.5228475,103.431165 100,101.558244 100,99.2478788 C100,99.2345448 99.9998509,99.2212254 99.9995533,99.2079208 L100,104.776756 Z M90,94.1980198 C84.4771525,94.1980198 80,92.3628306 80,90.0990099 C80,87.8351892 84.4771525,86 90,86 C95.5228475,86 100,87.8351892 100,90.0990099 C100,92.3628306 95.5228475,94.1980198 90,94.1980198 Z" id="Combined-Shape" fill="#759DE0"></path>
                <path d="M37.04,146.92 L38.144,145.544 C37.056,144.472 35.472,143.816 33.888,143.816 C30.576,143.816 28,146.264 28,149.448 C28,152.664 30.544,155.144 33.824,155.144 C35.408,155.144 37.024,154.424 38.16,153.304 L37.04,152.056 C36.192,152.872 35.04,153.384 33.92,153.384 C31.68,153.384 29.92,151.64 29.92,149.432 C29.92,147.224 31.68,145.496 33.92,145.496 C35.056,145.496 36.224,146.04 37.04,146.92 Z M40.048,143.192 L40.048,155.064 L41.888,155.064 L41.888,143.192 L40.048,143.192 Z M45.6,143 C44.992,143 44.528,143.464 44.528,144.12 C44.528,144.76 44.992,145.224 45.6,145.224 C46.208,145.224 46.672,144.76 46.672,144.12 C46.672,143.464 46.208,143 45.6,143 Z M44.688,146.552 L44.688,155.064 L46.512,155.064 L46.512,146.552 L44.688,146.552 Z M52.736,146.488 C55.728,146.488 56.944,148.44 56.72,151.512 L50.288,151.512 C50.576,152.824 51.584,153.64 52.928,153.64 C53.856,153.64 54.704,153.288 55.328,152.648 L56.304,153.688 C55.472,154.6 54.256,155.128 52.784,155.128 C50.16,155.128 48.432,153.384 48.432,150.824 C48.432,148.248 50.208,146.504 52.736,146.488 Z M50.256,150.168 L55.12,150.168 C55.056,148.792 54.144,147.96 52.752,147.96 C51.408,147.96 50.448,148.808 50.256,150.168 Z M63.616,146.488 C62.176,146.488 61.088,147 60.48,148.184 L60.48,146.552 L58.64,146.552 L58.64,155.064 L60.48,155.064 L60.48,150.536 C60.608,149.208 61.488,148.232 62.896,148.216 C64.176,148.216 64.944,149 64.944,150.28 L64.944,155.064 L66.784,155.064 L66.784,149.768 C66.784,147.736 65.6,146.488 63.616,146.488 Z M73.6,153.112 C73.104,153.352 72.704,153.48 72.32,153.48 C71.744,153.48 71.408,153.208 71.408,152.328 L71.408,148.248 L73.92,148.248 L73.92,146.872 L71.408,146.872 L71.408,144.536 L69.584,144.536 L69.584,146.872 L68.384,146.872 L68.384,148.248 L69.584,148.248 L69.584,152.664 C69.584,154.408 70.688,155.144 71.968,155.144 C72.688,155.144 73.392,154.92 74.064,154.52 L73.6,153.112 Z" id="Client" fill="#34495E" opacity="0.5"></path>
            </g>
        </g>
    </g>
</svg>