<?xml version="1.0" encoding="UTF-8" standalone="no"?>
<!-- Created with Inkscape (http://www.inkscape.org/) -->

<svg
   xmlns:dc="http://purl.org/dc/elements/1.1/"
   xmlns:cc="http://creativecommons.org/ns#"
   xmlns:rdf="http://www.w3.org/1999/02/22-rdf-syntax-ns#"
   xmlns:svg="http://www.w3.org/2000/svg"
   xmlns="http://www.w3.org/2000/svg"
   xmlns:sodipodi="http://sodipodi.sourceforge.net/DTD/sodipodi-0.dtd"
   xmlns:inkscape="http://www.inkscape.org/namespaces/inkscape"
   width="79.375mm"
   height="35.876217mm"
   viewBox="0 0 79.374999 35.876217"
   version="1.1"
   id="svg4510"
   inkscape:version="0.92.1 r15371"
   sodipodi:docname="resolve_multi.svg">
  <defs
     id="defs4504" />
  <sodipodi:namedview
     id="base"
     pagecolor="#ffffff"
     bordercolor="#666666"
     borderopacity="1.0"
     inkscape:pageopacity="0.0"
     inkscape:pageshadow="2"
     inkscape:zoom="5.6"
     inkscape:cx="139.09633"
     inkscape:cy="66.241847"
     inkscape:document-units="mm"
     inkscape:current-layer="layer3"
     showgrid="false"
     inkscape:window-width="2560"
     inkscape:window-height="1490"
     inkscape:window-x="-12"
     inkscape:window-y="1668"
     inkscape:window-maximized="1"
     showguides="true"
     inkscape:guide-bbox="true">
    <sodipodi:guide
       position="98.709065,71.76277"
       orientation="0,1"
       id="guide5144"
       inkscape:locked="false" />
    <sodipodi:guide
       position="84.156982,6.5618817"
       orientation="0,1"
       id="guide5146"
       inkscape:locked="false" />
    <sodipodi:guide
       position="204.92037,-33.503597"
       orientation="1,0"
       id="guide5148"
       inkscape:locked="false" />
  </sodipodi:namedview>
  <metadata
     id="metadata4507">
    <rdf:RDF>
      <cc:Work
         rdf:about="">
        <dc:format>image/svg+xml</dc:format>
        <dc:type
           rdf:resource="http://purl.org/dc/dcmitype/StillImage" />
        <dc:title />
      </cc:Work>
    </rdf:RDF>
  </metadata>
  <g
     inkscape:label="bg"
     inkscape:groupmode="layer"
     id="layer1"
     transform="translate(0.81323582,-86.446075)">
    <path
       style="opacity:1;fill:#f8f9fa;fill-opacity:1;stroke:none;stroke-width:0.28658602;stroke-linejoin:round;stroke-miterlimit:4;stroke-dasharray:none;stroke-dashoffset:0;stroke-opacity:1"
       d="M -0.81323582,86.446075 H 78.561764 V 122.32229 H -0.81323582 Z"
       id="rect5132" />
  </g>
  <g
     inkscape:groupmode="layer"
     id="layer3"
     inkscape:label="text">
    <g
       aria-label="Resolve all violations in this session"
       transform="translate(0.81323582,-86.446074)"
       style="font-style:normal;font-variant:normal;font-weight:normal;font-stretch:normal;font-size:2.11666656px;line-height:1.25;font-family:Montserrat;-inkscape-font-specification:Montserrat;letter-spacing:0px;word-spacing:0px;display:inline;fill:#636d84;fill-opacity:1;stroke:none;stroke-width:0.26458332"
       id="text4498">
      <path
         d="M 2.8942236,93.791275 2.6000069,93.325608 q -0.0508,0.0042 -0.08255,0.0042 H 2.1406903 v 0.461433 h -0.2032 v -1.481667 h 0.5799666 q 0.2815167,0 0.4339167,0.131234 0.1545166,0.129116 0.1545166,0.3683 0,0.179916 -0.084667,0.302683 -0.08255,0.122767 -0.2391833,0.1778 l 0.3450166,0.50165 z M 2.5174569,93.145692 q 0.1905,0 0.2921,-0.08255 0.1016,-0.08467 0.1016,-0.24765 0,-0.15875 -0.1016,-0.239184 -0.1016,-0.08255 -0.2921,-0.08255 H 2.1406903 v 0.651934 z"
         style="font-size:2.11666656px;fill:#636d84;fill-opacity:1;stroke-width:0.26458332"
         id="path4813" />
      <path
         d="m 3.8967959,92.665208 q 0.26035,0 0.3937,0.154517 0.13335,0.1524 0.13335,0.42545 0,0.04233 -0.00212,0.0635 H 3.5369626 q 0.023283,0.150283 0.1248833,0.239183 0.1037167,0.0889 0.254,0.0889 0.099483,0 0.18415,-0.03598 0.086783,-0.03598 0.1502833,-0.1016 l 0.10795,0.112183 q -0.08255,0.0889 -0.1989666,0.137584 -0.1164167,0.04868 -0.2582333,0.04868 -0.1651,0 -0.2942167,-0.06985 -0.127,-0.07197 -0.1989667,-0.201083 -0.06985,-0.129117 -0.06985,-0.294217 0,-0.1651 0.06985,-0.2921 0.071967,-0.129117 0.1989667,-0.201083 0.127,-0.07408 0.2899833,-0.07408 z m 0.34925,0.491067 q -0.00847,-0.1524 -0.1016,-0.239183 -0.093133,-0.0889 -0.2455333,-0.0889 -0.1481667,0 -0.24765,0.0889 -0.097367,0.0889 -0.1164167,0.239183 z"
         style="font-size:2.11666656px;fill:#636d84;fill-opacity:1;stroke-width:0.26458332"
         id="path4815" />
      <path
         d="m 5.3041476,92.919208 q -0.06985,-0.04233 -0.1545167,-0.06773 -0.08255,-0.0254 -0.15875,-0.0254 -0.0889,0 -0.1439333,0.03387 -0.052917,0.03175 -0.052917,0.09948 0,0.06773 0.059267,0.103717 0.061383,0.03387 0.18415,0.06985 0.1164166,0.03387 0.1905,0.06773 0.074083,0.03387 0.1248833,0.09948 0.052917,0.06562 0.052917,0.173567 0,0.15875 -0.12065,0.2413 -0.1185334,0.08255 -0.2963334,0.08255 -0.1248833,0 -0.2434166,-0.04022 -0.1164167,-0.04022 -0.19685,-0.1143 l 0.074083,-0.143933 q 0.06985,0.0635 0.17145,0.1016 0.1037167,0.0381 0.2010833,0.0381 0.097367,0 0.1566334,-0.03598 0.059267,-0.03598 0.059267,-0.110067 0,-0.0762 -0.0635,-0.1143 -0.061383,-0.0381 -0.1883833,-0.0762 -0.1121833,-0.03175 -0.18415,-0.0635 -0.06985,-0.03387 -0.12065,-0.09737 -0.048683,-0.0635 -0.048683,-0.1651 0,-0.156633 0.1143,-0.23495 0.1143,-0.07832 0.28575,-0.07832 0.1016,0 0.1989666,0.02963 0.099483,0.02752 0.17145,0.0762 z"
         style="font-size:2.11666656px;fill:#636d84;fill-opacity:1;stroke-width:0.26458332"
         id="path4817" />
      <path
         d="m 6.1337486,92.665208 q 0.1672167,0 0.2963333,0.07197 0.1312333,0.07197 0.2032,0.201083 0.074083,0.127 0.074083,0.2921 0,0.1651 -0.074083,0.294217 -0.071967,0.129117 -0.2032,0.201083 -0.1291166,0.07197 -0.2963333,0.07197 -0.1693333,0 -0.3005667,-0.07197 -0.1291166,-0.07197 -0.2031999,-0.198966 -0.071967,-0.129117 -0.071967,-0.296334 0,-0.1651 0.071967,-0.2921 0.074083,-0.129116 0.2031999,-0.201083 0.1312334,-0.07197 0.3005667,-0.07197 z m 0,0.17145 q -0.1100667,0 -0.19685,0.0508 -0.084667,0.0508 -0.13335,0.141817 -0.046567,0.0889 -0.046567,0.2032 0,0.116417 0.046567,0.207433 0.048683,0.09102 0.13335,0.141817 0.086783,0.04868 0.19685,0.04868 0.10795,0 0.1926167,-0.04868 0.086783,-0.0508 0.1333499,-0.141817 0.048683,-0.09102 0.048683,-0.207433 0,-0.1143 -0.048683,-0.2032 -0.046567,-0.09102 -0.1333499,-0.141817 -0.084667,-0.0508 -0.1926167,-0.0508 z"
         style="font-size:2.11666656px;fill:#636d84;fill-opacity:1;stroke-width:0.26458332"
         id="path4819" />
      <path
         d="m 6.9933137,92.220708 h 0.19685 v 1.570567 h -0.19685 z"
         style="font-size:2.11666656px;fill:#636d84;fill-opacity:1;stroke-width:0.26458332"
         id="path4821" />
      <path
         d="m 7.4000446,92.671558 h 0.20955 l 0.33655,0.924984 0.3344333,-0.924984 H 8.4795446 L 8.0435113,93.791275 H 7.8381946 Z"
         style="font-size:2.11666656px;fill:#636d84;fill-opacity:1;stroke-width:0.26458332"
         id="path4823" />
      <path
         d="m 9.0768413,92.665208 q 0.26035,0 0.3937,0.154517 0.13335,0.1524 0.13335,0.42545 0,0.04233 -0.00212,0.0635 H 8.717008 q 0.023283,0.150283 0.1248833,0.239183 0.1037167,0.0889 0.254,0.0889 0.099483,0 0.18415,-0.03598 0.086783,-0.03598 0.1502833,-0.1016 l 0.10795,0.112183 q -0.08255,0.0889 -0.1989667,0.137584 -0.1164166,0.04868 -0.2582333,0.04868 -0.1651,0 -0.2942166,-0.06985 -0.127,-0.07197 -0.1989667,-0.201083 -0.06985,-0.129117 -0.06985,-0.294217 0,-0.1651 0.06985,-0.2921 0.071967,-0.129117 0.1989667,-0.201083 0.127,-0.07408 0.2899833,-0.07408 z m 0.34925,0.491067 q -0.00847,-0.1524 -0.1016,-0.239183 -0.093133,-0.0889 -0.2455333,-0.0889 -0.1481667,0 -0.24765,0.0889 -0.097367,0.0889 -0.1164167,0.239183 z"
         style="font-size:2.11666656px;fill:#636d84;fill-opacity:1;stroke-width:0.26458332"
         id="path4825" />
      <path
         d="m 11.110131,93.791275 v -0.156633 q -0.124884,0.1651 -0.391584,0.1651 -0.116416,0 -0.205316,-0.04445 -0.08678,-0.04445 -0.135467,-0.122767 -0.04657,-0.07832 -0.04657,-0.175683 0,-0.150284 0.110067,-0.237067 0.112183,-0.0889 0.31115,-0.09102 h 0.3556 v -0.05292 q 0,-0.118534 -0.07408,-0.182034 -0.07197,-0.06562 -0.211667,-0.06562 -0.169333,0 -0.345017,0.12065 l -0.08255,-0.135467 q 0.12065,-0.07832 0.22225,-0.112183 0.103717,-0.03598 0.245534,-0.03598 0.20955,0 0.32385,0.103717 0.1143,0.1016 0.116416,0.28575 l 0.0021,0.7366 z m -0.351367,-0.154517 q 0.137583,0 0.232833,-0.06562 0.09737,-0.06773 0.116417,-0.1778 v -0.112184 h -0.328083 q -0.13335,0 -0.198967,0.04022 -0.0635,0.04022 -0.0635,0.127 0,0.08678 0.06562,0.137583 0.06562,0.0508 0.175683,0.0508 z"
         style="font-size:2.11666656px;fill:#636d84;fill-opacity:1;stroke-width:0.26458332"
         id="path4827" />
      <path
         d="m 11.664863,92.220708 h 0.19685 v 1.570567 h -0.19685 z"
         style="font-size:2.11666656px;fill:#636d84;fill-opacity:1;stroke-width:0.26458332"
         id="path4829" />
      <path
         d="m 12.268444,92.220708 h 0.19685 v 1.570567 h -0.19685 z"
         style="font-size:2.11666656px;fill:#636d84;fill-opacity:1;stroke-width:0.26458332"
         id="path4831" />
      <path
         d="m 13.229146,92.671558 h 0.20955 l 0.33655,0.924984 0.334433,-0.924984 h 0.198967 l -0.436034,1.119717 h -0.205316 z"
         style="font-size:2.11666656px;fill:#636d84;fill-opacity:1;stroke-width:0.26458332"
         id="path4833" />
      <path
         d="m 14.494417,92.671558 h 0.19685 v 1.119717 h -0.19685 z m 0.09737,-0.446616 q 0.05292,0 0.08678,0.03598 0.03598,0.03598 0.03598,0.09102 0,0.05503 -0.03598,0.09102 -0.03387,0.03598 -0.08678,0.03598 -0.05292,0 -0.0889,-0.03598 -0.03387,-0.03598 -0.03387,-0.09102 0,-0.05503 0.03387,-0.09102 0.03598,-0.03598 0.0889,-0.03598 z"
         style="font-size:2.11666656px;fill:#636d84;fill-opacity:1;stroke-width:0.26458332"
         id="path4835" />
      <path
         d="m 15.538859,92.665208 q 0.167216,0 0.296333,0.07197 0.131233,0.07197 0.2032,0.201083 0.07408,0.127 0.07408,0.2921 0,0.1651 -0.07408,0.294217 -0.07197,0.129117 -0.2032,0.201083 -0.129117,0.07197 -0.296333,0.07197 -0.169334,0 -0.300567,-0.07197 -0.129117,-0.07197 -0.2032,-0.198966 -0.07197,-0.129117 -0.07197,-0.296334 0,-0.1651 0.07197,-0.2921 0.07408,-0.129116 0.2032,-0.201083 0.131233,-0.07197 0.300567,-0.07197 z m 0,0.17145 q -0.110067,0 -0.19685,0.0508 -0.08467,0.0508 -0.13335,0.141817 -0.04657,0.0889 -0.04657,0.2032 0,0.116417 0.04657,0.207433 0.04868,0.09102 0.13335,0.141817 0.08678,0.04868 0.19685,0.04868 0.10795,0 0.192616,-0.04868 0.08678,-0.0508 0.13335,-0.141817 0.04868,-0.09102 0.04868,-0.207433 0,-0.1143 -0.04868,-0.2032 -0.04657,-0.09102 -0.13335,-0.141817 -0.08467,-0.0508 -0.192616,-0.0508 z"
         style="font-size:2.11666656px;fill:#636d84;fill-opacity:1;stroke-width:0.26458332"
         id="path4837" />
      <path
         d="m 16.398424,92.220708 h 0.19685 v 1.570567 h -0.19685 z"
         style="font-size:2.11666656px;fill:#636d84;fill-opacity:1;stroke-width:0.26458332"
         id="path4839" />
      <path
         d="m 17.675104,93.791275 v -0.156633 q -0.124883,0.1651 -0.391583,0.1651 -0.116416,0 -0.205316,-0.04445 -0.08678,-0.04445 -0.135467,-0.122767 -0.04657,-0.07832 -0.04657,-0.175683 0,-0.150284 0.110067,-0.237067 0.112183,-0.0889 0.31115,-0.09102 h 0.3556 v -0.05292 q 0,-0.118534 -0.07408,-0.182034 -0.07197,-0.06562 -0.211666,-0.06562 -0.169334,0 -0.345017,0.12065 l -0.08255,-0.135467 q 0.12065,-0.07832 0.22225,-0.112183 0.103717,-0.03598 0.245533,-0.03598 0.20955,0 0.32385,0.103717 0.1143,0.1016 0.116417,0.28575 l 0.0021,0.7366 z m -0.351366,-0.154517 q 0.137583,0 0.232833,-0.06562 0.09737,-0.06773 0.116417,-0.1778 v -0.112184 h -0.328084 q -0.13335,0 -0.198966,0.04022 -0.0635,0.04022 -0.0635,0.127 0,0.08678 0.06562,0.137583 0.06562,0.0508 0.175683,0.0508 z"
         style="font-size:2.11666656px;fill:#636d84;fill-opacity:1;stroke-width:0.26458332"
         id="path4841" />
      <path
         d="m 18.820387,93.717192 q -0.129116,0.08255 -0.262466,0.08255 -0.13335,0 -0.2159,-0.07832 -0.08255,-0.08043 -0.08255,-0.2413 v -0.620183 h -0.15875 v -0.150284 h 0.15875 v -0.300566 h 0.198966 v 0.300566 h 0.3429 v 0.150284 h -0.3429 v 0.5842 q 0,0.09313 0.03387,0.13335 0.03387,0.04022 0.1016,0.04022 0.08043,0 0.173567,-0.05292 z"
         style="font-size:2.11666656px;fill:#636d84;fill-opacity:1;stroke-width:0.26458332"
         id="path4843" />
      <path
         d="m 19.058478,92.671558 h 0.19685 v 1.119717 h -0.19685 z m 0.09737,-0.446616 q 0.05292,0 0.08678,0.03598 0.03598,0.03598 0.03598,0.09102 0,0.05503 -0.03598,0.09102 -0.03387,0.03598 -0.08678,0.03598 -0.05292,0 -0.0889,-0.03598 -0.03387,-0.03598 -0.03387,-0.09102 0,-0.05503 0.03387,-0.09102 0.03598,-0.03598 0.0889,-0.03598 z"
         style="font-size:2.11666656px;fill:#636d84;fill-opacity:1;stroke-width:0.26458332"
         id="path4845" />
      <path
         d="m 20.102922,92.665208 q 0.167216,0 0.296333,0.07197 0.131233,0.07197 0.2032,0.201083 0.07408,0.127 0.07408,0.2921 0,0.1651 -0.07408,0.294217 -0.07197,0.129117 -0.2032,0.201083 -0.129117,0.07197 -0.296333,0.07197 -0.169334,0 -0.300567,-0.07197 -0.129117,-0.07197 -0.2032,-0.198966 -0.07197,-0.129117 -0.07197,-0.296334 0,-0.1651 0.07197,-0.2921 0.07408,-0.129116 0.2032,-0.201083 0.131233,-0.07197 0.300567,-0.07197 z m 0,0.17145 q -0.110067,0 -0.19685,0.0508 -0.08467,0.0508 -0.13335,0.141817 -0.04657,0.0889 -0.04657,0.2032 0,0.116417 0.04657,0.207433 0.04868,0.09102 0.13335,0.141817 0.08678,0.04868 0.19685,0.04868 0.10795,0 0.192616,-0.04868 0.08678,-0.0508 0.13335,-0.141817 0.04868,-0.09102 0.04868,-0.207433 0,-0.1143 -0.04868,-0.2032 -0.04657,-0.09102 -0.13335,-0.141817 -0.08467,-0.0508 -0.192616,-0.0508 z"
         style="font-size:2.11666656px;fill:#636d84;fill-opacity:1;stroke-width:0.26458332"
         id="path4847" />
      <path
         d="m 21.574203,92.665208 q 0.19685,0 0.309033,0.116417 0.112183,0.1143 0.112183,0.3175 v 0.69215 h -0.19685 v -0.639233 q 0,-0.141817 -0.08043,-0.220134 -0.07832,-0.08043 -0.218017,-0.08043 -0.150283,0.0021 -0.245533,0.09737 -0.09313,0.09313 -0.105833,0.243416 v 0.599017 h -0.19685 v -1.119717 h 0.19685 v 0.237067 q 0.112183,-0.239183 0.42545,-0.243417 z"
         style="font-size:2.11666656px;fill:#636d84;fill-opacity:1;stroke-width:0.26458332"
         id="path4849" />
      <path
         d="m 22.956816,92.919208 q -0.06985,-0.04233 -0.154517,-0.06773 -0.08255,-0.0254 -0.15875,-0.0254 -0.0889,0 -0.143933,0.03387 -0.05292,0.03175 -0.05292,0.09948 0,0.06773 0.05927,0.103717 0.06138,0.03387 0.18415,0.06985 0.116416,0.03387 0.1905,0.06773 0.07408,0.03387 0.124883,0.09948 0.05292,0.06562 0.05292,0.173567 0,0.15875 -0.12065,0.2413 -0.118534,0.08255 -0.296334,0.08255 -0.124883,0 -0.243416,-0.04022 -0.116417,-0.04022 -0.19685,-0.1143 l 0.07408,-0.143933 q 0.06985,0.0635 0.17145,0.1016 0.103717,0.0381 0.201083,0.0381 0.09737,0 0.156634,-0.03598 0.05927,-0.03598 0.05927,-0.110067 0,-0.0762 -0.0635,-0.1143 -0.06138,-0.0381 -0.188383,-0.0762 -0.112183,-0.03175 -0.18415,-0.0635 -0.06985,-0.03387 -0.12065,-0.09737 -0.04868,-0.0635 -0.04868,-0.1651 0,-0.156633 0.1143,-0.23495 0.1143,-0.07832 0.28575,-0.07832 0.1016,0 0.198966,0.02963 0.09948,0.02752 0.17145,0.0762 z"
         style="font-size:2.11666656px;fill:#636d84;fill-opacity:1;stroke-width:0.26458332"
         id="path4851" />
      <path
         d="m 23.874722,92.671558 h 0.19685 v 1.119717 h -0.19685 z m 0.09737,-0.446616 q 0.05292,0 0.08678,0.03598 0.03598,0.03598 0.03598,0.09102 0,0.05503 -0.03598,0.09102 -0.03387,0.03598 -0.08678,0.03598 -0.05292,0 -0.0889,-0.03598 -0.03387,-0.03598 -0.03387,-0.09102 0,-0.05503 0.03387,-0.09102 0.03598,-0.03598 0.0889,-0.03598 z"
         style="font-size:2.11666656px;fill:#636d84;fill-opacity:1;stroke-width:0.26458332"
         id="path4853" />
      <path
         d="m 25.075797,92.665208 q 0.19685,0 0.309034,0.116417 0.112183,0.1143 0.112183,0.3175 v 0.69215 h -0.19685 v -0.639233 q 0,-0.141817 -0.08043,-0.220134 -0.07832,-0.08043 -0.218017,-0.08043 -0.150283,0.0021 -0.245533,0.09737 -0.09313,0.09313 -0.105834,0.243416 v 0.599017 h -0.19685 v -1.119717 h 0.19685 v 0.237067 q 0.112184,-0.239183 0.42545,-0.243417 z"
         style="font-size:2.11666656px;fill:#636d84;fill-opacity:1;stroke-width:0.26458332"
         id="path4855" />
      <path
         d="m 27.001799,93.717192 q -0.129117,0.08255 -0.262467,0.08255 -0.13335,0 -0.2159,-0.07832 -0.08255,-0.08043 -0.08255,-0.2413 v -0.620183 h -0.15875 v -0.150284 h 0.15875 v -0.300566 h 0.198967 v 0.300566 h 0.3429 v 0.150284 h -0.3429 v 0.5842 q 0,0.09313 0.03387,0.13335 0.03387,0.04022 0.1016,0.04022 0.08043,0 0.173566,-0.05292 z"
         style="font-size:2.11666656px;fill:#636d84;fill-opacity:1;stroke-width:0.26458332"
         id="path4857" />
      <path
         d="m 27.874891,92.665208 q 0.19685,0 0.309034,0.116417 0.112183,0.1143 0.112183,0.3175 v 0.69215 h -0.19685 v -0.639233 q 0,-0.141817 -0.08043,-0.220134 -0.07832,-0.08043 -0.218017,-0.08043 -0.162983,0.0021 -0.258233,0.110067 -0.09525,0.10795 -0.09525,0.2794 v 0.550333 h -0.19685 v -1.570567 h 0.19685 v 0.69215 q 0.112183,-0.243416 0.427566,-0.24765 z"
         style="font-size:2.11666656px;fill:#636d84;fill-opacity:1;stroke-width:0.26458332"
         id="path4859" />
      <path
         d="m 28.645489,92.671558 h 0.19685 v 1.119717 h -0.19685 z m 0.09737,-0.446616 q 0.05292,0 0.08678,0.03598 0.03598,0.03598 0.03598,0.09102 0,0.05503 -0.03598,0.09102 -0.03387,0.03598 -0.08678,0.03598 -0.05292,0 -0.0889,-0.03598 -0.03387,-0.03598 -0.03387,-0.09102 0,-0.05503 0.03387,-0.09102 0.03598,-0.03598 0.0889,-0.03598 z"
         style="font-size:2.11666656px;fill:#636d84;fill-opacity:1;stroke-width:0.26458332"
         id="path4861" />
      <path
         d="m 29.835983,92.919208 q -0.06985,-0.04233 -0.154517,-0.06773 -0.08255,-0.0254 -0.15875,-0.0254 -0.0889,0 -0.143933,0.03387 -0.05292,0.03175 -0.05292,0.09948 0,0.06773 0.05927,0.103717 0.06138,0.03387 0.18415,0.06985 0.116417,0.03387 0.1905,0.06773 0.07408,0.03387 0.124883,0.09948 0.05292,0.06562 0.05292,0.173567 0,0.15875 -0.12065,0.2413 -0.118533,0.08255 -0.296333,0.08255 -0.124884,0 -0.243417,-0.04022 -0.116417,-0.04022 -0.19685,-0.1143 l 0.07408,-0.143933 q 0.06985,0.0635 0.17145,0.1016 0.103717,0.0381 0.201084,0.0381 0.09737,0 0.156633,-0.03598 0.05927,-0.03598 0.05927,-0.110067 0,-0.0762 -0.0635,-0.1143 -0.06138,-0.0381 -0.188384,-0.0762 -0.112183,-0.03175 -0.18415,-0.0635 -0.06985,-0.03387 -0.12065,-0.09737 -0.04868,-0.0635 -0.04868,-0.1651 0,-0.156633 0.1143,-0.23495 0.1143,-0.07832 0.28575,-0.07832 0.1016,0 0.198967,0.02963 0.09948,0.02752 0.17145,0.0762 z"
         style="font-size:2.11666656px;fill:#636d84;fill-opacity:1;stroke-width:0.26458332"
         id="path4863" />
      <path
         d="m 31.365604,92.919208 q -0.06985,-0.04233 -0.154516,-0.06773 -0.08255,-0.0254 -0.15875,-0.0254 -0.0889,0 -0.143934,0.03387 -0.05292,0.03175 -0.05292,0.09948 0,0.06773 0.05927,0.103717 0.06138,0.03387 0.18415,0.06985 0.116417,0.03387 0.1905,0.06773 0.07408,0.03387 0.124884,0.09948 0.05292,0.06562 0.05292,0.173567 0,0.15875 -0.12065,0.2413 -0.118533,0.08255 -0.296333,0.08255 -0.124883,0 -0.243417,-0.04022 -0.116416,-0.04022 -0.19685,-0.1143 l 0.07408,-0.143933 q 0.06985,0.0635 0.17145,0.1016 0.103716,0.0381 0.201083,0.0381 0.09737,0 0.156633,-0.03598 0.05927,-0.03598 0.05927,-0.110067 0,-0.0762 -0.0635,-0.1143 -0.06138,-0.0381 -0.188383,-0.0762 -0.112184,-0.03175 -0.18415,-0.0635 -0.06985,-0.03387 -0.12065,-0.09737 -0.04868,-0.0635 -0.04868,-0.1651 0,-0.156633 0.1143,-0.23495 0.1143,-0.07832 0.28575,-0.07832 0.1016,0 0.198967,0.02963 0.09948,0.02752 0.17145,0.0762 z"
         style="font-size:2.11666656px;fill:#636d84;fill-opacity:1;stroke-width:0.26458332"
         id="path4865" />
      <path
         d="m 32.178272,92.665208 q 0.26035,0 0.3937,0.154517 0.13335,0.1524 0.13335,0.42545 0,0.04233 -0.0021,0.0635 h -0.884767 q 0.02328,0.150283 0.124884,0.239183 0.103716,0.0889 0.254,0.0889 0.09948,0 0.18415,-0.03598 0.08678,-0.03598 0.150283,-0.1016 l 0.10795,0.112183 q -0.08255,0.0889 -0.198967,0.137584 -0.116416,0.04868 -0.258233,0.04868 -0.1651,0 -0.294217,-0.06985 -0.127,-0.07197 -0.198966,-0.201083 -0.06985,-0.129117 -0.06985,-0.294217 0,-0.1651 0.06985,-0.2921 0.07197,-0.129117 0.198966,-0.201083 0.127,-0.07408 0.289984,-0.07408 z m 0.34925,0.491067 q -0.0085,-0.1524 -0.1016,-0.239183 -0.09313,-0.0889 -0.245534,-0.0889 -0.148166,0 -0.24765,0.0889 -0.09737,0.0889 -0.116416,0.239183 z"
         style="font-size:2.11666656px;fill:#636d84;fill-opacity:1;stroke-width:0.26458332"
         id="path4867" />
      <path
         d="m 33.585625,92.919208 q -0.06985,-0.04233 -0.154517,-0.06773 -0.08255,-0.0254 -0.15875,-0.0254 -0.0889,0 -0.143933,0.03387 -0.05292,0.03175 -0.05292,0.09948 0,0.06773 0.05927,0.103717 0.06138,0.03387 0.18415,0.06985 0.116416,0.03387 0.1905,0.06773 0.07408,0.03387 0.124883,0.09948 0.05292,0.06562 0.05292,0.173567 0,0.15875 -0.12065,0.2413 -0.118534,0.08255 -0.296334,0.08255 -0.124883,0 -0.243416,-0.04022 -0.116417,-0.04022 -0.19685,-0.1143 l 0.07408,-0.143933 q 0.06985,0.0635 0.17145,0.1016 0.103717,0.0381 0.201083,0.0381 0.09737,0 0.156634,-0.03598 0.05927,-0.03598 0.05927,-0.110067 0,-0.0762 -0.0635,-0.1143 -0.06138,-0.0381 -0.188383,-0.0762 -0.112183,-0.03175 -0.18415,-0.0635 -0.06985,-0.03387 -0.12065,-0.09737 -0.04868,-0.0635 -0.04868,-0.1651 0,-0.156633 0.1143,-0.23495 0.1143,-0.07832 0.28575,-0.07832 0.1016,0 0.198966,0.02963 0.09948,0.02752 0.17145,0.0762 z"
         style="font-size:2.11666656px;fill:#636d84;fill-opacity:1;stroke-width:0.26458332"
         id="path4869" />
      <path
         d="m 34.561273,92.919208 q -0.06985,-0.04233 -0.154516,-0.06773 -0.08255,-0.0254 -0.15875,-0.0254 -0.0889,0 -0.143934,0.03387 -0.05292,0.03175 -0.05292,0.09948 0,0.06773 0.05927,0.103717 0.06138,0.03387 0.18415,0.06985 0.116417,0.03387 0.1905,0.06773 0.07408,0.03387 0.124884,0.09948 0.05292,0.06562 0.05292,0.173567 0,0.15875 -0.12065,0.2413 -0.118533,0.08255 -0.296333,0.08255 -0.124883,0 -0.243417,-0.04022 -0.116416,-0.04022 -0.19685,-0.1143 l 0.07408,-0.143933 q 0.06985,0.0635 0.17145,0.1016 0.103716,0.0381 0.201083,0.0381 0.09737,0 0.156633,-0.03598 0.05927,-0.03598 0.05927,-0.110067 0,-0.0762 -0.0635,-0.1143 -0.06138,-0.0381 -0.188383,-0.0762 -0.112184,-0.03175 -0.18415,-0.0635 -0.06985,-0.03387 -0.12065,-0.09737 -0.04868,-0.0635 -0.04868,-0.1651 0,-0.156633 0.1143,-0.23495 0.1143,-0.07832 0.28575,-0.07832 0.1016,0 0.198967,0.02963 0.09948,0.02752 0.17145,0.0762 z"
         style="font-size:2.11666656px;fill:#636d84;fill-opacity:1;stroke-width:0.26458332"
         id="path4871" />
      <path
         d="m 34.925211,92.671558 h 0.19685 v 1.119717 h -0.19685 z m 0.09737,-0.446616 q 0.05292,0 0.08678,0.03598 0.03598,0.03598 0.03598,0.09102 0,0.05503 -0.03598,0.09102 -0.03387,0.03598 -0.08678,0.03598 -0.05292,0 -0.0889,-0.03598 -0.03387,-0.03598 -0.03387,-0.09102 0,-0.05503 0.03387,-0.09102 0.03598,-0.03598 0.0889,-0.03598 z"
         style="font-size:2.11666656px;fill:#636d84;fill-opacity:1;stroke-width:0.26458332"
         id="path4873" />
      <path
         d="m 35.969652,92.665208 q 0.167216,0 0.296333,0.07197 0.131233,0.07197 0.2032,0.201083 0.07408,0.127 0.07408,0.2921 0,0.1651 -0.07408,0.294217 -0.07197,0.129117 -0.2032,0.201083 -0.129117,0.07197 -0.296333,0.07197 -0.169334,0 -0.300567,-0.07197 -0.129117,-0.07197 -0.2032,-0.198966 -0.07197,-0.129117 -0.07197,-0.296334 0,-0.1651 0.07197,-0.2921 0.07408,-0.129116 0.2032,-0.201083 0.131233,-0.07197 0.300567,-0.07197 z m 0,0.17145 q -0.110067,0 -0.19685,0.0508 -0.08467,0.0508 -0.13335,0.141817 -0.04657,0.0889 -0.04657,0.2032 0,0.116417 0.04657,0.207433 0.04868,0.09102 0.13335,0.141817 0.08678,0.04868 0.19685,0.04868 0.10795,0 0.192616,-0.04868 0.08678,-0.0508 0.13335,-0.141817 0.04868,-0.09102 0.04868,-0.207433 0,-0.1143 -0.04868,-0.2032 -0.04657,-0.09102 -0.13335,-0.141817 -0.08467,-0.0508 -0.192616,-0.0508 z"
         style="font-size:2.11666656px;fill:#636d84;fill-opacity:1;stroke-width:0.26458332"
         id="path4875" />
      <path
         d="m 37.440933,92.665208 q 0.19685,0 0.309033,0.116417 0.112183,0.1143 0.112183,0.3175 v 0.69215 h -0.19685 v -0.639233 q 0,-0.141817 -0.08043,-0.220134 -0.07832,-0.08043 -0.218017,-0.08043 -0.150283,0.0021 -0.245533,0.09737 -0.09313,0.09313 -0.105833,0.243416 v 0.599017 h -0.19685 v -1.119717 h 0.19685 v 0.237067 q 0.112183,-0.239183 0.42545,-0.243417 z"
         style="font-size:2.11666656px;fill:#636d84;fill-opacity:1;stroke-width:0.26458332"
         id="path4877" />
    </g>
    <g
       aria-label="Resolve all violations for this command"
       transform="translate(0.81323582,-86.446074)"
       style="font-style:normal;font-variant:normal;font-weight:normal;font-stretch:normal;font-size:2.11666656px;line-height:1.25;font-family:Montserrat;-inkscape-font-specification:Montserrat;letter-spacing:0px;word-spacing:0px;display:inline;fill:#636d84;fill-opacity:1;stroke:none;stroke-width:0.26458332"
       id="text4498-2">
      <path
         d="m 2.8277388,109.80669 -0.2942167,-0.46567 q -0.0508,0.004 -0.08255,0.004 H 2.0742055 v 0.46144 h -0.2032 v -1.48167 h 0.5799666 q 0.2815167,0 0.4339167,0.13123 0.1545166,0.12912 0.1545166,0.3683 0,0.17992 -0.084667,0.30269 -0.08255,0.12276 -0.2391834,0.1778 l 0.3450167,0.50165 z M 2.4509721,109.1611 q 0.1905,0 0.2921,-0.0825 0.1016,-0.0847 0.1016,-0.24765 0,-0.15875 -0.1016,-0.23918 -0.1016,-0.0825 -0.2921,-0.0825 H 2.0742055 v 0.65193 z"
         style="font-size:2.11666656px;fill:#636d84;fill-opacity:1;stroke-width:0.26458332"
         id="path4705" />
      <path
         d="m 3.8303111,108.68062 q 0.26035,0 0.3937,0.15452 0.13335,0.1524 0.13335,0.42545 0,0.0423 -0.00212,0.0635 H 3.4704778 q 0.023283,0.15028 0.1248833,0.23918 0.1037167,0.0889 0.254,0.0889 0.099483,0 0.18415,-0.036 0.086783,-0.036 0.1502833,-0.1016 l 0.10795,0.11218 q -0.08255,0.0889 -0.1989666,0.13758 -0.1164167,0.0487 -0.2582334,0.0487 -0.1650999,0 -0.2942166,-0.0699 -0.127,-0.072 -0.1989667,-0.20109 -0.06985,-0.12911 -0.06985,-0.29421 0,-0.1651 0.06985,-0.2921 0.071967,-0.12912 0.1989667,-0.20109 0.127,-0.0741 0.2899833,-0.0741 z m 0.34925,0.49107 q -0.00847,-0.1524 -0.1016,-0.23919 -0.093133,-0.0889 -0.2455333,-0.0889 -0.1481667,0 -0.24765,0.0889 -0.097367,0.0889 -0.1164167,0.23919 z"
         style="font-size:2.11666656px;fill:#636d84;fill-opacity:1;stroke-width:0.26458332"
         id="path4707" />
      <path
         d="m 5.2376628,108.93462 q -0.06985,-0.0423 -0.1545167,-0.0677 -0.08255,-0.0254 -0.15875,-0.0254 -0.0889,0 -0.1439333,0.0339 -0.052917,0.0318 -0.052917,0.0995 0,0.0677 0.059267,0.10371 0.061383,0.0339 0.18415,0.0698 0.1164166,0.0339 0.1905,0.0677 0.074083,0.0339 0.1248833,0.0995 0.052917,0.0656 0.052917,0.17357 0,0.15875 -0.1206499,0.2413 -0.1185334,0.0825 -0.2963334,0.0825 -0.1248833,0 -0.2434166,-0.0402 -0.1164167,-0.0402 -0.19685,-0.1143 l 0.074083,-0.14393 q 0.06985,0.0635 0.17145,0.1016 0.1037167,0.0381 0.2010833,0.0381 0.097367,0 0.1566334,-0.036 0.059267,-0.036 0.059267,-0.11006 0,-0.0762 -0.0635,-0.1143 -0.061383,-0.0381 -0.1883833,-0.0762 -0.1121833,-0.0318 -0.18415,-0.0635 -0.06985,-0.0339 -0.12065,-0.0974 -0.048683,-0.0635 -0.048683,-0.1651 0,-0.15663 0.1143,-0.23495 0.1143,-0.0783 0.28575,-0.0783 0.1016,0 0.1989666,0.0296 0.099483,0.0275 0.17145,0.0762 z"
         style="font-size:2.11666656px;fill:#636d84;fill-opacity:1;stroke-width:0.26458332"
         id="path4709" />
      <path
         d="m 6.0672638,108.68062 q 0.1672166,0 0.2963333,0.072 0.1312333,0.072 0.2032,0.20108 0.074083,0.127 0.074083,0.2921 0,0.1651 -0.074083,0.29422 -0.071967,0.12911 -0.2032,0.20108 -0.1291167,0.072 -0.2963333,0.072 -0.1693333,0 -0.3005667,-0.072 -0.1291166,-0.072 -0.2032,-0.19897 -0.071967,-0.12911 -0.071967,-0.29633 0,-0.1651 0.071967,-0.2921 0.074083,-0.12912 0.2032,-0.20108 0.1312334,-0.072 0.3005667,-0.072 z m 0,0.17145 q -0.1100667,0 -0.19685,0.0508 -0.084667,0.0508 -0.13335,0.14182 -0.046567,0.0889 -0.046567,0.2032 0,0.11641 0.046567,0.20743 0.048683,0.091 0.13335,0.14182 0.086783,0.0487 0.19685,0.0487 0.10795,0 0.1926166,-0.0487 0.086783,-0.0508 0.13335,-0.14182 0.048683,-0.091 0.048683,-0.20743 0,-0.1143 -0.048683,-0.2032 -0.046567,-0.091 -0.13335,-0.14182 -0.084667,-0.0508 -0.1926166,-0.0508 z"
         style="font-size:2.11666656px;fill:#636d84;fill-opacity:1;stroke-width:0.26458332"
         id="path4711" />
      <path
         d="m 6.9268289,108.23612 h 0.19685 v 1.57057 h -0.19685 z"
         style="font-size:2.11666656px;fill:#636d84;fill-opacity:1;stroke-width:0.26458332"
         id="path4713" />
      <path
         d="m 7.3335598,108.68697 h 0.20955 l 0.33655,0.92498 0.3344333,-0.92498 h 0.1989667 l -0.4360333,1.11972 H 7.7717098 Z"
         style="font-size:2.11666656px;fill:#636d84;fill-opacity:1;stroke-width:0.26458332"
         id="path4715" />
      <path
         d="m 9.0103565,108.68062 q 0.26035,0 0.3937,0.15452 0.13335,0.1524 0.13335,0.42545 0,0.0423 -0.00212,0.0635 H 8.6505232 q 0.023283,0.15028 0.1248833,0.23918 0.1037167,0.0889 0.254,0.0889 0.099483,0 0.18415,-0.036 0.086783,-0.036 0.1502833,-0.1016 l 0.10795,0.11218 q -0.08255,0.0889 -0.1989667,0.13758 -0.1164166,0.0487 -0.2582333,0.0487 -0.1651,0 -0.2942166,-0.0699 -0.127,-0.072 -0.1989667,-0.20109 -0.06985,-0.12911 -0.06985,-0.29421 0,-0.1651 0.06985,-0.2921 0.071967,-0.12912 0.1989667,-0.20109 0.127,-0.0741 0.2899833,-0.0741 z m 0.34925,0.49107 q -0.00847,-0.1524 -0.1016,-0.23919 -0.093133,-0.0889 -0.2455334,-0.0889 -0.1481666,0 -0.2476499,0.0889 -0.097367,0.0889 -0.1164167,0.23919 z"
         style="font-size:2.11666656px;fill:#636d84;fill-opacity:1;stroke-width:0.26458332"
         id="path4717" />
      <path
         d="m 11.043646,109.80669 v -0.15664 q -0.124883,0.1651 -0.391583,0.1651 -0.116417,0 -0.205317,-0.0444 -0.08678,-0.0445 -0.135467,-0.12276 -0.04657,-0.0783 -0.04657,-0.17569 0,-0.15028 0.110066,-0.23706 0.112184,-0.0889 0.31115,-0.091 h 0.3556 v -0.0529 q 0,-0.11853 -0.07408,-0.18203 -0.07197,-0.0656 -0.211667,-0.0656 -0.169333,0 -0.345016,0.12065 l -0.08255,-0.13546 q 0.12065,-0.0783 0.22225,-0.11219 0.103716,-0.036 0.245533,-0.036 0.20955,0 0.32385,0.10372 0.1143,0.1016 0.116416,0.28575 l 0.0021,0.7366 z m -0.351367,-0.15452 q 0.137584,0 0.232834,-0.0656 0.09737,-0.0677 0.116416,-0.1778 v -0.11218 h -0.328083 q -0.13335,0 -0.198967,0.0402 -0.0635,0.0402 -0.0635,0.127 0,0.0868 0.06562,0.13758 0.06562,0.0508 0.175683,0.0508 z"
         style="font-size:2.11666656px;fill:#636d84;fill-opacity:1;stroke-width:0.26458332"
         id="path4719" />
      <path
         d="m 11.598379,108.23612 h 0.19685 v 1.57057 h -0.19685 z"
         style="font-size:2.11666656px;fill:#636d84;fill-opacity:1;stroke-width:0.26458332"
         id="path4721" />
      <path
         d="m 12.201959,108.23612 h 0.19685 v 1.57057 h -0.19685 z"
         style="font-size:2.11666656px;fill:#636d84;fill-opacity:1;stroke-width:0.26458332"
         id="path4723" />
      <path
         d="m 13.162661,108.68697 h 0.20955 l 0.33655,0.92498 0.334433,-0.92498 h 0.198967 l -0.436033,1.11972 h -0.205317 z"
         style="font-size:2.11666656px;fill:#636d84;fill-opacity:1;stroke-width:0.26458332"
         id="path4725" />
      <path
         d="m 14.427932,108.68697 h 0.19685 v 1.11972 h -0.19685 z m 0.09737,-0.44662 q 0.05292,0 0.08678,0.036 0.03598,0.036 0.03598,0.091 0,0.055 -0.03598,0.091 -0.03387,0.036 -0.08678,0.036 -0.05292,0 -0.0889,-0.036 -0.03387,-0.036 -0.03387,-0.091 0,-0.055 0.03387,-0.091 0.03598,-0.036 0.0889,-0.036 z"
         style="font-size:2.11666656px;fill:#636d84;fill-opacity:1;stroke-width:0.26458332"
         id="path4727" />
      <path
         d="m 15.472374,108.68062 q 0.167217,0 0.296333,0.072 0.131234,0.072 0.2032,0.20108 0.07408,0.127 0.07408,0.2921 0,0.1651 -0.07408,0.29422 -0.07197,0.12911 -0.2032,0.20108 -0.129116,0.072 -0.296333,0.072 -0.169333,0 -0.300567,-0.072 -0.129116,-0.072 -0.2032,-0.19897 -0.07197,-0.12911 -0.07197,-0.29633 0,-0.1651 0.07197,-0.2921 0.07408,-0.12912 0.2032,-0.20108 0.131234,-0.072 0.300567,-0.072 z m 0,0.17145 q -0.110067,0 -0.19685,0.0508 -0.08467,0.0508 -0.13335,0.14182 -0.04657,0.0889 -0.04657,0.2032 0,0.11641 0.04657,0.20743 0.04868,0.091 0.13335,0.14182 0.08678,0.0487 0.19685,0.0487 0.10795,0 0.192617,-0.0487 0.08678,-0.0508 0.13335,-0.14182 0.04868,-0.091 0.04868,-0.20743 0,-0.1143 -0.04868,-0.2032 -0.04657,-0.091 -0.13335,-0.14182 -0.08467,-0.0508 -0.192617,-0.0508 z"
         style="font-size:2.11666656px;fill:#636d84;fill-opacity:1;stroke-width:0.26458332"
         id="path4729" />
      <path
         d="m 16.331939,108.23612 h 0.19685 v 1.57057 h -0.19685 z"
         style="font-size:2.11666656px;fill:#636d84;fill-opacity:1;stroke-width:0.26458332"
         id="path4731" />
      <path
         d="m 17.60862,109.80669 v -0.15664 q -0.124884,0.1651 -0.391584,0.1651 -0.116416,0 -0.205316,-0.0444 -0.08678,-0.0445 -0.135467,-0.12276 -0.04657,-0.0783 -0.04657,-0.17569 0,-0.15028 0.110067,-0.23706 0.112183,-0.0889 0.31115,-0.091 h 0.3556 v -0.0529 q 0,-0.11853 -0.07408,-0.18203 -0.07197,-0.0656 -0.211667,-0.0656 -0.169333,0 -0.345017,0.12065 l -0.08255,-0.13546 q 0.12065,-0.0783 0.22225,-0.11219 0.103717,-0.036 0.245534,-0.036 0.20955,0 0.32385,0.10372 0.1143,0.1016 0.116416,0.28575 l 0.0021,0.7366 z m -0.351367,-0.15452 q 0.137583,0 0.232833,-0.0656 0.09737,-0.0677 0.116417,-0.1778 v -0.11218 H 17.27842 q -0.13335,0 -0.198967,0.0402 -0.0635,0.0402 -0.0635,0.127 0,0.0868 0.06562,0.13758 0.06562,0.0508 0.175683,0.0508 z"
         style="font-size:2.11666656px;fill:#636d84;fill-opacity:1;stroke-width:0.26458332"
         id="path4733" />
      <path
         d="m 18.753902,109.7326 q -0.129116,0.0825 -0.262466,0.0825 -0.13335,0 -0.2159,-0.0783 -0.08255,-0.0804 -0.08255,-0.2413 v -0.62019 h -0.15875 v -0.15028 h 0.15875 v -0.30057 h 0.198966 v 0.30057 h 0.3429 v 0.15028 h -0.3429 v 0.5842 q 0,0.0931 0.03387,0.13335 0.03387,0.0402 0.1016,0.0402 0.08043,0 0.173567,-0.0529 z"
         style="font-size:2.11666656px;fill:#636d84;fill-opacity:1;stroke-width:0.26458332"
         id="path4735" />
      <path
         d="m 18.991993,108.68697 h 0.19685 v 1.11972 h -0.19685 z m 0.09737,-0.44662 q 0.05292,0 0.08678,0.036 0.03598,0.036 0.03598,0.091 0,0.055 -0.03598,0.091 -0.03387,0.036 -0.08678,0.036 -0.05292,0 -0.0889,-0.036 -0.03387,-0.036 -0.03387,-0.091 0,-0.055 0.03387,-0.091 0.03598,-0.036 0.0889,-0.036 z"
         style="font-size:2.11666656px;fill:#636d84;fill-opacity:1;stroke-width:0.26458332"
         id="path4737" />
      <path
         d="m 20.036437,108.68062 q 0.167217,0 0.296333,0.072 0.131234,0.072 0.2032,0.20108 0.07408,0.127 0.07408,0.2921 0,0.1651 -0.07408,0.29422 -0.07197,0.12911 -0.2032,0.20108 -0.129116,0.072 -0.296333,0.072 -0.169333,0 -0.300567,-0.072 -0.129116,-0.072 -0.2032,-0.19897 -0.07197,-0.12911 -0.07197,-0.29633 0,-0.1651 0.07197,-0.2921 0.07408,-0.12912 0.2032,-0.20108 0.131234,-0.072 0.300567,-0.072 z m 0,0.17145 q -0.110067,0 -0.19685,0.0508 -0.08467,0.0508 -0.13335,0.14182 -0.04657,0.0889 -0.04657,0.2032 0,0.11641 0.04657,0.20743 0.04868,0.091 0.13335,0.14182 0.08678,0.0487 0.19685,0.0487 0.10795,0 0.192617,-0.0487 0.08678,-0.0508 0.13335,-0.14182 0.04868,-0.091 0.04868,-0.20743 0,-0.1143 -0.04868,-0.2032 -0.04657,-0.091 -0.13335,-0.14182 -0.08467,-0.0508 -0.192617,-0.0508 z"
         style="font-size:2.11666656px;fill:#636d84;fill-opacity:1;stroke-width:0.26458332"
         id="path4739" />
      <path
         d="m 21.507718,108.68062 q 0.19685,0 0.309033,0.11642 0.112184,0.1143 0.112184,0.3175 v 0.69215 h -0.19685 v -0.63924 q 0,-0.14181 -0.08043,-0.22013 -0.07832,-0.0804 -0.218016,-0.0804 -0.150284,0.002 -0.245534,0.0974 -0.09313,0.0931 -0.105833,0.24342 v 0.59902 h -0.19685 v -1.11972 h 0.19685 v 0.23707 q 0.112183,-0.23919 0.42545,-0.24342 z"
         style="font-size:2.11666656px;fill:#636d84;fill-opacity:1;stroke-width:0.26458332"
         id="path4741" />
      <path
         d="m 22.890331,108.93462 q -0.06985,-0.0423 -0.154517,-0.0677 -0.08255,-0.0254 -0.15875,-0.0254 -0.0889,0 -0.143933,0.0339 -0.05292,0.0318 -0.05292,0.0995 0,0.0677 0.05927,0.10371 0.06138,0.0339 0.18415,0.0698 0.116416,0.0339 0.1905,0.0677 0.07408,0.0339 0.124883,0.0995 0.05292,0.0656 0.05292,0.17357 0,0.15875 -0.12065,0.2413 -0.118534,0.0825 -0.296334,0.0825 -0.124883,0 -0.243416,-0.0402 -0.116417,-0.0402 -0.19685,-0.1143 l 0.07408,-0.14393 q 0.06985,0.0635 0.17145,0.1016 0.103717,0.0381 0.201083,0.0381 0.09737,0 0.156634,-0.036 0.05927,-0.036 0.05927,-0.11006 0,-0.0762 -0.0635,-0.1143 -0.06138,-0.0381 -0.188383,-0.0762 -0.112183,-0.0318 -0.18415,-0.0635 -0.06985,-0.0339 -0.12065,-0.0974 -0.04868,-0.0635 -0.04868,-0.1651 0,-0.15663 0.1143,-0.23495 0.1143,-0.0783 0.28575,-0.0783 0.1016,0 0.198966,0.0296 0.09948,0.0275 0.17145,0.0762 z"
         style="font-size:2.11666656px;fill:#636d84;fill-opacity:1;stroke-width:0.26458332"
         id="path4743" />
      <path
         d="m 24.220987,108.3991 q -0.0762,0 -0.127,0.0466 -0.0508,0.0466 -0.0508,0.13335 v 0.14605 h 0.309033 v 0.15028 h -0.309033 v 0.93134 h -0.19685 v -0.93134 h -0.14605 v -0.15028 h 0.14605 v -0.12065 q 0,-0.12277 0.0508,-0.20743 0.05292,-0.0868 0.137583,-0.12912 0.08467,-0.0444 0.182034,-0.0444 0.09313,0 0.194733,0.0508 l -0.04657,0.16087 q -0.0762,-0.036 -0.143933,-0.036 z"
         style="font-size:2.11666656px;fill:#636d84;fill-opacity:1;stroke-width:0.26458332"
         id="path4745" />
      <path
         d="m 24.976703,108.68062 q 0.167216,0 0.296333,0.072 0.131233,0.072 0.2032,0.20108 0.07408,0.127 0.07408,0.2921 0,0.1651 -0.07408,0.29422 -0.07197,0.12911 -0.2032,0.20108 -0.129117,0.072 -0.296333,0.072 -0.169334,0 -0.300567,-0.072 -0.129117,-0.072 -0.2032,-0.19897 -0.07197,-0.12911 -0.07197,-0.29633 0,-0.1651 0.07197,-0.2921 0.07408,-0.12912 0.2032,-0.20108 0.131233,-0.072 0.300567,-0.072 z m 0,0.17145 q -0.110067,0 -0.19685,0.0508 -0.08467,0.0508 -0.13335,0.14182 -0.04657,0.0889 -0.04657,0.2032 0,0.11641 0.04657,0.20743 0.04868,0.091 0.13335,0.14182 0.08678,0.0487 0.19685,0.0487 0.10795,0 0.192616,-0.0487 0.08678,-0.0508 0.13335,-0.14182 0.04868,-0.091 0.04868,-0.20743 0,-0.1143 -0.04868,-0.2032 -0.04657,-0.091 -0.13335,-0.14182 -0.08467,-0.0508 -0.192616,-0.0508 z"
         style="font-size:2.11666656px;fill:#636d84;fill-opacity:1;stroke-width:0.26458332"
         id="path4747" />
      <path
         d="m 26.022536,108.92827 q 0.05503,-0.12065 0.156633,-0.18203 0.1016,-0.0635 0.2413,-0.0656 v 0.1905 q -0.17145,-0.006 -0.277283,0.0889 -0.105834,0.0952 -0.12065,0.25612 v 0.59055 h -0.19685 v -1.11972 h 0.19685 z"
         style="font-size:2.11666656px;fill:#636d84;fill-opacity:1;stroke-width:0.26458332"
         id="path4749" />
      <path
         d="m 27.791077,109.7326 q -0.129117,0.0825 -0.262467,0.0825 -0.13335,0 -0.2159,-0.0783 -0.08255,-0.0804 -0.08255,-0.2413 v -0.62019 h -0.15875 v -0.15028 h 0.15875 v -0.30057 h 0.198967 v 0.30057 h 0.3429 v 0.15028 h -0.3429 v 0.5842 q 0,0.0931 0.03387,0.13335 0.03387,0.0402 0.1016,0.0402 0.08043,0 0.173567,-0.0529 z"
         style="font-size:2.11666656px;fill:#636d84;fill-opacity:1;stroke-width:0.26458332"
         id="path4751" />
      <path
         d="m 28.664167,108.68062 q 0.19685,0 0.309034,0.11642 0.112183,0.1143 0.112183,0.3175 v 0.69215 h -0.19685 v -0.63924 q 0,-0.14181 -0.08043,-0.22013 -0.07832,-0.0804 -0.218017,-0.0804 -0.162983,0.002 -0.258233,0.11006 -0.09525,0.10795 -0.09525,0.2794 v 0.55034 h -0.19685 v -1.57057 h 0.19685 v 0.69215 q 0.112183,-0.24342 0.427566,-0.24765 z"
         style="font-size:2.11666656px;fill:#636d84;fill-opacity:1;stroke-width:0.26458332"
         id="path4753" />
      <path
         d="m 29.434767,108.68697 h 0.19685 v 1.11972 h -0.19685 z m 0.09737,-0.44662 q 0.05292,0 0.08678,0.036 0.03598,0.036 0.03598,0.091 0,0.055 -0.03598,0.091 -0.03387,0.036 -0.08678,0.036 -0.05292,0 -0.0889,-0.036 -0.03387,-0.036 -0.03387,-0.091 0,-0.055 0.03387,-0.091 0.03598,-0.036 0.0889,-0.036 z"
         style="font-size:2.11666656px;fill:#636d84;fill-opacity:1;stroke-width:0.26458332"
         id="path4755" />
      <path
         d="m 30.625259,108.93462 q -0.06985,-0.0423 -0.154517,-0.0677 -0.08255,-0.0254 -0.15875,-0.0254 -0.0889,0 -0.143933,0.0339 -0.05292,0.0318 -0.05292,0.0995 0,0.0677 0.05927,0.10371 0.06138,0.0339 0.18415,0.0698 0.116417,0.0339 0.1905,0.0677 0.07408,0.0339 0.124883,0.0995 0.05292,0.0656 0.05292,0.17357 0,0.15875 -0.12065,0.2413 -0.118533,0.0825 -0.296333,0.0825 -0.124884,0 -0.243417,-0.0402 -0.116417,-0.0402 -0.19685,-0.1143 l 0.07408,-0.14393 q 0.06985,0.0635 0.17145,0.1016 0.103717,0.0381 0.201084,0.0381 0.09737,0 0.156633,-0.036 0.05927,-0.036 0.05927,-0.11006 0,-0.0762 -0.0635,-0.1143 -0.06138,-0.0381 -0.188384,-0.0762 -0.112183,-0.0318 -0.18415,-0.0635 -0.06985,-0.0339 -0.12065,-0.0974 -0.04868,-0.0635 -0.04868,-0.1651 0,-0.15663 0.1143,-0.23495 0.1143,-0.0783 0.28575,-0.0783 0.1016,0 0.198967,0.0296 0.09948,0.0275 0.17145,0.0762 z"
         style="font-size:2.11666656px;fill:#636d84;fill-opacity:1;stroke-width:0.26458332"
         id="path4757" />
      <path
         d="m 32.328449,108.98542 q -0.13335,-0.12912 -0.319617,-0.12912 -0.110067,0 -0.19685,0.0487 -0.08467,0.0487 -0.13335,0.13758 -0.04868,0.0889 -0.04868,0.20532 0,0.11641 0.04657,0.20531 0.04868,0.0889 0.131234,0.1397 0.08467,0.0487 0.192616,0.0487 0.10795,0 0.194734,-0.036 0.08678,-0.036 0.143933,-0.10371 l 0.112183,0.1143 q -0.0762,0.0952 -0.194733,0.14605 -0.116417,0.0508 -0.264583,0.0508 -0.162984,0 -0.289984,-0.072 -0.127,-0.072 -0.198966,-0.19897 -0.06985,-0.12911 -0.06985,-0.29421 0,-0.1651 0.06985,-0.29422 0.07197,-0.12912 0.198966,-0.20108 0.127,-0.072 0.289984,-0.072 0.141816,0 0.254,0.0444 0.1143,0.0423 0.1905,0.12488 z"
         style="font-size:2.11666656px;fill:#636d84;fill-opacity:1;stroke-width:0.26458332"
         id="path4759" />
      <path
         d="m 33.149848,108.68062 q 0.167217,0 0.296333,0.072 0.131234,0.072 0.2032,0.20108 0.07408,0.127 0.07408,0.2921 0,0.1651 -0.07408,0.29422 -0.07197,0.12911 -0.2032,0.20108 -0.129116,0.072 -0.296333,0.072 -0.169333,0 -0.300567,-0.072 -0.129116,-0.072 -0.2032,-0.19897 -0.07197,-0.12911 -0.07197,-0.29633 0,-0.1651 0.07197,-0.2921 0.07408,-0.12912 0.2032,-0.20108 0.131234,-0.072 0.300567,-0.072 z m 0,0.17145 q -0.110067,0 -0.19685,0.0508 -0.08467,0.0508 -0.13335,0.14182 -0.04657,0.0889 -0.04657,0.2032 0,0.11641 0.04657,0.20743 0.04868,0.091 0.13335,0.14182 0.08678,0.0487 0.19685,0.0487 0.10795,0 0.192617,-0.0487 0.08678,-0.0508 0.13335,-0.14182 0.04868,-0.091 0.04868,-0.20743 0,-0.1143 -0.04868,-0.2032 -0.04657,-0.091 -0.13335,-0.14182 -0.08467,-0.0508 -0.192617,-0.0508 z"
         style="font-size:2.11666656px;fill:#636d84;fill-opacity:1;stroke-width:0.26458332"
         id="path4761" />
      <path
         d="m 35.444512,108.68062 q 0.192617,0 0.302684,0.11642 0.110066,0.11641 0.110066,0.3175 v 0.69215 h -0.198966 v -0.63924 q 0,-0.14181 -0.07832,-0.22225 -0.0762,-0.0804 -0.211667,-0.0804 -0.15875,0.004 -0.249766,0.11218 -0.09102,0.10795 -0.09102,0.27729 v 0.55245 h -0.198967 v -0.63924 q 0,-0.14181 -0.0762,-0.22225 -0.0762,-0.0804 -0.213783,-0.0804 -0.15875,0.004 -0.251883,0.11218 -0.09102,0.10795 -0.09102,0.27729 v 0.55245 h -0.19685 v -1.11972 h 0.19685 v 0.23495 q 0.110067,-0.23707 0.416983,-0.2413 0.154517,0 0.256117,0.0741 0.103717,0.0741 0.1397,0.20744 0.103717,-0.27729 0.436033,-0.28152 z"
         style="font-size:2.11666656px;fill:#636d84;fill-opacity:1;stroke-width:0.26458332"
         id="path4763" />
      <path
         d="m 37.656262,108.68062 q 0.192617,0 0.302684,0.11642 0.110066,0.11641 0.110066,0.3175 v 0.69215 h -0.198966 v -0.63924 q 0,-0.14181 -0.07832,-0.22225 -0.0762,-0.0804 -0.211667,-0.0804 -0.15875,0.004 -0.249766,0.11218 -0.09102,0.10795 -0.09102,0.27729 v 0.55245 h -0.198967 v -0.63924 q 0,-0.14181 -0.0762,-0.22225 -0.0762,-0.0804 -0.213783,-0.0804 -0.15875,0.004 -0.251883,0.11218 -0.09102,0.10795 -0.09102,0.27729 v 0.55245 h -0.19685 v -1.11972 h 0.19685 v 0.23495 q 0.110067,-0.23707 0.416983,-0.2413 0.154517,0 0.256117,0.0741 0.103717,0.0741 0.1397,0.20744 0.103717,-0.27729 0.436033,-0.28152 z"
         style="font-size:2.11666656px;fill:#636d84;fill-opacity:1;stroke-width:0.26458332"
         id="path4765" />
      <path
         d="m 39.106016,109.80669 v -0.15664 q -0.124883,0.1651 -0.391583,0.1651 -0.116417,0 -0.205317,-0.0444 -0.08678,-0.0445 -0.135466,-0.12276 -0.04657,-0.0783 -0.04657,-0.17569 0,-0.15028 0.110067,-0.23706 0.112183,-0.0889 0.311149,-0.091 h 0.3556 v -0.0529 q 0,-0.11853 -0.07408,-0.18203 -0.07197,-0.0656 -0.211667,-0.0656 -0.169333,0 -0.345016,0.12065 l -0.08255,-0.13546 q 0.12065,-0.0783 0.22225,-0.11219 0.103716,-0.036 0.245533,-0.036 0.20955,0 0.32385,0.10372 0.1143,0.1016 0.116417,0.28575 l 0.0021,0.7366 z m -0.351367,-0.15452 q 0.137584,0 0.232834,-0.0656 0.09737,-0.0677 0.116416,-0.1778 v -0.11218 h -0.328083 q -0.13335,0 -0.198967,0.0402 -0.0635,0.0402 -0.0635,0.127 0,0.0868 0.06562,0.13758 0.06562,0.0508 0.175683,0.0508 z"
         style="font-size:2.11666656px;fill:#636d84;fill-opacity:1;stroke-width:0.26458332"
         id="path4767" />
      <path
         d="m 40.272462,108.68062 q 0.19685,0 0.309033,0.11642 0.112183,0.1143 0.112183,0.3175 v 0.69215 h -0.19685 v -0.63924 q 0,-0.14181 -0.08043,-0.22013 -0.07832,-0.0804 -0.218017,-0.0804 -0.150283,0.002 -0.245533,0.0974 -0.09313,0.0931 -0.105833,0.24342 v 0.59902 h -0.19685 v -1.11972 h 0.19685 v 0.23707 q 0.112183,-0.23919 0.42545,-0.24342 z"
         style="font-size:2.11666656px;fill:#636d84;fill-opacity:1;stroke-width:0.26458332"
         id="path4769" />
      <path
         d="m 42.086878,108.23612 v 1.57057 h -0.19685 v -0.22225 q -0.0635,0.11218 -0.17145,0.17356 -0.105833,0.0593 -0.24765,0.0593 -0.15875,0 -0.281516,-0.072 -0.12065,-0.0741 -0.188384,-0.2032 -0.06773,-0.13123 -0.06773,-0.29845 0,-0.1651 0.06773,-0.2921 0.06773,-0.12911 0.188384,-0.20108 0.122766,-0.072 0.2794,-0.072 0.143933,0 0.251883,0.0593 0.10795,0.0593 0.169333,0.17145 v -0.6731 z m -0.575733,1.41182 q 0.110067,0 0.194733,-0.0508 0.08678,-0.0508 0.135467,-0.14182 0.04868,-0.091 0.04868,-0.20532 0,-0.11641 -0.04868,-0.20743 -0.04868,-0.091 -0.135467,-0.14182 -0.08467,-0.0508 -0.194733,-0.0508 -0.110067,0 -0.19685,0.0529 -0.08467,0.0508 -0.13335,0.14182 -0.04868,0.091 -0.04868,0.20531 0,0.1143 0.04868,0.20532 0.04868,0.091 0.13335,0.14182 0.08678,0.0508 0.19685,0.0508 z"
         style="font-size:2.11666656px;fill:#636d84;fill-opacity:1;stroke-width:0.26458332"
         id="path4771" />
    </g>
    <g
       transform="translate(0.81323582,-86.446074)"
       style="display:inline"
       id="g4527">
      <rect
         ry="0.1691867"
         y="98.685677"
         x="1.8586266"
         height="3.9316926"
         width="4.0001163"
         id="rect4518"
         style="opacity:1;fill:#f9f2e9;fill-opacity:1;stroke:#fdae53;stroke-width:0.25217432;stroke-linecap:square;stroke-linejoin:miter;stroke-miterlimit:4;stroke-dasharray:none;stroke-dashoffset:0;stroke-opacity:1;paint-order:fill markers stroke" />
      <g
         aria-label="3"
         style="font-style:normal;font-variant:normal;font-weight:normal;font-stretch:normal;font-size:10.58333302px;line-height:1.25;font-family:Montserrat;-inkscape-font-specification:Montserrat;letter-spacing:0px;word-spacing:0px;fill:#fdae53;fill-opacity:1;stroke:none;stroke-width:0.26458332"
         id="text4522">
        <path
           d="m 3.9232432,100.53405 q 0.22225,0.0127 0.3534833,0.11641 0.1312333,0.10372 0.1312333,0.2794 0,0.13759 -0.071967,0.24342 -0.06985,0.10583 -0.2010834,0.1651 -0.1291166,0.0593 -0.3026833,0.0593 -0.1397,0 -0.2815166,-0.0423 -0.1397,-0.0423 -0.2413,-0.11218 l 0.086783,-0.1651 q 0.0889,0.0699 0.1989667,0.10795 0.1100666,0.0381 0.2243666,0.0381 0.1820334,0 0.28575,-0.0783 0.1037167,-0.0783 0.1037167,-0.20955 0,-0.13123 -0.1037167,-0.19896 -0.1037166,-0.0699 -0.2921,-0.0699 h -0.2032 v -0.12912 l 0.4550834,-0.44873 H 3.3813766 l -0.00212,-0.184155 h 0.9524999 v 0.129115 l -0.4974166,0.49319 z"
           style="font-size:2.11666656px;fill:#fdae53;fill-opacity:1;stroke-width:0.26458332"
           id="path4810" />
      </g>
    </g>
    <g
       aria-label="Show notice again x1"
       transform="translate(0.81323582,-86.446074)"
       style="font-style:normal;font-variant:normal;font-weight:normal;font-stretch:normal;font-size:15.67670631px;line-height:1.25;font-family:Montserrat;-inkscape-font-specification:Montserrat;letter-spacing:0px;word-spacing:0px;display:inline;fill:#a6acb9;fill-opacity:1;stroke:none;stroke-width:0.39191765"
       id="text4531">
      <path
         d="m 10.790706,100.17081 q -0.102421,-0.0648 -0.213203,-0.0962 -0.108692,-0.0334 -0.200662,-0.0334 -0.127504,0 -0.204843,0.0502 -0.07525,0.0481 -0.07525,0.13378 0,0.0773 0.04598,0.1275 0.04598,0.0481 0.112873,0.0773 0.06689,0.0272 0.18603,0.0648 0.148406,0.046 0.240376,0.0878 0.09197,0.0418 0.156767,0.12541 0.0648,0.0815 0.0648,0.21738 0,0.12542 -0.06898,0.21948 -0.06689,0.0941 -0.190211,0.14631 -0.121233,0.0502 -0.280091,0.0502 -0.160947,0 -0.313534,-0.0627 -0.1525864,-0.0627 -0.2633685,-0.16722 l 0.08988,-0.17349 q 0.1045114,0.10242 0.2341057,0.15886 0.131684,0.0543 0.255008,0.0543 0.146316,0 0.229925,-0.0564 0.0857,-0.0585 0.0857,-0.15677 0,-0.0773 -0.04598,-0.1275 -0.04598,-0.0502 -0.117053,-0.0794 -0.06898,-0.0293 -0.18812,-0.0648 -0.146316,-0.0439 -0.238286,-0.0857 -0.09197,-0.0418 -0.1567673,-0.12332 -0.062707,-0.0815 -0.062707,-0.21529 0,-0.11705 0.064797,-0.20693 0.064797,-0.08988 0.1818501,-0.13796 0.117052,-0.04807 0.271729,-0.04807 0.131685,0 0.257098,0.03972 0.127504,0.03762 0.225745,0.102421 z"
         style="font-size:2.0902276px;fill:#a6acb9;fill-opacity:1;stroke-width:0.39191765"
         id="path4775" />
      <path
         d="m 11.830039,100.2168 q 0.194391,0 0.305173,0.11496 0.110782,0.11287 0.110782,0.31353 v 0.68351 h -0.194391 v -0.63125 q 0,-0.14005 -0.07943,-0.21739 -0.07734,-0.0794 -0.215293,-0.0794 -0.160948,0.002 -0.255008,0.10869 -0.09406,0.1066 -0.09406,0.27591 v 0.54346 h -0.194391 v -1.550952 h 0.194391 v 0.683502 q 0.110782,-0.24037 0.422226,-0.24455 z"
         style="font-size:2.0902276px;fill:#a6acb9;fill-opacity:1;stroke-width:0.39191765"
         id="path4777" />
      <path
         d="m 13.050862,100.2168 q 0.165128,0 0.292632,0.0711 0.129594,0.0711 0.200662,0.19857 0.07316,0.12542 0.07316,0.28846 0,0.16303 -0.07316,0.29054 -0.07107,0.1275 -0.200662,0.19857 -0.127504,0.0711 -0.292632,0.0711 -0.167218,0 -0.296812,-0.0711 -0.127504,-0.0711 -0.200662,-0.19648 -0.07107,-0.12751 -0.07107,-0.29263 0,-0.16304 0.07107,-0.28846 0.07316,-0.1275 0.200662,-0.19857 0.129594,-0.0711 0.296812,-0.0711 z m 0,0.1693 q -0.108691,0 -0.194391,0.0502 -0.08361,0.0502 -0.131684,0.14004 -0.04598,0.0878 -0.04598,0.20067 0,0.11496 0.04598,0.20484 0.04808,0.0899 0.131684,0.14004 0.0857,0.0481 0.194391,0.0481 0.106602,0 0.190211,-0.0481 0.0857,-0.0502 0.131684,-0.14004 0.04808,-0.0899 0.04808,-0.20484 0,-0.11288 -0.04808,-0.20067 -0.04598,-0.0899 -0.131684,-0.14004 -0.08361,-0.0502 -0.190211,-0.0502 z"
         style="font-size:2.0902276px;fill:#a6acb9;fill-opacity:1;stroke-width:0.39191765"
         id="path4779" />
      <path
         d="m 13.668557,100.22307 h 0.202752 l 0.309354,0.91343 0.305173,-0.91343 h 0.202752 l 0.307264,0.91343 0.305173,-0.91343 h 0.200662 l -0.407595,1.10573 H 14.89134 l -0.305173,-0.86954 -0.305173,0.86954 h -0.202752 z"
         style="font-size:2.0902276px;fill:#a6acb9;fill-opacity:1;stroke-width:0.39191765"
         id="path4781" />
      <path
         d="m 16.847107,100.2168 q 0.194392,0 0.305174,0.11496 0.110782,0.11287 0.110782,0.31353 v 0.68351 h -0.194391 v -0.63125 q 0,-0.14005 -0.07943,-0.21739 -0.07734,-0.0794 -0.215293,-0.0794 -0.148407,0.002 -0.242467,0.0961 -0.09197,0.092 -0.104511,0.24037 v 0.59154 h -0.194391 v -1.10573 h 0.194391 v 0.2341 q 0.110782,-0.23619 0.420135,-0.24037 z"
         style="font-size:2.0902276px;fill:#a6acb9;fill-opacity:1;stroke-width:0.39191765"
         id="path4783" />
      <path
         d="m 18.068225,100.2168 q 0.165128,0 0.292632,0.0711 0.129594,0.0711 0.200662,0.19857 0.07316,0.12542 0.07316,0.28846 0,0.16303 -0.07316,0.29054 -0.07107,0.1275 -0.200662,0.19857 -0.127504,0.0711 -0.292632,0.0711 -0.167218,0 -0.296812,-0.0711 -0.127504,-0.0711 -0.200662,-0.19648 -0.07107,-0.12751 -0.07107,-0.29263 0,-0.16304 0.07107,-0.28846 0.07316,-0.1275 0.200662,-0.19857 0.129594,-0.0711 0.296812,-0.0711 z m 0,0.1693 q -0.108692,0 -0.194391,0.0502 -0.08361,0.0502 -0.131684,0.14004 -0.04598,0.0878 -0.04598,0.20067 0,0.11496 0.04598,0.20484 0.04808,0.0899 0.131684,0.14004 0.0857,0.0481 0.194391,0.0481 0.106602,0 0.190211,-0.0481 0.0857,-0.0502 0.131684,-0.14004 0.04808,-0.0899 0.04808,-0.20484 0,-0.11288 -0.04808,-0.20067 -0.04598,-0.0899 -0.131684,-0.14004 -0.08361,-0.0502 -0.190211,-0.0502 z"
         style="font-size:2.0902276px;fill:#a6acb9;fill-opacity:1;stroke-width:0.39191765"
         id="path4785" />
      <path
         d="m 19.500227,101.25564 q -0.127504,0.0815 -0.259188,0.0815 -0.131685,0 -0.213204,-0.0773 -0.08152,-0.0794 -0.08152,-0.23829 V 100.4091 H 18.78955 v -0.14841 h 0.156767 v -0.296812 h 0.196481 v 0.296812 h 0.338617 v 0.14841 h -0.338617 v 0.5769 q 0,0.092 0.03344,0.13168 0.03344,0.0397 0.100331,0.0397 0.07943,0 0.171398,-0.0523 z"
         style="font-size:2.0902276px;fill:#a6acb9;fill-opacity:1;stroke-width:0.39191765"
         id="path4787" />
      <path
         d="m 19.735344,100.22307 h 0.194391 v 1.10573 h -0.194391 z m 0.09615,-0.441042 q 0.05225,0 0.0857,0.03553 0.03553,0.03553 0.03553,0.08988 0,0.05435 -0.03553,0.08988 -0.03344,0.03554 -0.0857,0.03554 -0.05226,0 -0.08779,-0.03554 -0.03344,-0.03553 -0.03344,-0.08988 0,-0.05435 0.03344,-0.08988 0.03553,-0.03553 0.08779,-0.03553 z"
         style="font-size:2.0902276px;fill:#a6acb9;fill-opacity:1;stroke-width:0.39191765"
         id="path4789" />
      <path
         d="m 21.082366,100.51779 q -0.131684,-0.12751 -0.315624,-0.12751 -0.108692,0 -0.194391,0.0481 -0.08361,0.0481 -0.131685,0.13586 -0.04808,0.0878 -0.04808,0.20276 0,0.11496 0.04599,0.20275 0.04807,0.0878 0.129594,0.13795 0.08361,0.0481 0.190211,0.0481 0.106602,0 0.192301,-0.0355 0.0857,-0.0355 0.142135,-0.10242 l 0.110782,0.11288 q -0.07525,0.0941 -0.1923,0.14422 -0.114963,0.0502 -0.261279,0.0502 -0.160947,0 -0.286361,-0.0711 -0.125414,-0.0711 -0.196482,-0.19648 -0.06898,-0.12751 -0.06898,-0.29054 0,-0.16304 0.06898,-0.29055 0.07107,-0.1275 0.196482,-0.19857 0.125414,-0.0711 0.286361,-0.0711 0.140045,0 0.250827,0.0439 0.112873,0.0418 0.188121,0.12332 z"
         style="font-size:2.0902276px;fill:#a6acb9;fill-opacity:1;stroke-width:0.39191765"
         id="path4791" />
      <path
         d="m 21.876783,100.2168 q 0.257098,0 0.388783,0.15258 0.131684,0.1505 0.131684,0.42014 0,0.0418 -0.0021,0.0627 h -0.873715 q 0.02299,0.14841 0.123323,0.2362 0.102421,0.0878 0.250827,0.0878 0.09824,0 0.18185,-0.0355 0.0857,-0.0355 0.148406,-0.10034 l 0.106602,0.11079 q -0.08152,0.0878 -0.196481,0.13586 -0.114963,0.0481 -0.255008,0.0481 -0.163038,0 -0.290542,-0.069 -0.125413,-0.0711 -0.196481,-0.19857 -0.06898,-0.12751 -0.06898,-0.29054 0,-0.16304 0.06898,-0.28846 0.07107,-0.1275 0.196481,-0.19857 0.125414,-0.0731 0.286361,-0.0731 z m 0.344888,0.48493 q -0.0084,-0.1505 -0.100331,-0.2362 -0.09197,-0.0878 -0.242466,-0.0878 -0.146316,0 -0.244557,0.0878 -0.09615,0.0878 -0.114963,0.2362 z"
         style="font-size:2.0902276px;fill:#a6acb9;fill-opacity:1;stroke-width:0.39191765"
         id="path4793" />
      <path
         d="m 23.884676,101.3288 v -0.15468 q -0.123324,0.16304 -0.386692,0.16304 -0.114963,0 -0.202753,-0.0439 -0.0857,-0.0439 -0.133774,-0.12123 -0.04598,-0.0773 -0.04598,-0.17349 0,-0.14841 0.108692,-0.23411 0.110782,-0.0878 0.307263,-0.0899 h 0.351158 v -0.0523 q 0,-0.11705 -0.07316,-0.17976 -0.07107,-0.0648 -0.209022,-0.0648 -0.167218,0 -0.340707,0.11915 l -0.08152,-0.13378 q 0.119143,-0.0773 0.219474,-0.11078 0.102421,-0.0355 0.242466,-0.0355 0.206933,0 0.319805,0.10242 0.112872,0.10033 0.114962,0.28218 l 0.0021,0.7274 z m -0.346978,-0.15259 q 0.135865,0 0.229925,-0.0648 0.09615,-0.0669 0.114962,-0.17558 v -0.11078 H 23.5586 q -0.131684,0 -0.196481,0.0397 -0.06271,0.0397 -0.06271,0.12541 0,0.0857 0.0648,0.13586 0.0648,0.0502 0.173489,0.0502 z"
         style="font-size:2.0902276px;fill:#a6acb9;fill-opacity:1;stroke-width:0.39191765"
         id="path4795" />
      <path
         d="m 25.400254,100.22307 v 0.99285 q 0,0.15886 -0.07107,0.278 -0.06898,0.11915 -0.196482,0.18185 -0.127503,0.0648 -0.296812,0.0648 -0.244557,0 -0.45567,-0.15468 l 0.0857,-0.14213 q 0.08152,0.0669 0.169308,0.0982 0.08779,0.0334 0.192301,0.0334 0.171399,0 0.27382,-0.0961 0.102421,-0.0962 0.102421,-0.2571 v -0.15467 q -0.05853,0.10033 -0.158857,0.15677 -0.100331,0.0543 -0.229925,0.0543 -0.148406,0 -0.263369,-0.0669 -0.112872,-0.069 -0.175579,-0.19021 -0.06271,-0.12123 -0.06271,-0.278 0,-0.15467 0.06271,-0.27382 0.06271,-0.11914 0.175579,-0.18603 0.114963,-0.0669 0.263369,-0.0669 0.131684,0 0.229925,0.0543 0.100331,0.0543 0.158857,0.15468 v -0.20275 z m -0.54764,0.89879 q 0.102421,0 0.18185,-0.0481 0.07943,-0.0481 0.123323,-0.13169 0.04599,-0.0857 0.04599,-0.1923 0,-0.10869 -0.04599,-0.1923 -0.04389,-0.0857 -0.123323,-0.13377 -0.07943,-0.0481 -0.18185,-0.0481 -0.102421,0 -0.18394,0.0481 -0.07943,0.0481 -0.125414,0.13377 -0.04599,0.0836 -0.04599,0.1923 0.0021,0.16304 0.100331,0.26755 0.09824,0.10451 0.255008,0.10451 z"
         style="font-size:2.0902276px;fill:#a6acb9;fill-opacity:1;stroke-width:0.39191765"
         id="path4797" />
      <path
         d="m 26.43214,101.3288 v -0.15468 q -0.123323,0.16304 -0.386692,0.16304 -0.114963,0 -0.202752,-0.0439 -0.0857,-0.0439 -0.133775,-0.12123 -0.04599,-0.0773 -0.04599,-0.17349 0,-0.14841 0.108692,-0.23411 0.110782,-0.0878 0.307264,-0.0899 h 0.351158 v -0.0523 q 0,-0.11705 -0.07316,-0.17976 -0.07107,-0.0648 -0.209023,-0.0648 -0.167218,0 -0.340707,0.11915 l -0.08152,-0.13378 q 0.119143,-0.0773 0.219474,-0.11078 0.102421,-0.0355 0.242466,-0.0355 0.206933,0 0.319805,0.10242 0.112873,0.10033 0.114963,0.28218 l 0.0021,0.7274 z m -0.346978,-0.15259 q 0.135865,0 0.229925,-0.0648 0.09615,-0.0669 0.114963,-0.17558 v -0.11078 h -0.323985 q -0.131685,0 -0.196482,0.0397 -0.06271,0.0397 -0.06271,0.12541 0,0.0857 0.0648,0.13586 0.0648,0.0502 0.173489,0.0502 z"
         style="font-size:2.0902276px;fill:#a6acb9;fill-opacity:1;stroke-width:0.39191765"
         id="path4799" />
      <path
         d="m 26.969492,100.22307 h 0.194391 v 1.10573 h -0.194391 z m 0.09615,-0.441042 q 0.05225,0 0.0857,0.03553 0.03553,0.03553 0.03553,0.08988 0,0.05435 -0.03553,0.08988 -0.03344,0.03554 -0.0857,0.03554 -0.05226,0 -0.08779,-0.03554 -0.03344,-0.03553 -0.03344,-0.08988 0,-0.05435 0.03344,-0.08988 0.03553,-0.03553 0.08779,-0.03553 z"
         style="font-size:2.0902276px;fill:#a6acb9;fill-opacity:1;stroke-width:0.39191765"
         id="path4801" />
      <path
         d="m 28.155566,100.2168 q 0.194391,0 0.305173,0.11496 0.110782,0.11287 0.110782,0.31353 v 0.68351 H 28.37713 v -0.63125 q 0,-0.14005 -0.07943,-0.21739 -0.07734,-0.0794 -0.215293,-0.0794 -0.148406,0.002 -0.242467,0.0961 -0.09197,0.092 -0.104511,0.24037 v 0.59154 h -0.194391 v -1.10573 h 0.194391 v 0.2341 q 0.110782,-0.23619 0.420136,-0.24037 z"
         style="font-size:2.0902276px;fill:#a6acb9;fill-opacity:1;stroke-width:0.39191765"
         id="path4803" />
      <path
         d="m 29.338471,100.22307 h 0.225745 l 0.273819,0.4055 0.278001,-0.4055 h 0.215293 l -0.363699,0.53927 0.390872,0.56646 h -0.227835 l -0.292632,-0.43477 -0.307263,0.43477 h -0.219474 l 0.397143,-0.56646 z"
         style="font-size:2.0902276px;fill:#a6acb9;fill-opacity:1;stroke-width:0.39191765"
         id="path4805" />
      <path
         d="m 30.412978,99.865637 h 0.533008 v 1.463163 h -0.200662 v -1.28131 h -0.332346 z"
         style="font-size:2.0902276px;fill:#a6acb9;fill-opacity:1;stroke-width:0.39191765"
         id="path4807" />
    </g>
    <g
       aria-label="x9"
       transform="translate(0.81323582,-86.446074)"
       style="font-style:normal;font-variant:normal;font-weight:normal;font-stretch:normal;font-size:15.67670727px;line-height:1.25;font-family:Montserrat;-inkscape-font-specification:Montserrat;letter-spacing:0px;word-spacing:0px;display:inline;fill:#a6acb9;fill-opacity:1;stroke:none;stroke-width:0.39191765"
       id="text4531-8">
      <path
         d="m 5.1622821,116.30549 h 0.2257446 l 0.2738198,0.4055 0.2780003,-0.4055 h 0.2152934 l -0.3636996,0.53928 0.3908726,0.56645 H 5.9544784 l -0.2926319,-0.43477 -0.3072634,0.43477 H 5.1351092 l 0.3971432,-0.56645 z"
         style="font-size:2.0902276px;fill:#a6acb9;fill-opacity:1;stroke-width:0.39191765"
         id="path4700" />
      <path
         d="m 6.4729855,117.16039 q 0.071068,0.0439 0.1567671,0.069 0.08779,0.023 0.1734889,0.023 0.2090227,0 0.3198048,-0.14632 0.1128723,-0.1484 0.1128723,-0.40341 0,-0.0397 -0.00209,-0.0606 -0.052256,0.12124 -0.1609475,0.18394 -0.1066016,0.0627 -0.2591882,0.0627 -0.2173837,0 -0.3427973,-0.12541 -0.1254137,-0.12542 -0.1254137,-0.33862 0,-0.14841 0.062707,-0.2571 0.062707,-0.11078 0.1755792,-0.16931 0.1149625,-0.0585 0.2654589,-0.0585 0.1797595,0 0.3114439,0.0836 0.1316843,0.0836 0.2006618,0.24246 0.071068,0.15886 0.071068,0.38042 0,0.23202 -0.075248,0.4076 -0.075248,0.17558 -0.2152935,0.27173 -0.1400452,0.0962 -0.3260755,0.0962 -0.1024211,0 -0.2173836,-0.0293 -0.1149626,-0.0313 -0.2048424,-0.0794 z m 0.3887823,-1.0472 q -0.1484061,0 -0.2382859,0.0836 -0.08988,0.0836 -0.08988,0.22993 0,0.13795 0.085699,0.21947 0.085699,0.0815 0.2299251,0.0815 0.1066016,0 0.18394,-0.0418 0.079429,-0.0439 0.1212332,-0.11496 0.041805,-0.0732 0.041805,-0.15677 0,-0.0711 -0.037624,-0.14005 -0.035534,-0.0711 -0.110782,-0.11496 -0.075248,-0.046 -0.1860303,-0.046 z"
         style="font-size:2.0902276px;fill:#a6acb9;fill-opacity:1;stroke-width:0.39191765"
         id="path4702" />
    </g>
    <g
       aria-label="Disabled"
       transform="translate(0.81323582,-86.446074)"
       style="font-style:normal;font-variant:normal;font-weight:normal;font-stretch:normal;font-size:15.67670727px;line-height:1.25;font-family:Montserrat;-inkscape-font-specification:Montserrat;letter-spacing:0px;word-spacing:0px;display:inline;fill:#a6acb9;fill-opacity:1;stroke:none;stroke-width:0.39191765"
       id="text4531-80">
      <path
         d="m 60.31662,107.4436 q 0.213204,0 0.384602,0.0961 0.173489,0.0941 0.27173,0.26128 0.09824,0.16722 0.09824,0.37415 0,0.20693 -0.100331,0.37415 -0.09824,0.16722 -0.27173,0.26337 -0.173489,0.0941 -0.388782,0.0941 h -0.589444 v -1.46316 z m 0.0042,1.28131 q 0.152586,0 0.27591,-0.0711 0.125414,-0.0711 0.196481,-0.19648 0.07316,-0.12541 0.07316,-0.28009 0,-0.15677 -0.07316,-0.28218 -0.07316,-0.12541 -0.200662,-0.19648 -0.125413,-0.0732 -0.28009,-0.0732 h -0.390873 v 1.09946 z"
         style="font-size:2.0902276px;fill:#a6acb9;fill-opacity:1;stroke-width:0.39191765"
         id="path4680" />
      <path
         d="m 61.339166,107.80103 h 0.194391 v 1.10573 h -0.194391 z m 0.09615,-0.44104 q 0.05226,0 0.0857,0.0355 0.03553,0.0355 0.03553,0.0899 0,0.0543 -0.03553,0.0899 -0.03344,0.0355 -0.0857,0.0355 -0.05226,0 -0.08779,-0.0355 -0.03344,-0.0355 -0.03344,-0.0899 0,-0.0543 0.03344,-0.0899 0.03553,-0.0355 0.08779,-0.0355 z"
         style="font-size:2.0902276px;fill:#a6acb9;fill-opacity:1;stroke-width:0.39191765"
         id="path4682" />
      <path
         d="m 62.514789,108.04559 q -0.06898,-0.0418 -0.152587,-0.0669 -0.08152,-0.0251 -0.156767,-0.0251 -0.08779,0 -0.142136,0.0334 -0.05226,0.0314 -0.05226,0.0982 0,0.0669 0.05853,0.10242 0.06062,0.0335 0.18185,0.069 0.114962,0.0334 0.18812,0.0669 0.07316,0.0334 0.123324,0.0982 0.05226,0.0648 0.05226,0.1714 0,0.15676 -0.119143,0.23828 -0.117053,0.0815 -0.292632,0.0815 -0.123324,0 -0.240376,-0.0397 -0.114963,-0.0397 -0.194392,-0.11287 l 0.07316,-0.14214 q 0.06898,0.0627 0.169309,0.10033 0.102421,0.0376 0.198571,0.0376 0.09615,0 0.154677,-0.0355 0.05853,-0.0355 0.05853,-0.10869 0,-0.0752 -0.06271,-0.11287 -0.06062,-0.0376 -0.18603,-0.0753 -0.110783,-0.0313 -0.18185,-0.0627 -0.06898,-0.0334 -0.119143,-0.0961 -0.04807,-0.0627 -0.04807,-0.16304 0,-0.15467 0.112872,-0.23201 0.112872,-0.0773 0.282181,-0.0773 0.10033,0 0.196481,0.0293 0.09824,0.0272 0.169308,0.0753 z"
         style="font-size:2.0902276px;fill:#a6acb9;fill-opacity:1;stroke-width:0.39191765"
         id="path4684" />
      <path
         d="m 63.549321,108.90676 v -0.15468 q -0.123324,0.16304 -0.386692,0.16304 -0.114963,0 -0.202753,-0.0439 -0.0857,-0.0439 -0.133774,-0.12124 -0.04599,-0.0773 -0.04599,-0.17348 0,-0.14841 0.108692,-0.23411 0.110782,-0.0878 0.307263,-0.0899 h 0.351158 v -0.0523 q 0,-0.11705 -0.07316,-0.17976 -0.07107,-0.0648 -0.209022,-0.0648 -0.167219,0 -0.340707,0.11914 l -0.08152,-0.13377 q 0.119143,-0.0773 0.219474,-0.11079 0.102421,-0.0355 0.242466,-0.0355 0.206933,0 0.319805,0.10242 0.112872,0.10033 0.114962,0.28218 l 0.0021,0.7274 z m -0.346978,-0.15259 q 0.135865,0 0.229925,-0.0648 0.09615,-0.0669 0.114962,-0.17558 v -0.11078 h -0.323985 q -0.131684,0 -0.196481,0.0397 -0.06271,0.0397 -0.06271,0.12541 0,0.0857 0.0648,0.13587 0.0648,0.0502 0.173489,0.0502 z"
         style="font-size:2.0902276px;fill:#a6acb9;fill-opacity:1;stroke-width:0.39191765"
         id="path4686" />
      <path
         d="m 64.7012,107.79476 q 0.154676,0 0.27591,0.0711 0.121233,0.0711 0.18812,0.19857 0.06689,0.1275 0.06689,0.29263 0,0.16304 -0.06689,0.29054 -0.0648,0.12542 -0.18603,0.19648 -0.119143,0.069 -0.27382,0.069 -0.140045,0 -0.246647,-0.0585 -0.106601,-0.0585 -0.167218,-0.16722 v 0.21947 h -0.194391 v -1.55095 h 0.194391 v 0.66469 q 0.06062,-0.10869 0.165128,-0.16721 0.106602,-0.0585 0.244557,-0.0585 z m -0.03763,0.94896 q 0.106602,0 0.190211,-0.0502 0.0857,-0.0502 0.131685,-0.14005 0.04807,-0.0899 0.04807,-0.20275 0,-0.11078 -0.04807,-0.20066 -0.04808,-0.0899 -0.131685,-0.14005 -0.08361,-0.0502 -0.190211,-0.0502 -0.106601,0 -0.1923,0.0502 -0.08361,0.0502 -0.131685,0.14005 -0.04807,0.0899 -0.04807,0.20066 0,0.11496 0.04807,0.20484 0.04807,0.0878 0.131685,0.13796 0.0857,0.0502 0.1923,0.0502 z"
         style="font-size:2.0902276px;fill:#a6acb9;fill-opacity:1;stroke-width:0.39191765"
         id="path4688" />
      <path
         d="m 65.513743,107.35581 h 0.194391 v 1.55095 h -0.194391 z"
         style="font-size:2.0902276px;fill:#a6acb9;fill-opacity:1;stroke-width:0.39191765"
         id="path4690" />
      <path
         d="m 66.542461,107.79476 q 0.257098,0 0.388783,0.15259 0.131684,0.15049 0.131684,0.42013 0,0.0418 -0.0021,0.0627 h -0.873715 q 0.02299,0.14841 0.123323,0.23619 0.102421,0.0878 0.250827,0.0878 0.09824,0 0.18185,-0.0355 0.0857,-0.0355 0.148406,-0.10033 l 0.106602,0.11078 q -0.08152,0.0878 -0.196481,0.13587 -0.114963,0.0481 -0.255008,0.0481 -0.163038,0 -0.290542,-0.069 -0.125413,-0.0711 -0.196481,-0.19857 -0.06898,-0.1275 -0.06898,-0.29054 0,-0.16304 0.06898,-0.28845 0.07107,-0.1275 0.196481,-0.19857 0.125414,-0.0732 0.286361,-0.0732 z m 0.344888,0.48493 q -0.0084,-0.15049 -0.100331,-0.23619 -0.09197,-0.0878 -0.242466,-0.0878 -0.146316,0 -0.244557,0.0878 -0.09615,0.0878 -0.114962,0.23619 z"
         style="font-size:2.0902276px;fill:#a6acb9;fill-opacity:1;stroke-width:0.39191765"
         id="path4692" />
      <path
         d="m 68.35864,107.35581 v 1.55095 h -0.194391 v -0.21947 q -0.06271,0.11078 -0.169308,0.1714 -0.104512,0.0585 -0.244557,0.0585 -0.156767,0 -0.278,-0.0711 -0.119143,-0.0732 -0.18603,-0.20066 -0.06689,-0.12959 -0.06689,-0.29472 0,-0.16304 0.06689,-0.28845 0.06689,-0.1275 0.18603,-0.19857 0.121233,-0.0711 0.27591,-0.0711 0.142135,0 0.248737,0.0585 0.106602,0.0585 0.167218,0.1693 v -0.66469 z m -0.568541,1.39418 q 0.108691,0 0.192301,-0.0502 0.0857,-0.0502 0.133774,-0.14005 0.04807,-0.0899 0.04807,-0.20275 0,-0.11496 -0.04807,-0.20484 -0.04807,-0.0899 -0.133774,-0.14005 -0.08361,-0.0502 -0.192301,-0.0502 -0.108692,0 -0.194392,0.0523 -0.08361,0.0502 -0.131684,0.14005 -0.04807,0.0899 -0.04807,0.20275 0,0.11287 0.04807,0.20275 0.04807,0.0899 0.131684,0.14005 0.0857,0.0502 0.194392,0.0502 z"
         style="font-size:2.0902276px;fill:#a6acb9;fill-opacity:1;stroke-width:0.39191765"
         id="path4694" />
    </g>
    <g
       aria-label="Enabled"
       transform="translate(0.81323582,-86.446074)"
       style="font-style:normal;font-variant:normal;font-weight:normal;font-stretch:normal;font-size:15.67670822px;line-height:1.25;font-family:Montserrat;-inkscape-font-specification:Montserrat;letter-spacing:0px;word-spacing:0px;display:inline;fill:#a6acb9;fill-opacity:1;stroke:none;stroke-width:0.39191765"
       id="text4531-80-1">
      <path
         d="m 60.163285,91.367666 h 1.01585 v 0.18185 h -0.815189 v 0.451489 h 0.72949 v 0.18185 h -0.72949 v 0.466121 h 0.840272 v 0.18185 h -1.040933 z"
         style="font-size:2.0902276px;fill:#a6acb9;fill-opacity:1;stroke-width:0.39191765"
         id="path4665" />
      <path
         d="m 62.122546,91.718825 q 0.194392,0 0.305174,0.114962 0.110782,0.112873 0.110782,0.313534 v 0.683505 h -0.194391 v -0.631249 q 0,-0.140045 -0.07943,-0.217384 -0.07734,-0.07943 -0.215294,-0.07943 -0.148406,0.0021 -0.242466,0.09615 -0.09197,0.09197 -0.104511,0.240376 v 0.591535 h -0.194392 v -1.105731 h 0.194392 v 0.234106 q 0.110782,-0.236196 0.420135,-0.240376 z"
         style="font-size:2.0902276px;fill:#a6acb9;fill-opacity:1;stroke-width:0.39191765"
         id="path4667" />
      <path
         d="m 63.558957,92.830826 v -0.154677 q -0.123323,0.163038 -0.386692,0.163038 -0.114962,0 -0.202752,-0.04389 -0.0857,-0.0439 -0.133774,-0.121233 -0.04598,-0.07734 -0.04598,-0.173489 0,-0.148406 0.108691,-0.234106 0.110782,-0.08779 0.307264,-0.08988 h 0.351158 v -0.05226 q 0,-0.117053 -0.07316,-0.17976 -0.07107,-0.0648 -0.209023,-0.0648 -0.167218,0 -0.340707,0.119143 l -0.08152,-0.133774 q 0.119143,-0.07734 0.219474,-0.110782 0.102421,-0.03553 0.242467,-0.03553 0.206932,0 0.319804,0.102421 0.112873,0.100331 0.114963,0.282181 l 0.0021,0.727399 z m -0.346978,-0.152587 q 0.135865,0 0.229926,-0.0648 0.09615,-0.06689 0.114962,-0.175579 v -0.110782 h -0.323985 q -0.131685,0 -0.196482,0.03971 -0.06271,0.03972 -0.06271,0.125414 0,0.0857 0.0648,0.135865 0.0648,0.05017 0.173488,0.05017 z"
         style="font-size:2.0902276px;fill:#a6acb9;fill-opacity:1;stroke-width:0.39191765"
         id="path4669" />
      <path
         d="m 64.710836,91.718825 q 0.154677,0 0.27591,0.07107 0.121233,0.07107 0.188121,0.198572 0.06689,0.127504 0.06689,0.292632 0,0.163038 -0.06689,0.290542 -0.0648,0.125413 -0.186031,0.196481 -0.119143,0.06898 -0.27382,0.06898 -0.140045,0 -0.246646,-0.05853 -0.106602,-0.05853 -0.167219,-0.167218 v 0.219474 H 64.10676 v -1.550949 h 0.194391 v 0.664692 q 0.06062,-0.108692 0.165128,-0.167218 0.106602,-0.05853 0.244557,-0.05853 z m -0.03762,0.948963 q 0.106602,0 0.190211,-0.05017 0.0857,-0.05017 0.131684,-0.140046 0.04807,-0.08988 0.04807,-0.202752 0,-0.110782 -0.04807,-0.200662 -0.04808,-0.08988 -0.131684,-0.140045 -0.08361,-0.05016 -0.190211,-0.05016 -0.106602,0 -0.192301,0.05016 -0.08361,0.05017 -0.131684,0.140045 -0.04808,0.08988 -0.04808,0.200662 0,0.114963 0.04808,0.204843 0.04807,0.08779 0.131684,0.137955 0.0857,0.05017 0.192301,0.05017 z"
         style="font-size:2.0902276px;fill:#a6acb9;fill-opacity:1;stroke-width:0.39191765"
         id="path4671" />
      <path
         d="m 65.52338,91.279877 h 0.194391 v 1.550949 H 65.52338 Z"
         style="font-size:2.0902276px;fill:#a6acb9;fill-opacity:1;stroke-width:0.39191765"
         id="path4673" />
      <path
         d="m 66.552098,91.718825 q 0.257098,0 0.388782,0.152586 0.131685,0.150497 0.131685,0.420136 0,0.04181 -0.0021,0.06271 h -0.873715 q 0.02299,0.148406 0.123324,0.236196 0.102421,0.08779 0.250827,0.08779 0.09824,0 0.18185,-0.03553 0.0857,-0.03553 0.148406,-0.100331 l 0.106601,0.110782 q -0.08152,0.08779 -0.196481,0.135865 -0.114962,0.04807 -0.255008,0.04807 -0.163037,0 -0.290541,-0.06898 -0.125414,-0.07107 -0.196482,-0.198572 -0.06898,-0.127504 -0.06898,-0.290541 0,-0.163038 0.06898,-0.288452 0.07107,-0.127504 0.196482,-0.198571 0.125413,-0.07316 0.286361,-0.07316 z m 0.344887,0.484933 q -0.0084,-0.150497 -0.100331,-0.236196 -0.09197,-0.08779 -0.242466,-0.08779 -0.146316,0 -0.244557,0.08779 -0.09615,0.08779 -0.114962,0.236196 z"
         style="font-size:2.0902276px;fill:#a6acb9;fill-opacity:1;stroke-width:0.39191765"
         id="path4675" />
      <path
         d="m 68.368277,91.279877 v 1.550949 h -0.194391 v -0.219474 q -0.06271,0.110782 -0.169309,0.171399 -0.104511,0.05853 -0.244556,0.05853 -0.156767,0 -0.278001,-0.07107 -0.119143,-0.07316 -0.18603,-0.200662 -0.06689,-0.129594 -0.06689,-0.294722 0,-0.163037 0.06689,-0.288451 0.06689,-0.127504 0.18603,-0.198572 0.121234,-0.07107 0.27591,-0.07107 0.142136,0 0.248738,0.05853 0.106601,0.05853 0.167218,0.169308 v -0.664692 z m -0.568542,1.394182 q 0.108692,0 0.192301,-0.05017 0.0857,-0.05016 0.133774,-0.140045 0.04808,-0.08988 0.04808,-0.202752 0,-0.114963 -0.04808,-0.204842 -0.04807,-0.08988 -0.133774,-0.140046 -0.08361,-0.05016 -0.192301,-0.05016 -0.108692,0 -0.194391,0.05226 -0.08361,0.05016 -0.131685,0.140045 -0.04807,0.08988 -0.04807,0.202752 0,0.112872 0.04807,0.202752 0.04808,0.08988 0.131685,0.140045 0.0857,0.05017 0.194391,0.05017 z"
         style="font-size:2.0902276px;fill:#a6acb9;fill-opacity:1;stroke-width:0.39191765"
         id="path4677" />
    </g>
    <g
       style="display:inline"
       id="g4591"
       transform="translate(-0.10808114,-90.627435)">
      <rect
         ry="0.51620567"
         y="94.517418"
         x="71.616455"
         height="3.4726562"
         width="6.260231"
         id="rect4585"
         style="opacity:1;fill:#8071f1;fill-opacity:1;stroke:none;stroke-width:0.26368794;stroke-linecap:square;stroke-linejoin:miter;stroke-miterlimit:4;stroke-dasharray:none;stroke-dashoffset:0;stroke-opacity:1;paint-order:fill markers stroke" />
      <rect
         ry="0.51620471"
         y="94.824524"
         x="74.569382"
         height="2.8584449"
         width="2.9293153"
         id="rect4587"
         style="opacity:1;fill:#ffffff;fill-opacity:1;stroke:none;stroke-width:0.26458332;stroke-linecap:square;stroke-linejoin:miter;stroke-miterlimit:4;stroke-dasharray:none;stroke-dashoffset:0;stroke-opacity:1;paint-order:fill markers stroke" />
    </g>
    <g
       style="display:inline"
       id="g4626"
       transform="translate(3.7543684,-81.768619)">
      <rect
         ry="0.51620567"
         y="101.73441"
         x="67.754005"
         height="3.4726562"
         width="6.260231"
         id="rect4585-7"
         style="opacity:1;fill:#c4c8d1;fill-opacity:1;stroke:none;stroke-width:0.26368794;stroke-linecap:square;stroke-linejoin:miter;stroke-miterlimit:4;stroke-dasharray:none;stroke-dashoffset:0;stroke-opacity:1;paint-order:fill markers stroke" />
      <rect
         ry="0.51620471"
         y="102.04152"
         x="68.202843"
         height="2.8584449"
         width="2.9293153"
         id="rect4587-7"
         style="opacity:1;fill:#ffffff;fill-opacity:1;stroke:none;stroke-width:0.26458332;stroke-linecap:square;stroke-linejoin:miter;stroke-miterlimit:4;stroke-dasharray:none;stroke-dashoffset:0;stroke-opacity:1;paint-order:fill markers stroke" />
    </g>
    <g
       style="display:inline"
       id="g4637"
       transform="translate(6.0104083,-86.375206)">
      <rect
         ry="0.51620471"
         y="114.33755"
         x="-3.4354458"
         height="4.8428202"
         width="2.6930804"
         id="rect4628"
         style="opacity:1;fill:#4b5671;fill-opacity:1;stroke:none;stroke-width:0.26458332;stroke-linecap:square;stroke-linejoin:miter;stroke-miterlimit:4;stroke-dasharray:none;stroke-dashoffset:0;stroke-opacity:1;paint-order:fill markers stroke" />
      <g
         aria-label="/"
         transform="scale(-1.0518514,-0.95070463)"
         style="font-style:normal;font-variant:normal;font-weight:normal;font-stretch:normal;font-size:2.39031792px;line-height:1.25;font-family:Montserrat;-inkscape-font-specification:Montserrat;letter-spacing:0px;word-spacing:0px;fill:#000000;fill-opacity:1;stroke:none;stroke-width:0.05975794"
         id="text4632">
        <path
           d="M 2.2644042,-123.93532 H 2.45802 l -0.7529501,2.2445 H 1.5138444 Z"
           style="fill:#ffffff;stroke-width:0.05975794"
           id="path4697" />
      </g>
    </g>
  </g>
</svg>
